<svg width="150" height="150" viewBox="0 0 150 150" fill="none" xmlns="http://www.w3.org/2000/svg">
<path d="M115.139 101.321C114.721 112.827 109.706 124.164 100.933 131.913C87.2363 144.009 66.5153 146.012 50.8478 136.515C32.2553 125.241 27.7838 103.245 30.6863 83.0731C30.9698 81.1141 31.3088 79.1671 31.6988 77.2321C35.5073 58.4686 43.6418 40.7311 54.3323 24.8491C48.1523 37.0741 43.3853 50.1151 41.3543 63.6646C39.3278 77.2141 40.1093 91.3081 44.7113 104.219C47.4563 111.927 51.8033 119.438 58.7033 123.831C64.1768 127.313 70.9913 128.552 77.3813 127.425C85.7468 125.948 93.9713 120.35 97.5368 112.5C98.1308 111.192 98.7248 109.88 99.1898 108.521C99.5573 107.445 99.7268 106.308 99.9938 105.198C100.469 103.223 100.526 101.208 100.453 99.1981C100.402 97.8856 100.22 96.5656 100.012 95.2651C99.8243 94.0876 99.5993 92.9056 99.2423 91.7671C98.8628 90.5611 98.3768 89.3836 97.8218 88.2526C97.2383 87.0526 96.5933 85.8691 95.8523 84.7606C94.5398 82.7791 93.0683 80.9176 91.2113 79.4176C90.0173 78.4561 88.8233 77.4766 87.5318 76.6501C86.3378 75.8866 85.0418 75.2581 83.7458 74.6686C82.6643 74.1766 81.5213 73.8076 80.4008 73.4071C80.0048 73.2661 79.5908 73.1806 79.1783 73.0951C78.4373 72.9421 77.6948 72.7561 76.9478 72.6706C75.7088 72.5296 74.4578 72.3826 73.2128 72.3766C71.9843 72.3646 70.7513 72.5071 69.5228 72.6196C68.7863 72.6871 68.0513 72.7831 67.3388 72.9541C66.0938 73.2481 64.8428 73.5481 63.6368 73.9666C62.3633 74.4076 61.1123 74.9461 59.8958 75.5341C58.0388 76.4341 56.3978 77.6401 54.9713 79.1506C53.5388 80.6671 52.0343 82.1221 50.5673 83.6101C50.3348 83.8471 50.1713 84.1531 49.9283 84.3796C49.7813 84.5161 49.5323 84.6406 49.3448 84.6166C49.2203 84.6001 49.0673 84.3286 49.0328 84.1531C48.8003 83.0326 48.5798 81.9061 48.3878 80.7736C48.2243 79.8001 48.1268 78.8146 47.9693 77.8411C47.8283 76.9411 47.6303 76.0471 47.4833 75.1411C47.2688 73.7821 47.0753 72.4246 46.8713 71.0656C46.6898 69.8266 46.4753 68.5921 46.3448 67.3471C46.2548 66.4981 46.2593 65.6326 46.2713 64.7716C46.2713 64.5841 46.4633 64.3636 46.6163 64.2106C49.5653 61.2781 52.5368 58.3696 55.4798 55.4326C61.1843 49.7446 66.8738 44.0386 72.5678 38.3446C77.9273 32.9851 83.2883 27.6361 88.6478 22.2766C93.5378 17.3806 98.4218 12.4741 103.313 7.57206C103.387 7.49856 103.472 7.44756 103.597 7.35156C103.636 7.41906 103.676 7.45956 103.687 7.51056C103.846 8.41056 104.003 9.31056 104.162 10.2166C104.354 11.3266 104.575 12.4291 104.746 13.5451C104.909 14.6266 105.011 15.7126 105.17 16.8001C105.358 18.0901 105.578 19.3816 105.758 20.6716C105.848 21.3001 105.871 21.9391 105.95 22.5676C106.138 24.0676 106.363 25.5676 106.522 27.0676C106.55 27.3331 106.409 27.7066 106.216 27.9001C99.1178 35.0206 92.0033 42.1291 84.8948 49.2376C82.4048 51.7276 79.9133 54.2191 77.4233 56.7091C77.3108 56.8216 77.1683 56.9191 77.0948 57.0541C77.0048 57.2296 76.9253 57.4396 76.9478 57.6196C76.9538 57.6931 77.2313 57.7666 77.3888 57.7951C79.1543 58.1236 80.9438 58.3666 82.6928 58.7806C84.3848 59.1826 86.0603 59.6686 87.6908 60.2686C89.1848 60.8176 90.6338 61.5136 92.0663 62.2276C93.3398 62.8666 94.5683 63.5971 95.7848 64.3381C96.6728 64.8811 97.5503 65.4526 98.3483 66.1156C99.9383 67.4281 101.552 68.7361 103.018 70.1911C105.061 72.2236 106.889 74.4646 108.424 76.9156C109.42 78.5116 110.336 80.1646 111.181 81.8461C111.797 83.0806 112.262 84.3991 112.732 85.6951C114.554 90.7216 115.336 96.0421 115.142 101.322L115.139 101.321ZM70.4258 64.4806C70.4258 64.4641 70.4198 64.4461 70.4198 64.4356C70.0583 64.4926 69.6893 64.5541 69.3278 64.6051C67.6418 64.8601 65.9543 65.1031 64.2683 65.3806C63.5723 65.4931 63.3683 65.8276 63.4643 66.5011C63.5273 66.9601 63.9563 67.2136 64.5623 67.1746C65.5703 67.1116 66.5723 67.0336 67.5788 67.0216C69.7868 67.0051 71.9993 66.9706 74.1893 67.3606C75.7508 67.6381 77.3243 67.8481 78.8648 68.2156C80.2058 68.5381 81.5198 69.0076 82.8218 69.4771C84.1073 69.9406 85.3913 70.4221 86.6258 71.0116C89.3708 72.3196 91.9523 73.9036 94.3568 75.7711C96.6833 77.5771 98.8223 79.5916 100.685 81.8671C101.975 83.4466 103.136 85.1506 104.251 86.8651C105.971 89.5201 107.267 92.3896 108.257 95.3941C108.439 95.9491 108.947 96.2656 109.492 96.1411C109.916 96.0451 110.267 95.535 110.171 95.0881C109.984 94.1941 109.832 93.2881 109.549 92.4226C109.063 90.9226 108.569 89.4166 107.936 87.9736C107.167 86.2186 106.334 84.4876 105.373 82.8286C104.065 80.5816 102.475 78.5221 100.691 76.6201C98.7608 74.5651 96.6728 72.6811 94.2953 71.1526C92.6993 70.1221 91.0463 69.1666 89.3648 68.2891C88.2038 67.6831 86.9543 67.2421 85.7318 66.7666C84.8828 66.4381 84.0173 66.1501 83.1503 65.8786C82.5953 65.7031 82.0358 65.5561 81.4643 65.4376C80.6213 65.2681 79.7723 65.1091 78.9173 64.9906C77.5583 64.8031 76.2008 64.5826 74.8313 64.5031C73.3658 64.4176 71.8943 64.4806 70.4273 64.4806H70.4258Z" fill="#FABD40"/>
<path d="M51.7771 104.62C51.4966 104.62 51.2476 104.424 51.1891 104.139C50.6701 101.565 50.5951 98.9547 50.9656 96.3792C51.3241 93.8907 52.0891 91.4892 53.2396 89.2407C53.3911 88.9452 53.7526 88.8297 54.0466 88.9797C54.3421 89.1312 54.4576 89.4927 54.3076 89.7867C53.2171 91.9167 52.4926 94.1907 52.1536 96.5487C51.8026 98.9877 51.8746 101.461 52.3666 103.9C52.4326 104.226 52.2226 104.541 51.8971 104.607C51.8566 104.614 51.8176 104.619 51.7786 104.619L51.7771 104.62Z" fill="#2661E9"/>
<path d="M55.677 87.1408C55.554 87.1408 55.431 87.1033 55.3245 87.0253C55.0575 86.8303 54.9975 86.4553 55.194 86.1868C58.5615 81.5713 63.504 78.4063 69.111 77.2753C74.085 76.2718 79.116 76.9213 83.6595 79.1518C83.9565 79.2973 84.0795 79.6573 83.934 79.9543C83.7885 80.2513 83.4285 80.3743 83.1315 80.2288C78.828 78.1168 74.061 77.5018 69.348 78.4513C64.0365 79.5223 59.3535 82.5208 56.163 86.8933C56.046 87.0538 55.863 87.1393 55.6785 87.1393L55.677 87.1408Z" fill="#2661E9"/>
<path d="M95.3778 95.8513C95.0973 95.8513 94.8483 95.6548 94.7898 95.3698C93.6903 89.9128 90.5748 85.1473 86.0208 81.9508C85.7493 81.7603 85.6849 81.3868 85.8739 81.1153C86.0644 80.8438 86.4378 80.7778 86.7093 80.9683C91.5168 84.3418 94.8048 89.3728 95.9658 95.1328C96.0318 95.4583 95.8203 95.7733 95.4963 95.8393C95.4558 95.8468 95.4168 95.8513 95.3778 95.8513Z" fill="#2661E9"/>
<path d="M95.835 100.668C95.835 100.668 95.8275 100.668 95.823 100.668C95.4915 100.662 95.229 100.388 95.235 100.058C95.265 98.484 95.121 96.8985 94.809 95.3475C94.743 95.022 94.953 94.707 95.2785 94.641C95.604 94.575 95.919 94.785 95.985 95.1105C96.315 96.747 96.4665 98.4195 96.435 100.082C96.429 100.409 96.162 100.67 95.835 100.67V100.668Z" fill="#2661E9"/>
<path d="M52.0163 105.565C51.7463 105.565 51.5018 105.382 51.4343 105.109C51.3533 104.78 51.2798 104.453 51.2153 104.137C51.1493 103.811 51.3593 103.496 51.6848 103.43C52.0103 103.364 52.3268 103.574 52.3913 103.9C52.4513 104.2 52.5218 104.51 52.5983 104.822C52.6778 105.143 52.4813 105.469 52.1588 105.548C52.1108 105.56 52.0628 105.566 52.0148 105.566L52.0163 105.565Z" fill="#2661E9"/>
<path d="M67.8653 121.69C67.7243 121.69 67.5833 121.641 67.4693 121.54C67.2203 121.321 67.1963 120.943 67.4153 120.694C69.8453 117.928 71.6483 114.597 72.6263 111.058C73.6523 107.349 73.7843 103.542 73.0178 99.7421C72.9518 99.4181 73.1618 99.1016 73.4873 99.0356C73.8128 98.9696 74.1278 99.1796 74.1938 99.5051C74.9978 103.491 74.8598 107.485 73.7828 111.378C72.7553 115.089 70.8653 118.584 68.3168 121.485C68.1983 121.62 68.0318 121.689 67.8653 121.689V121.69Z" fill="#2661E9"/>
<path d="M64.9274 120.708C64.7759 120.708 64.6259 120.651 64.5089 120.537C64.2719 120.306 64.2674 119.926 64.4984 119.688C66.5444 117.589 68.1224 115.143 69.1874 112.413C69.3074 112.104 69.6554 111.952 69.9644 112.072C70.2734 112.192 70.4249 112.54 70.3049 112.849C69.1814 115.729 67.5164 118.312 65.3564 120.526C65.2394 120.646 65.0834 120.708 64.9274 120.708Z" fill="#2661E9"/>
<path d="M70.9536 122.298C70.8246 122.298 70.6941 122.256 70.5846 122.171C70.3236 121.967 70.2771 121.59 70.4811 121.329C75.3816 115.058 77.2911 106.994 75.7191 99.204L75.6786 99.0045C75.5331 98.5155 75.2226 98.0955 74.7921 97.809C74.3046 97.485 73.7196 97.371 73.1466 97.4865C72.0606 97.7055 71.3241 98.6956 71.3916 99.7726L71.4501 100.065C72.0741 103.163 72.0576 106.287 71.4021 109.352C71.3331 109.676 71.0136 109.881 70.6896 109.812C70.3656 109.743 70.1586 109.424 70.2291 109.1C70.8096 106.388 70.8621 103.625 70.3836 100.88L70.3716 100.883L70.2546 100.305C69.8856 98.4721 71.0766 96.6796 72.9096 96.3106C73.7976 96.1306 74.7021 96.3091 75.4566 96.8101C76.2111 97.3111 76.7256 98.0761 76.9041 98.9641L77.0091 99.4875L76.9956 99.492C78.4491 107.463 76.4331 115.662 71.4261 122.069C71.3076 122.22 71.1306 122.3 70.9536 122.3V122.298Z" fill="#2661E9"/>
<path d="M62.3574 119.385C62.1969 119.385 62.0379 119.32 61.9194 119.194C61.6929 118.953 61.7064 118.573 61.9479 118.347C66.4089 114.174 68.5854 108.081 67.7679 102.048C67.7229 101.719 67.9539 101.418 68.2824 101.373C68.6109 101.328 68.9124 101.559 68.9574 101.887C69.8259 108.304 67.5129 114.786 62.7684 119.224C62.6529 119.332 62.5059 119.386 62.3589 119.386L62.3574 119.385Z" fill="#2661E9"/>
<path d="M79.5994 105.111C79.2694 105.111 79.0009 104.844 78.9994 104.513C78.9949 102.557 78.7939 100.583 78.4039 98.6446L78.3574 98.4121C78.0559 97.2091 77.3284 96.1771 76.2904 95.4871C75.1849 94.7536 73.8604 94.4926 72.5614 94.7551C70.6099 95.1481 69.0859 96.6616 68.6794 98.6116C68.6119 98.9356 68.2939 99.1441 67.9699 99.0766C67.6459 99.0091 67.4374 98.6911 67.5049 98.3671C68.0104 95.9476 69.9019 94.0696 72.3244 93.5806C73.9384 93.2551 75.5839 93.5776 76.9549 94.4896C78.3274 95.4016 79.2619 96.7921 79.5874 98.4076L79.6849 98.8891L79.6759 98.8921C80.0209 100.752 80.1979 102.641 80.2024 104.513C80.2024 104.844 79.9354 105.113 79.6039 105.114H79.6024L79.5994 105.111Z" fill="#2661E9"/>
<path d="M74.3017 122.426C74.1847 122.426 74.0677 122.392 73.9642 122.321C73.6912 122.134 73.6207 121.76 73.8082 121.487C76.5652 117.458 78.3112 112.781 78.8617 107.962C78.8992 107.633 79.1977 107.396 79.5262 107.434C79.8547 107.471 80.0917 107.768 80.0542 108.098C79.4827 113.111 77.6662 117.976 74.7997 122.165C74.6842 122.335 74.4952 122.426 74.3047 122.426H74.3017Z" fill="#2661E9"/>
<path d="M59.8886 117.809C59.7206 117.809 59.5541 117.739 59.4356 117.602C59.2181 117.352 59.2466 116.972 59.4956 116.756C61.6136 114.922 63.2246 112.556 64.1546 109.913C65.0486 107.375 65.2856 104.645 64.8476 101.983H64.8431L64.7276 101.413C64.2551 99.071 64.7231 96.686 66.0446 94.697C67.3661 92.708 69.3836 91.352 71.7251 90.881C72.5396 90.716 73.3691 90.6665 74.1911 90.7295C74.5211 90.755 74.7686 91.0445 74.7431 91.3745C74.7176 91.7045 74.4296 91.952 74.0981 91.9265C73.3871 91.871 72.6686 91.916 71.9621 92.0585C69.9341 92.468 68.1881 93.641 67.0436 95.363C65.9906 96.947 65.5646 98.822 65.8211 100.69L65.9186 101.176C66.5351 104.231 66.3161 107.392 65.2856 110.315C64.2866 113.155 62.5556 115.696 60.2801 117.667C60.1661 117.764 60.0266 117.814 59.8871 117.814L59.8886 117.809Z" fill="#2661E9"/>
<path d="M77.7779 122.049C77.6744 122.049 77.5709 122.022 77.4749 121.966C77.1884 121.798 77.0939 121.431 77.2604 121.146C81.3374 114.196 82.7039 106.018 81.1109 98.1164L81.0584 97.8569C80.5574 95.7464 79.1969 93.9434 77.2919 92.8814C77.0024 92.7194 76.8989 92.3549 77.0609 92.0654C77.2229 91.7759 77.5874 91.6724 77.8769 91.8344C80.1644 93.1109 81.7739 95.3129 82.2914 97.8794L82.3949 98.3894L82.3874 98.3924C83.8799 106.425 82.4354 114.7 78.2969 121.755C78.1859 121.945 77.9849 122.052 77.7794 122.052L77.7779 122.049Z" fill="#2661E9"/>
<path d="M57.7806 115.93C57.6066 115.93 57.4341 115.855 57.3156 115.711C57.1056 115.454 57.1431 115.076 57.3996 114.866C59.1756 113.411 60.5556 111.509 61.3881 109.367C61.5081 109.058 61.8561 108.905 62.1651 109.025C62.4741 109.145 62.6271 109.493 62.5071 109.802C61.5996 112.136 60.0966 114.209 58.1616 115.795C58.0506 115.886 57.9156 115.931 57.7821 115.931L57.7806 115.93Z" fill="#2661E9"/>
<path d="M84.724 111.044C84.691 111.044 84.6595 111.041 84.6265 111.036C84.2995 110.982 84.0775 110.673 84.1315 110.346C84.829 106.11 84.748 101.81 83.893 97.5645L83.86 97.4025C83.2765 94.7175 81.6985 92.406 79.405 90.882C77.065 89.328 74.26 88.7775 71.5075 89.3325C68.7535 89.8875 66.3805 91.482 64.8265 93.822C63.373 96.0105 62.797 98.6055 63.184 101.186L63.2905 101.717C63.5845 103.179 63.655 104.663 63.4975 106.128C63.4615 106.458 63.166 106.695 62.8375 106.661C62.5075 106.625 62.269 106.329 62.305 106.001C62.428 104.855 62.3995 103.694 62.221 102.545L62.1025 101.958C61.483 98.8905 62.0965 95.7645 63.829 93.1575C65.5615 90.5505 68.2045 88.7745 71.272 88.1565C74.3395 87.5385 77.464 88.1505 80.071 89.883C82.678 91.6155 84.454 94.2585 85.072 97.326L85.129 97.605V97.608C85.9585 101.906 86.023 106.256 85.318 110.541C85.27 110.835 85.015 111.044 84.727 111.044H84.724Z" fill="#2661E9"/>
<path d="M81.5762 120.969C81.4877 120.969 81.3992 120.949 81.3137 120.907C81.0152 120.762 80.8922 120.403 81.0377 120.105C82.0322 118.063 82.8332 115.92 83.4182 113.734C83.5037 113.415 83.8322 113.224 84.1532 113.31C84.4727 113.395 84.6632 113.724 84.5777 114.045C83.9732 116.304 83.1452 118.521 82.1162 120.631C82.0127 120.844 81.7982 120.969 81.5762 120.969Z" fill="#2661E9"/>
<path d="M85.3324 119.035C85.2619 119.035 85.1884 119.021 85.1179 118.994C84.8089 118.876 84.6529 118.529 84.7714 118.22C87.3379 111.509 87.9559 104.228 86.5579 97.1527L86.5264 97.0012C86.1439 95.1052 85.3774 93.3577 84.2479 91.8052C84.0529 91.5367 84.1114 91.1617 84.3799 90.9667C84.6484 90.7717 85.0234 90.8302 85.2184 91.0987C86.4019 92.7232 87.2194 94.5442 87.6514 96.5152H87.6544L87.7054 96.7642C89.1874 104.11 88.5604 111.677 85.8934 118.648C85.8019 118.886 85.5739 119.033 85.3324 119.033V119.035Z" fill="#2661E9"/>
<path d="M82.3468 89.4886C82.2133 89.4886 82.0783 89.4436 81.9673 89.3521C78.8668 86.8126 74.8378 85.8106 70.9123 86.6011C69.9028 86.8051 68.9188 87.1231 67.9903 87.5491C67.6888 87.6871 67.3333 87.5551 67.1953 87.2536C67.0573 86.9521 67.1893 86.5966 67.4908 86.4586C68.5033 85.9951 69.5743 85.6471 70.6753 85.4251C74.9548 84.5626 79.3468 85.6561 82.7278 88.4236C82.9843 88.6336 83.0218 89.0116 82.8118 89.2681C82.6933 89.4136 82.5208 89.4886 82.3468 89.4886Z" fill="#2661E9"/>
<path d="M56.022 113.855C55.8465 113.855 55.6725 113.779 55.554 113.632C55.347 113.374 55.3875 112.996 55.6455 112.789C58.605 110.411 60.042 106.685 59.463 102.968L59.3685 102.499C58.3005 97.1993 60.246 91.7873 64.446 88.3763C64.704 88.1678 65.0805 88.2068 65.2905 88.4633C65.499 88.7198 65.46 89.0978 65.2035 89.3078C61.4895 92.3243 59.697 97.0448 60.45 101.735L60.5565 102.26C61.4265 106.573 59.832 110.965 56.3985 113.725C56.2875 113.813 56.1555 113.857 56.0235 113.857L56.022 113.855Z" fill="#2661E9"/>
<path d="M54.3811 111.553C54.2116 111.553 54.0421 111.481 53.9236 111.342C53.7091 111.09 53.7406 110.71 53.9941 110.496C56.0581 108.747 57.0571 106.057 56.6506 103.404L56.5786 103.048C56.3986 102.154 56.2876 101.236 56.2486 100.32C56.2351 99.9883 56.4916 99.7093 56.8231 99.6958C57.1546 99.6823 57.4336 99.9388 57.4471 100.27C57.4756 100.945 57.5461 101.622 57.6571 102.288L57.7621 102.808C58.4056 106.003 57.2596 109.3 54.7696 111.411C54.6571 111.507 54.5191 111.553 54.3826 111.553H54.3811Z" fill="#2661E9"/>
<path d="M90.2172 99.0837C89.9247 99.0837 89.6682 98.8692 89.6247 98.5722C89.5332 97.9557 89.4267 97.3377 89.3097 96.7332L89.2497 96.4452C88.4022 92.2377 85.9662 88.6137 82.3917 86.2392C78.8172 83.8647 74.5317 83.0232 70.3242 83.8722C67.0887 84.5247 64.1757 86.1252 61.9017 88.5012C59.6787 90.8232 58.2147 93.7182 57.6672 96.8727C57.6102 97.1997 57.2997 97.4187 56.9742 97.3617C56.6472 97.3047 56.4297 96.9942 56.4852 96.6687C57.0747 93.2787 58.6482 90.1677 61.0362 87.6732C63.4797 85.1187 66.6102 83.3982 70.0887 82.6977C74.6097 81.7857 79.2162 82.6902 83.0562 85.2417C86.7747 87.7122 89.3457 91.4412 90.3327 95.7777H90.3387L90.4287 96.2112C90.5727 96.9282 90.7017 97.6632 90.8112 98.3997C90.8607 98.7267 90.6342 99.0327 90.3057 99.0807C90.2757 99.0852 90.2457 99.0867 90.2172 99.0867V99.0837Z" fill="#2661E9"/>
<path d="M89.3026 115.885C89.2516 115.885 89.1991 115.879 89.1481 115.864C88.8286 115.779 88.6381 115.45 88.7236 115.131C89.8636 110.857 90.3001 106.452 90.0211 102.036C90.0001 101.706 90.2521 101.421 90.5821 101.4C90.9136 101.377 91.1971 101.631 91.2181 101.961C91.5046 106.506 91.0546 111.042 89.8816 115.44C89.8096 115.708 89.5681 115.885 89.3026 115.885Z" fill="#2661E9"/>
<path d="M53.0924 108.98C52.9469 108.98 52.7999 108.927 52.6844 108.819C52.4414 108.594 52.4264 108.215 52.6529 107.972C53.6924 106.851 54.1589 105.311 53.9219 103.812L53.8784 103.607C52.8209 98.3598 53.8694 93.0138 56.8319 88.5558C59.7944 84.0978 64.3154 81.0588 69.5639 80.0013C71.7674 79.5573 74.0039 79.4823 76.2104 79.7808C76.5389 79.8258 76.7684 80.1273 76.7249 80.4558C76.6799 80.7843 76.3784 81.0138 76.0499 80.9703C73.9769 80.6898 71.8739 80.7588 69.8009 81.1773C64.8674 82.1718 60.6164 85.0278 57.8324 89.2203C55.1099 93.3168 54.1064 98.2098 54.9914 103.035L55.0634 103.368C55.4549 105.308 54.8819 107.333 53.5349 108.788C53.4164 108.915 53.2559 108.98 53.0954 108.98H53.0924Z" fill="#2661E9"/>
<path d="M93.1484 110.67C93.1229 110.67 93.0989 110.668 93.0734 110.665C92.7449 110.625 92.5108 110.325 92.5528 109.996C93.1198 105.439 92.9639 100.83 92.0894 96.2893L92.0084 95.9053C90.6599 89.2153 85.7819 83.7643 79.2764 81.6793C78.9614 81.5788 78.7874 81.2398 78.8879 80.9248C78.9898 80.6098 79.3274 80.4358 79.6424 80.5363C86.3789 82.6963 91.4758 88.2493 93.0628 95.1073H93.0703L93.1889 95.6668C94.1564 100.459 94.3424 105.331 93.7424 110.145C93.7049 110.448 93.4454 110.671 93.1484 110.671V110.67Z" fill="#2661E9"/>
</svg>
