<svg xmlns="http://www.w3.org/2000/svg" xmlns:xlink="http://www.w3.org/1999/xlink" width="20" height="20" viewBox="0 0 20 20">
  <defs>
    <clipPath id="clip-path">
      <rect id="Rectangle_7340" data-name="Rectangle 7340" width="20" height="20" transform="translate(14 32)" fill="#5e5e5e" stroke="#707070" stroke-width="1"/>
    </clipPath>
  </defs>
  <g id="apple" transform="translate(-14 -32)" clip-path="url(#clip-path)">
    <g id="apple-pay" transform="translate(14 -56.081)">
      <path id="Path_45815" data-name="Path 45815" d="M120.665,183.1a1.046,1.046,0,0,1,.263-.765,1.106,1.106,0,0,1,.734-.38,1.115,1.115,0,0,1-.257.8A.924.924,0,0,1,120.665,183.1Z" transform="translate(-115.945 -86.363)"/>
      <path id="Path_45816" data-name="Path 45816" d="M73.435,215.062a2.716,2.716,0,0,1-.341.7c-.207.305-.421.6-.762.61s-.439-.2-.817-.2-.5.189-.811.2c-.329.012-.579-.324-.787-.629a2.569,2.569,0,0,1-.311-2.5,1.205,1.205,0,0,1,1.024-.622c.323-.006.622.214.817.214s.542-.256.951-.232a1.168,1.168,0,0,1,.909.494,1.131,1.131,0,0,0-.536.946A1.108,1.108,0,0,0,73.435,215.062Z" transform="translate(-66.684 -115.823)"/>
      <path id="Path_45817" data-name="Path 45817" d="M195.1,190.886h-1.716v4.577h.71V193.9h.983a1.452,1.452,0,0,0,1.529-1.51A1.436,1.436,0,0,0,195.1,190.886Zm-.19,2.417H194.1v-1.818h.819a.911.911,0,1,1,0,1.818Z" transform="translate(-185.831 -94.945)"/>
      <path id="Path_45818" data-name="Path 45818" d="M282.137,221.086c-.825,0-1.339.444-1.377,1.047h.647a.639.639,0,0,1,.7-.488c.419,0,.669.222.669.593v.257l-.913.054c-.793.045-1.24.4-1.24.987a1.012,1.012,0,0,0,1.11,1.006,1.192,1.192,0,0,0,1.053-.606h.016v.549h.657v-2.3C283.463,221.514,282.946,221.086,282.137,221.086Zm.644,2.148a.8.8,0,0,1-.853.764c-.368,0-.609-.19-.609-.482s.231-.466.64-.495l.822-.051Z" transform="translate(-269.663 -123.965)"/>
      <path id="Path_45819" data-name="Path 45819" d="M363.07,222.626h.723l-1.25,3.512c-.286.809-.615,1.069-1.307,1.069a2.672,2.672,0,0,1-.279-.016v-.555a1.28,1.28,0,0,0,.222.013.556.556,0,0,0,.593-.476c0-.006.06-.2.06-.206l-1.205-3.341h.742l.844,2.715h.012Z" transform="translate(-346.537 -125.444)"/>
      <path id="Path_45820" data-name="Path 45820" d="M20,93.667a1.983,1.983,0,0,0-.154-.906,1.217,1.217,0,0,0-.526-.526,1.982,1.982,0,0,0-.906-.154H1.791a4.269,4.269,0,0,0-.754.036,1.209,1.209,0,0,0-1,1A4.261,4.261,0,0,0,0,93.873v9.221c0,.068,0,.137,0,.205a1.987,1.987,0,0,0,.154.906,1.208,1.208,0,0,0,.526.526,2.021,2.021,0,0,0,.906.153H18.414a2.014,2.014,0,0,0,.906-.153,1.207,1.207,0,0,0,.526-.526A2,2,0,0,0,20,103.3c0-.068,0-.137,0-.205V93.873C20,93.8,20,93.736,20,93.667Zm-.426,9.427c0,.067,0,.134,0,.2a1.587,1.587,0,0,1-.107.715.78.78,0,0,1-.34.339,1.588,1.588,0,0,1-.715.107H1.588a1.585,1.585,0,0,1-.715-.107.775.775,0,0,1-.338-.338,1.6,1.6,0,0,1-.107-.715V93.671c0-.055,0-.109,0-.164a1.3,1.3,0,0,1,.1-.552.778.778,0,0,1,.339-.338,1.289,1.289,0,0,1,.552-.1l.164,0H18.411a1.58,1.58,0,0,1,.716.107.779.779,0,0,1,.339.339,1.584,1.584,0,0,1,.107.716c0,.067,0,.134,0,.2v9.221Z" transform="translate(0 0)" fill="#278732"/>
      <path id="Path_45821" data-name="Path 45821" d="M120.665,183.1a1.046,1.046,0,0,1,.263-.765,1.106,1.106,0,0,1,.734-.38,1.115,1.115,0,0,1-.257.8A.924.924,0,0,1,120.665,183.1Z" transform="translate(-115.945 -86.363)"/>
      <path id="Path_45822" data-name="Path 45822" d="M73.435,215.062a2.716,2.716,0,0,1-.341.7c-.207.305-.421.6-.762.61s-.439-.2-.817-.2-.5.189-.811.2c-.329.012-.579-.324-.787-.629a2.569,2.569,0,0,1-.311-2.5,1.205,1.205,0,0,1,1.024-.622c.323-.006.622.214.817.214s.542-.256.951-.232a1.168,1.168,0,0,1,.909.494,1.131,1.131,0,0,0-.536.946A1.108,1.108,0,0,0,73.435,215.062Z" transform="translate(-66.684 -115.823)"/>
      <path id="Path_45823" data-name="Path 45823" d="M195.1,190.886h-1.716v4.577h.71V193.9h.983a1.452,1.452,0,0,0,1.529-1.51A1.436,1.436,0,0,0,195.1,190.886Zm-.19,2.417H194.1v-1.818h.819a.911.911,0,1,1,0,1.818Z" transform="translate(-185.831 -94.945)"/>
      <path id="Path_45824" data-name="Path 45824" d="M282.137,221.086c-.825,0-1.339.444-1.377,1.047h.647a.639.639,0,0,1,.7-.488c.419,0,.669.222.669.593v.257l-.913.054c-.793.045-1.24.4-1.24.987a1.012,1.012,0,0,0,1.11,1.006,1.192,1.192,0,0,0,1.053-.606h.016v.549h.657v-2.3C283.463,221.514,282.946,221.086,282.137,221.086Zm.644,2.148a.8.8,0,0,1-.853.764c-.368,0-.609-.19-.609-.482s.231-.466.64-.495l.822-.051Z" transform="translate(-269.663 -123.965)"/>
      <path id="Path_45825" data-name="Path 45825" d="M363.793,222.626l-1.25,3.512c-.286.809-.615,1.069-1.307,1.069a2.672,2.672,0,0,1-.279-.016v-.555a1.28,1.28,0,0,0,.222.013.556.556,0,0,0,.593-.476c0-.006.06-.2.06-.206l-1.205-3.341h.742l.844,2.715h.012l.844-2.715Z" transform="translate(-346.537 -125.444)"/>
      <g id="Group_40136" data-name="Group 40136" transform="translate(2.711 95.593)">
        <g id="Group_40134" data-name="Group 40134" transform="translate(0 0)">
          <path id="Path_45826" data-name="Path 45826" d="M121.4,182.751a.924.924,0,0,1-.74.349,1.046,1.046,0,0,1,.263-.765,1.106,1.106,0,0,1,.734-.38A1.115,1.115,0,0,1,121.4,182.751Z" transform="translate(-118.656 -181.956)" fill="#278732"/>
          <path id="Path_45827" data-name="Path 45827" d="M73.435,215.062a2.716,2.716,0,0,1-.341.7c-.207.305-.421.6-.762.61s-.439-.2-.817-.2-.5.189-.811.2c-.329.012-.579-.324-.787-.629a2.569,2.569,0,0,1-.311-2.5,1.205,1.205,0,0,1,1.024-.622c.323-.006.622.214.817.214s.542-.256.951-.232a1.168,1.168,0,0,1,.909.494,1.131,1.131,0,0,0-.536.946A1.108,1.108,0,0,0,73.435,215.062Z" transform="translate(-69.396 -211.416)" fill="#278732"/>
        </g>
        <g id="Group_40135" data-name="Group 40135" transform="translate(4.845 0.349)">
          <path id="Path_45828" data-name="Path 45828" d="M195.1,190.886h-1.716v4.577h.71V193.9h.983a1.452,1.452,0,0,0,1.529-1.51A1.436,1.436,0,0,0,195.1,190.886Zm-.19,2.417H194.1v-1.818h.819a.911.911,0,1,1,0,1.818Z" transform="translate(-193.387 -190.886)" fill="#278732"/>
          <path id="Path_45829" data-name="Path 45829" d="M282.137,221.086c-.825,0-1.339.444-1.377,1.047h.647a.639.639,0,0,1,.7-.488c.419,0,.669.222.669.593v.257l-.913.054c-.793.045-1.24.4-1.24.987a1.012,1.012,0,0,0,1.11,1.006,1.192,1.192,0,0,0,1.053-.606h.016v.549h.657v-2.3C283.463,221.514,282.946,221.086,282.137,221.086Zm.644,2.148a.8.8,0,0,1-.853.764c-.368,0-.609-.19-.609-.482s.231-.466.64-.495l.822-.051Z" transform="translate(-277.218 -219.906)" fill="#278732"/>
          <path id="Path_45830" data-name="Path 45830" d="M363.07,222.626l-.844,2.715h-.012l-.844-2.715h-.742l1.205,3.341s-.06.2-.06.206a.556.556,0,0,1-.593.476,1.281,1.281,0,0,1-.222-.012v.555a2.672,2.672,0,0,0,.279.016c.692,0,1.021-.26,1.307-1.069l1.25-3.512Z" transform="translate(-354.093 -221.386)" fill="#278732"/>
        </g>
      </g>
    </g>
  </g>
</svg>
