<svg width="24" height="24" viewBox="0 0 24 24" fill="none" xmlns="http://www.w3.org/2000/svg">
<path d="M13.4 4.15C13.4 4.34 13.56 4.5 13.75 4.5H14.88C17.04 4.5 18.8 6.26 18.8 8.42V17.65C18.8 17.84 18.96 18 19.15 18H19.85C21.04 18 22 17.04 22 15.85V4.15C22 2.96 21.04 2 19.85 2H15.55C14.36 2 13.4 2.96 13.4 4.15Z" fill="#1362DF"/>
<path d="M2.00156 4.15V15.85C2.00156 17.04 2.96156 18 4.15156 18H4.78156C4.97156 18 5.13156 17.84 5.13156 17.65V8.42C5.13156 6.26 6.89156 4.5 9.05156 4.5H10.2516C10.4416 4.5 10.6016 4.34 10.6016 4.15C10.6016 2.96 9.64156 2 8.45156 2H4.15156C2.96156 2 2.00156 2.96 2.00156 4.15Z" fill="#1362DF"/>
<path d="M9.04688 6H14.8769C16.2169 6 17.2969 7.08 17.2969 8.42V19.58C17.2969 20.92 16.2169 22 14.8769 22H13.2469C12.9669 22 12.7469 21.78 12.7469 21.5V19C12.7469 18.59 12.4069 18.25 11.9969 18.25C11.5869 18.25 11.2469 18.59 11.2469 19V21.5C11.2469 21.78 11.0269 22 10.7469 22H9.03687C7.70687 22 6.62687 20.92 6.62687 19.59V8.42C6.62687 7.08 7.70687 6 9.04688 6ZM9.99687 14.75H13.9969C14.4069 14.75 14.7469 14.41 14.7469 14C14.7469 13.59 14.4069 13.25 13.9969 13.25H9.99687C9.58687 13.25 9.24687 13.59 9.24687 14C9.24687 14.41 9.58687 14.75 9.99687 14.75ZM9.99687 11.75H13.9969C14.4069 11.75 14.7469 11.41 14.7469 11C14.7469 10.59 14.4069 10.25 13.9969 10.25H9.99687C9.58687 10.25 9.24687 10.59 9.24687 11C9.24687 11.41 9.58687 11.75 9.99687 11.75Z" fill="#1362DF"/>
</svg>
