<svg width="25" height="24" viewBox="0 0 25 24" fill="none" xmlns="http://www.w3.org/2000/svg">
<path d="M8.92188 14.3298C8.92188 15.6198 9.91188 16.6598 11.1419 16.6598H13.6519C14.7219 16.6598 15.5919 15.7498 15.5919 14.6298C15.5919 13.4098 15.0619 12.9798 14.2719 12.6998L10.2419 11.2998C9.45187 11.0198 8.92188 10.5898 8.92188 9.36984C8.92188 8.24984 9.79187 7.33984 10.8619 7.33984H13.3719C14.6019 7.33984 15.5919 8.37984 15.5919 9.66984" stroke="#C1C2C3" stroke-width="1.5" stroke-linecap="round" stroke-linejoin="round"/>
<path d="M12.25 6V18" stroke="#C1C2C3" stroke-width="1.5" stroke-linecap="round" stroke-linejoin="round"/>
<path d="M12.25 22C17.7728 22 22.25 17.5228 22.25 12C22.25 6.47715 17.7728 2 12.25 2C6.72715 2 2.25 6.47715 2.25 12C2.25 17.5228 6.72715 22 12.25 22Z" stroke="#C1C2C3" stroke-width="1.5" stroke-linecap="round" stroke-linejoin="round"/>
</svg>
