<svg width="131" height="130" viewBox="0 0 131 130" fill="none" xmlns="http://www.w3.org/2000/svg">
<g clip-path="url(#clip0_17789_14064)">
<path d="M52.1581 66.5852C52.1581 66.5852 51.2975 78.9273 48.9935 78.2925C46.6896 77.6578 51.1632 64.7285 51.1632 64.7285C51.1632 64.7285 42.5062 55.0404 38.0921 53.6908C38.0921 53.6908 40.0869 67.8357 38.0101 66.6533C35.9333 65.471 33.1739 50.8485 33.1739 50.8485C33.1739 50.8485 22.9371 44.1956 18.4318 50.0284C13.9265 55.8612 15.4385 60.3392 16.9109 61.4313C18.3833 62.5234 28.9811 66.7589 28.1395 68.0143C27.2978 69.2696 19.2707 68.5073 15.8117 65.6285C15.8117 65.6285 15.7064 78.2604 21.6833 80.0977C27.66 81.9351 30.9161 79.114 34.589 80.3166C38.2618 81.5191 40.4654 83.5564 38.2882 83.7764C36.1111 83.9966 30.3549 80.8537 26.4663 82.1053C22.5777 83.3569 19.6258 83.8974 24.5105 87.2072C29.3952 90.5169 39.2619 93.8073 42.8819 90.4954C43.0397 90.351 43.1903 90.2133 43.3346 90.0812C43.0782 90.3725 42.8819 90.4954 42.8819 90.4954C43.6286 91.4785 43.969 94.831 44.122 97.3583C44.1196 97.7766 44.1454 98.3675 44.2101 99.1821C44.2232 99.5437 44.2314 99.8385 44.2363 100.044C44.1651 105.534 39.7952 113.251 39.7952 113.251L40.8087 114.031C46.7356 106.884 45.0947 98.3126 45.0947 98.3126C44.4344 91.7812 46.502 87.1834 46.502 87.1834C46.502 87.1834 59.1542 85.6927 57.5995 75.9021C57.5995 75.9021 55.7539 69.5207 52.1581 66.5852Z" fill="#FCECDB"/>
<path d="M93.6186 64.831C93.6186 64.831 89.7799 74.5447 80.9712 84.266C76.4864 89.2155 70.2899 92.2111 67.8768 97.3678C65.1828 103.125 63.0397 109.447 63.0397 109.447L47.1172 85.3582C47.1172 85.3582 48.1251 58.563 49.2676 54.2921C50.6807 49.0094 52.8599 45.6168 54.694 37.5284C55.1156 35.6691 57.7859 26.8646 58.0055 26.2081C58.1009 25.9252 58.8629 25.4914 59.8524 25.4922C60.6465 25.4922 61.9946 26.2597 62.3347 27.8369C64.0541 35.809 61.9845 41.0674 62.008 41.301C62.6145 47.4278 60.791 51.9757 62.0697 53.1801C62.1174 53.2247 62.2057 53.2036 62.3308 53.1238C64.5473 51.7006 78.3046 31.6439 79.999 31.2109C81.7887 30.7545 93.6186 64.831 93.6186 64.831Z" fill="#FFB0A1"/>
<path d="M91.7662 59.4961C89.8284 58.7702 88.34 58.5006 88.34 58.5006C77.9822 58.4169 66.875 67.4753 66.875 67.4753C69.8974 73.1306 81.8928 74.8856 88.7658 72.8264C91.6446 68.2879 93.651 64.8367 93.651 64.8367C93.651 64.8367 92.9079 62.6964 91.7662 59.4961Z" fill="#FF9B89"/>
<path d="M62.6408 69.2994C62.6408 69.2994 63.1517 63.8745 60.2483 57.8881C59.3176 55.9693 58.3725 52.2592 59.9356 49.4698C61.4987 46.6796 62.0388 41.3125 62.0388 41.3125C62.6453 47.4393 60.8219 51.9872 62.1006 53.1916C62.1483 53.2362 62.2365 53.215 62.3617 53.1353C64.8163 57.821 63.7483 64.5904 62.6408 69.2994Z" fill="#FF9B89"/>
<path d="M66.1361 113.943C66.1428 114.005 66.1455 114.067 66.145 114.13C66.1405 114.726 66.0935 118.27 65.6095 128.094C65.5571 129.158 64.6784 129.998 63.6133 129.998H29.6469C28.182 129.998 27.2155 128.472 27.8388 127.147C34.7609 112.424 40.7974 99.8733 42.9706 95.3688C43.4477 94.3799 44.6177 93.9693 45.5905 94.4783C50.7005 97.1518 65.2313 105.462 66.1361 113.943Z" fill="#1362DF"/>
<path d="M46.2962 102.094C42.849 102.419 38.5859 104.447 38.5859 104.447C40.8989 108.594 50.5839 110.869 56.4339 111.974C61.7754 112.983 64.2446 114.1 66.118 114.187C66.1189 114.088 66.1189 114.042 66.1189 114.042C66.0219 113.019 65.7247 111.998 65.269 110.989C60.6979 105.887 46.2962 102.094 46.2962 102.094Z" fill="#1158C9"/>
<path d="M106.099 23.9282L101.12 31.2274L96.2337 38.3906C95.9359 38.7501 95.591 38.875 95.2179 38.8391C94.0454 38.7278 92.5948 37.0367 91.4643 36.1005L91.3495 36.0063C89.8587 34.7731 89.6482 32.5445 90.8814 31.0545L98.3493 22.0274V22.0266L100.564 19.3495C101.797 17.8587 104.026 17.6482 105.516 18.8814L105.631 18.9755C107.121 20.2088 107.332 22.4374 106.099 23.9282Z" fill="#FFB0A1"/>
<path d="M90.6955 31.2812C90.2345 31.9496 90.0355 32.7353 90.0857 33.5042L95.2169 38.8198C95.59 38.8558 95.9349 38.7308 96.2327 38.3714L99.3392 33.817C96.0873 31.8936 92.8853 31.3842 90.6955 31.2812Z" fill="#FFA695"/>
<path d="M57.8883 26.5859C57.2436 28.4312 56.7306 30.1539 56.3125 31.7882C56.3125 31.7882 57.7244 32.3113 58.4557 31.9496C59.1872 31.5878 59.784 26.8691 57.8883 26.5859Z" fill="#FFC9BE"/>
<path d="M86.637 9.97071C81.5413 9.15398 76.7484 12.6228 75.9316 17.7184C75.1149 22.8141 78.5837 27.6071 83.6794 28.4238C88.7751 29.2405 93.568 25.7718 94.3848 20.6761C95.2015 15.5804 91.7327 10.7874 86.637 9.97071ZM83.7816 27.7858C79.0383 27.0256 75.8094 22.5641 76.5696 17.8207C77.3299 13.0774 81.7914 9.84844 86.5347 10.6087C91.278 11.3689 94.507 15.8305 93.7467 20.5738C92.9865 25.3172 88.5249 28.5461 83.7816 27.7858Z" fill="#12161C"/>
<path d="M86.9464 24.726L81.9062 23.918L81.1512 28.6278L86.1914 29.4358L86.9464 24.726Z" fill="#2A3D6B"/>
<path d="M67.4292 29.0434L65.5 30.2422L67.2275 33.0223L69.1567 31.8236L67.4292 29.0434Z" fill="#2A3D6B"/>
<path d="M80.0806 74.5362C92.8449 74.5362 103.192 64.1887 103.192 51.4244C103.192 38.66 92.8449 28.3125 80.0806 28.3125C67.3163 28.3125 56.9688 38.66 56.9688 51.4244C56.9688 64.1887 67.3163 74.5362 80.0806 74.5362Z" fill="#233D82"/>
<path d="M94.4664 65.8091C102.417 57.8589 102.417 44.9692 94.4664 37.019C86.5162 29.0688 73.6265 29.0688 65.6763 37.019C57.7261 44.9692 57.7261 57.8589 65.6763 65.8091C73.6265 73.7593 86.5162 73.7593 94.4664 65.8091Z" fill="#729FE3"/>
<path d="M80.074 70.6167C90.6773 70.6167 99.273 62.021 99.273 51.4177C99.273 40.8144 90.6773 32.2188 80.074 32.2188C69.4707 32.2188 60.875 40.8144 60.875 51.4177C60.875 62.021 69.4707 70.6167 80.074 70.6167Z" fill="#C8DCFA"/>
<path d="M58.1253 48.961C60.1453 36.3575 72 27.778 84.6035 29.7981C90.6442 30.7662 95.7602 33.9938 99.2282 38.48C95.7759 33.3778 90.3045 29.6591 83.7417 28.6072C71.1382 26.5871 59.2835 35.1667 57.2634 47.7702C56.2115 54.333 58.034 60.6926 61.8017 65.5665C58.6241 60.8701 57.1571 55.0017 58.1253 48.961Z" fill="#405A99"/>
<path d="M96.4021 39.2539C99.3418 43.4386 100.718 48.728 99.8443 54.1765C98.0649 65.2781 87.6229 72.8353 76.5212 71.0559C71.0728 70.1827 66.4782 67.2228 63.4219 63.1224C66.4721 67.4644 71.2059 70.6169 76.8592 71.523C87.9608 73.3023 98.4029 65.7451 100.182 54.6435C101.088 48.9904 99.5733 43.5083 96.4021 39.2539Z" fill="#405A99"/>
<path d="M80.2917 50.0102C79.5218 49.8868 78.7977 50.4108 78.6742 51.1808C78.5509 51.9506 79.075 52.6748 79.8448 52.7982C80.6147 52.9215 81.3389 52.3975 81.4622 51.6276C81.5857 50.8578 81.0616 50.1336 80.2917 50.0102ZM79.9209 52.3239C79.4129 52.2425 79.0672 51.7647 79.1485 51.2568C79.23 50.7488 79.7077 50.403 80.2157 50.4844C80.7237 50.5659 81.0694 51.0436 80.9881 51.5516C80.9066 52.0596 80.4289 52.4054 79.9209 52.3239Z" fill="#C65447"/>
<path d="M79.0554 50.9807L64.2884 48.8516L64.2812 48.8963L78.9737 51.4898C78.9674 51.405 78.9705 51.3182 78.9845 51.2306C78.9986 51.1429 79.0229 51.0594 79.0554 50.9807Z" fill="#C65447"/>
<path d="M86.6932 52.0831L81.186 51.2891C81.1963 51.3849 81.1943 51.4837 81.1783 51.5834C81.1623 51.6831 81.1333 51.7774 81.0938 51.8652L86.5731 52.8324L86.6932 52.0831Z" fill="#C65447"/>
<path d="M79.8138 45.6945C81.5328 43.9755 81.5328 41.1886 79.8138 39.4696C78.0949 37.7507 75.3079 37.7507 73.589 39.4696C71.87 41.1886 71.87 43.9755 73.589 45.6945C75.3079 47.4134 78.0949 47.4134 79.8138 45.6945Z" fill="#6EA7FB"/>
<path d="M77.0105 42.6249C77.0388 42.4484 76.9187 42.2824 76.7421 42.2541C76.5656 42.2258 76.3996 42.346 76.3713 42.5225C76.343 42.699 76.4632 42.8651 76.6397 42.8933C76.8162 42.9216 76.9822 42.8014 77.0105 42.6249ZM76.4801 42.5399C76.4987 42.4234 76.6082 42.3442 76.7247 42.3629C76.8412 42.3815 76.9204 42.491 76.9018 42.6075C76.8831 42.724 76.7736 42.8032 76.6571 42.7846C76.5406 42.7659 76.4614 42.6563 76.4801 42.5399Z" fill="#C65447"/>
<path d="M76.4575 42.4842L73.0719 41.9961L73.0703 42.0064L76.4387 42.601C76.4373 42.5815 76.438 42.5617 76.4412 42.5416C76.4445 42.5214 76.4501 42.5023 76.4575 42.4842Z" fill="#C65447"/>
<path d="M78.2134 42.7368L76.9508 42.5547C76.9532 42.5767 76.9527 42.5993 76.9491 42.6222C76.9454 42.645 76.9387 42.6666 76.9297 42.6868L78.1859 42.9085L78.2134 42.7368Z" fill="#C65447"/>
<path d="M89.1576 47.1945C90.8765 45.4755 90.8765 42.6886 89.1576 40.9696C87.4386 39.2507 84.6517 39.2507 82.9327 40.9696C81.2138 42.6886 81.2138 45.4755 82.9327 47.1945C84.6517 48.9134 87.4386 48.9134 89.1576 47.1945Z" fill="#6EA7FB"/>
<path d="M86.3543 44.1249C86.3826 43.9485 86.2624 43.7824 86.0859 43.7541C85.9094 43.7258 85.7433 43.846 85.7151 44.0225C85.6868 44.199 85.8069 44.3651 85.9834 44.3933C86.1599 44.4216 86.326 44.3014 86.3543 44.1249ZM85.8238 44.0399C85.8425 43.9234 85.952 43.8442 86.0685 43.8629C86.1849 43.8815 86.2642 43.991 86.2455 44.1075C86.2269 44.224 86.1174 44.3032 86.0009 44.2846C85.8844 44.2659 85.8052 44.1563 85.8238 44.0399Z" fill="#233D82"/>
<path d="M86.1324 43.8638L86.6205 40.4782L86.6102 40.4766L86.0156 43.8451C86.0351 43.8436 86.0549 43.8443 86.075 43.8475C86.0952 43.8507 86.1143 43.8563 86.1324 43.8638Z" fill="#233D82"/>
<path d="M85.8827 45.6197L86.0648 44.3571C86.0428 44.3594 86.0202 44.3589 85.9973 44.3553C85.9745 44.3517 85.9529 44.345 85.9327 44.3359L85.7109 45.5922L85.8827 45.6197Z" fill="#233D82"/>
<path d="M83.9441 32.8101L82.1562 32.5234L81.8696 34.3113L83.6575 34.598L83.9441 32.8101Z" fill="#2A3D6B"/>
<path d="M78.2566 68.5132L76.4688 68.2266L76.1821 70.0145L77.97 70.3011L78.2566 68.5132Z" fill="#2A3D6B"/>
<path d="M61.4741 47.5207L61.1875 49.3086L62.9754 49.5952L63.262 47.8073L61.4741 47.5207Z" fill="#2A3D6B"/>
<path d="M97.1694 53.2356L96.8828 55.0234L98.6707 55.3101L98.9573 53.5222L97.1694 53.2356Z" fill="#2A3D6B"/>
<path d="M74.1447 33.3543L72.4531 34L73.0988 35.6916L74.7904 35.0459L74.1447 33.3543Z" fill="#2A3D6B"/>
<path d="M87.0509 67.1473L85.3594 67.793L86.0051 69.4845L87.6966 68.8388L87.0509 67.1473Z" fill="#2A3D6B"/>
<path d="M62.0106 57.3397L62.6562 59.0312L64.3478 58.3856L63.7021 56.694L62.0106 57.3397Z" fill="#2A3D6B"/>
<path d="M95.7762 44.4412L96.4219 46.1328L98.1134 45.4871L97.4677 43.7956L95.7762 44.4412Z" fill="#2A3D6B"/>
<path d="M65.932 38.7362L64.7891 40.1406L66.1934 41.2835L67.3364 39.8792L65.932 38.7362Z" fill="#2A3D6B"/>
<path d="M93.9634 61.5644L92.8203 62.9688L94.2247 64.1118L95.3678 62.7075L93.9634 61.5644Z" fill="#2A3D6B"/>
<path d="M67.3925 65.56L68.7969 66.7031L69.94 65.2987L68.5356 64.1556L67.3925 65.56Z" fill="#2A3D6B"/>
<path d="M90.1972 37.529L91.6016 38.6719L92.7445 37.2675L91.3401 36.1246L90.1972 37.529Z" fill="#2A3D6B"/>
<path d="M87.8879 26.5428L80.406 25.3436C79.6977 25.2301 79.2156 24.5638 79.3291 23.8556L79.6728 21.7107C79.7863 21.0024 80.4525 20.5203 81.1608 20.6337L88.6428 21.8329C89.351 21.9464 89.8332 22.6127 89.7197 23.3209L89.3759 25.4658C89.2624 26.1741 88.5962 26.6562 87.8879 26.5428Z" fill="#2B478B"/>
<path d="M68.9795 29.8661L65.5369 32.0052C65.245 32.1866 64.8613 32.097 64.68 31.8051L63.6094 30.0821C63.4281 29.7902 63.5176 29.4065 63.8096 29.2251L67.2522 27.086C67.5441 26.9046 67.9278 26.9942 68.1091 27.2861L69.1797 29.0091C69.3611 29.301 69.2715 29.6847 68.9795 29.8661Z" fill="#2B478B"/>
<path d="M61.1915 30.3023C61.7872 30.1593 62.6063 29.4719 62.7257 30.161C62.8452 30.8501 63.1514 33.7558 62.9639 35.4174C62.6848 35.8362 59.6094 32.9541 59.6094 32.9541L61.1915 30.3023Z" fill="#FFB0A1"/>
<path d="M106.33 50.0869L105.587 50.369L100.594 52.2664C100.477 52.3109 100.359 52.3489 100.24 52.3786C98.5869 52.8083 96.8279 51.9269 96.208 50.2955L96.1348 50.1038C95.4704 48.3553 96.3572 46.3811 98.1056 45.7167L102.76 43.9481L103.099 43.8193L103.841 43.5371C105.59 42.8728 107.563 43.7596 108.227 45.5081L108.301 45.6998C108.965 47.4482 108.078 49.4225 106.33 50.0869Z" fill="#FFB0A1"/>
<path d="M102.288 50.2136C101.455 50.5293 99.9462 51.0897 99.1395 51.2056C98.9113 51.2385 98.4906 51.1143 98.0981 50.6845C97.8626 50.4271 97.6372 50.0602 97.4702 49.5519C97.3917 49.3127 97.3269 49.0746 97.2995 48.829C97.2684 48.5415 97.2767 48.254 97.3269 47.9692C97.3725 47.7128 97.5477 47.4791 97.8033 47.356C97.8042 47.3551 97.8061 47.3551 97.807 47.3541C98.6648 46.9443 99.8212 46.4451 100.835 46.1667C101.536 45.9732 102.245 46.2826 102.467 46.896L102.572 47.1825L103.108 48.6501C103.329 49.2598 102.969 49.9571 102.288 50.2136Z" fill="#FFBAAD"/>
<path d="M102.293 50.2048C101.459 50.5206 99.9508 51.081 99.144 51.1969C98.9159 51.2298 98.4951 51.1056 98.1026 50.6758C98.0606 50.5781 98.0223 50.475 97.9858 50.3645C97.9073 50.1254 97.8425 49.8873 97.8151 49.6417C97.7841 49.3542 97.7923 49.0667 97.8425 48.7819C97.8881 48.5255 98.0634 48.2918 98.3189 48.1686C98.3199 48.1677 98.3216 48.1677 98.3226 48.1668C99.1805 47.757 100.337 47.2577 101.351 46.9794C101.8 46.8553 102.252 46.9374 102.576 47.1738L103.112 48.6413C103.334 49.2511 102.973 49.9484 102.293 50.2048Z" fill="#FFC0B4"/>
<path d="M105.51 56.4628L101.66 57.5111C100.49 57.8296 99.2722 57.133 98.9536 55.963L98.835 55.5272C98.5165 54.3572 99.213 53.1393 100.383 52.8207L104.233 51.7725C105.403 51.454 106.621 52.1506 106.94 53.3206L107.058 53.7564C107.377 54.9264 106.68 56.1443 105.51 56.4628Z" fill="#FFB0A1"/>
<path d="M103.412 56.2618C102.704 56.4507 101.426 56.7838 100.756 56.8203C100.512 56.834 100.024 56.6277 99.7052 55.9871C99.6267 55.8319 99.5601 55.6521 99.5081 55.4441C99.4615 55.2552 99.4259 55.068 99.4223 54.8782C99.4178 54.6546 99.4461 54.4346 99.5081 54.2193C99.5637 54.0249 99.7253 53.8569 99.9435 53.7794C99.9452 53.7784 99.9461 53.7784 99.9471 53.7775C100.681 53.5183 101.667 53.2089 102.519 53.0602C103.108 52.957 103.666 53.24 103.804 53.7255L103.903 54.0723L104.2 55.1136C104.337 55.5955 103.989 56.1084 103.412 56.2618Z" fill="#FFBAAD"/>
<path d="M103.409 56.2693C102.702 56.4582 101.423 56.7913 100.753 56.8278C100.51 56.8415 100.022 56.6352 99.703 55.9946C99.6601 55.8184 99.629 55.6423 99.6255 55.4634C99.6209 55.2407 99.6491 55.0198 99.7112 54.8044C99.7668 54.6109 99.9284 54.4421 100.147 54.3645C100.148 54.3636 100.149 54.3636 100.15 54.3627C100.884 54.1035 101.87 53.7941 102.722 53.6463C103.209 53.5605 103.677 53.7402 103.901 54.0797L104.198 55.121C104.335 55.603 103.987 56.1159 103.409 56.2693Z" fill="#FFC0B4"/>
<path d="M105.115 43.0983C105.088 43.1083 105.061 43.1174 105.032 43.1265L99.9845 44.4225C97.7649 44.9929 95.4696 43.7919 94.8836 41.7539L94.5834 40.7098C94.0203 38.753 95.2304 36.7069 97.2931 36.0433L98.9596 35.6153L102.341 34.7474C104.561 34.177 106.856 35.3781 107.442 37.416L107.742 38.4601C108.297 40.3904 107.127 42.4065 105.115 43.0983Z" fill="#FFB0A1"/>
<path d="M102.783 41.6801L100.33 42.7853C100.327 42.7862 100.322 42.7871 100.315 42.7889C100.216 42.8154 100.117 42.8354 100.018 42.85C99.977 42.8564 99.9351 42.861 99.894 42.8655C99.8766 42.8674 99.8593 42.8674 99.842 42.8665C99.5718 42.8573 99.3866 42.5708 99.5034 42.3152C99.7352 41.8105 99.7982 41.2264 99.6421 40.6523L99.5837 40.4388C99.5837 40.4369 99.5828 40.4342 99.5819 40.4323L99.3921 39.736C99.2415 39.1811 98.9212 38.7165 98.5032 38.3807C98.453 38.3396 98.4009 38.3012 98.3479 38.2648C97.8633 37.9289 97.9866 37.1687 98.5543 37.0107C98.5597 37.0089 98.5643 37.008 98.5697 37.0062L101.261 36.5992C101.926 36.4185 102.567 36.9305 102.749 37.5958L102.965 38.3889L103.425 40.0801C103.606 40.7464 103.448 41.4994 102.783 41.6801Z" fill="#FFBAAD"/>
<path d="M102.787 41.7022L100.335 42.8074C100.331 42.8083 100.327 42.8092 100.319 42.811C100.262 42.822 100.082 42.8521 99.8466 42.8886C99.5765 42.8794 99.3912 42.5929 99.508 42.3373C99.7398 41.8326 99.8028 41.2485 99.6467 40.6744L99.5884 40.4609C99.5884 40.4591 99.5874 40.4564 99.5865 40.4545L99.3968 39.7581C99.2461 39.2032 98.9258 38.7387 98.5078 38.4028C98.5945 38.2759 98.7241 38.1756 98.8938 38.1281C98.8983 38.1262 98.9039 38.1253 98.9093 38.1235L101.601 37.7164C102.161 37.564 102.703 37.9035 102.97 38.411L103.43 40.1022C103.61 40.7686 103.453 41.5215 102.787 41.7022Z" fill="#FFC0B4"/>
<path d="M32.3951 105.082C32.3951 105.082 30.5173 99.9488 27.3993 97.7444C27.3993 97.7444 25.9488 108.19 24.0218 107.8C22.0948 107.41 26.4773 96.2767 26.4773 96.2767C26.4773 96.2767 18.8206 88.8184 15.1214 87.9611C15.1214 87.9611 17.5633 99.4574 15.7911 98.6052C14.0195 97.753 10.9229 85.9086 10.9229 85.9086C10.9229 85.9086 4.46169 82.3185 0.5 84.483V96.5349C3.53238 97.7352 8.22155 99.4924 7.7672 100.283C7.31291 101.075 3.62013 101.194 0.5 100.345V108.739C1.20889 109.644 2.08178 110.318 3.15584 110.568C8.16584 111.736 10.6776 109.235 13.7607 110.014C16.8437 110.792 18.7678 112.338 16.9934 112.643C15.2191 112.947 10.316 110.695 7.19591 111.944C4.07507 113.192 1.68306 113.804 5.88083 116.242C10.0778 118.681 18.3627 120.82 21.1456 117.896C21.1456 117.896 21.1456 117.896 21.1463 117.895C21.2675 117.767 21.3838 117.645 21.4943 117.529C21.4949 117.529 21.4955 117.528 21.4962 117.527C21.3011 117.783 21.1458 117.896 21.1458 117.896C21.8148 118.661 22.2849 121.394 22.5542 123.46C22.5758 123.802 22.6306 124.284 22.7294 124.944C22.7619 125.251 22.786 125.5 22.8018 125.67C22.8746 127.005 22.651 128.521 22.2987 129.993H23.6358C24.0614 126.676 23.4091 124.197 23.4063 124.187L23.4065 124.186C22.4931 118.863 23.9285 114.972 23.9285 114.972V114.972C23.9514 114.967 34.226 113.02 32.3951 105.082Z" fill="#FCECDB"/>
<path d="M118.321 95.9004C116.558 89.392 105.576 91.4259 105.576 91.4259C105.576 91.4259 98.1181 102.816 95.9487 103.087C93.7792 103.358 100.423 92.1038 100.423 92.1038C96.2198 91.697 85.5082 96.8495 85.5082 96.8495C85.5082 96.8495 86.1862 110.137 84.0167 109.866C81.8472 109.595 84.0167 98.0698 84.0167 98.0698C79.949 99.2901 76.1525 104.036 76.1525 104.036C71.4067 111.764 81.5761 117.459 81.5761 117.459C81.5761 117.459 81.7117 122.069 78.8643 127.357L78.8641 127.358C78.8641 127.358 78.2215 128.334 77.5682 129.993H78.6773C78.7679 129.696 78.8676 129.409 78.9782 129.133C78.9782 129.131 78.9789 129.129 78.9804 129.128C78.9818 129.124 78.9837 129.12 78.9852 129.116C79.0611 128.944 79.1703 128.701 79.3064 128.403C79.3066 128.403 79.3067 128.403 79.3069 128.402C79.3069 128.402 79.3076 128.402 79.3076 128.401C79.6464 127.738 79.8753 127.248 80.0201 126.894C80.0207 126.893 80.021 126.892 80.0213 126.891C81.0364 124.809 82.4989 122.096 83.4743 121.527C83.4743 121.527 83.3516 121.354 83.237 121.018C83.3127 121.181 83.3916 121.35 83.4743 121.527C85.3726 125.595 94.864 126.273 100.152 125.188C105.44 124.103 103.135 122.612 100.288 120.191C97.4402 117.77 91.4742 118.408 89.7115 117.459C87.9489 116.51 90.5251 115.561 94.0504 115.832C97.5757 116.103 99.3384 119.629 105.033 120.171C110.728 120.713 115.067 110.002 115.067 110.002C111.135 111.222 104.084 109.053 103.813 107.697C103.542 106.341 113.982 106.476 115.609 106.07C117.236 105.663 120.084 102.409 118.321 95.9004Z" fill="#FCECDB"/>
<path d="M47.1542 85.3525C44.5769 84.4054 45.1211 88.3509 43.4951 93.0135C41.8691 97.6761 36.051 101.721 38.6239 104.438C44.1869 108.78 57.1219 109.441 66.1569 114.034C69.063 113.005 69.109 106.505 69.063 101.825C69.0169 97.1454 72.9595 95.0992 70.7282 93.5873C60.5425 93.5873 49.0815 87.7295 47.1542 85.3525Z" fill="#1362DF"/>
<path d="M62.6046 74.5429C63.0302 62.399 60.3693 57.8612 60.0046 51.9074C59.9002 50.2028 63.1763 40.5541 63.0398 34.2535C62.0139 31.0969 55.1499 43.3853 54.0023 48.4263C52.8546 53.4674 49.7093 66.8672 54.8316 71.9342C59.9539 77.0011 62.6046 74.5429 62.6046 74.5429Z" fill="#FFB0A1"/>
</g>
<defs>
<clipPath id="clip0_17789_14064">
<rect width="130" height="130" fill="white" transform="translate(0.5)"/>
</clipPath>
</defs>
</svg>
