<svg width="24" height="24" viewBox="0 0 24 24" fill="none" xmlns="http://www.w3.org/2000/svg">
<path d="M20.0422 6.82165L14.2822 2.79165C12.7122 1.69165 10.3022 1.75165 8.79219 2.92165L3.78219 6.83165C2.78219 7.61165 1.99219 9.21165 1.99219 10.4716V17.3716C1.99219 19.9216 4.06219 22.0016 6.61219 22.0016H17.3922C19.9422 22.0016 22.0122 19.9316 22.0122 17.3816V10.6016C22.0122 9.25165 21.1422 7.59165 20.0422 6.82165ZM12.7522 18.0016C12.7522 18.4116 12.4122 18.7516 12.0022 18.7516C11.5922 18.7516 11.2522 18.4116 11.2522 18.0016V15.0016C11.2522 14.5916 11.5922 14.2516 12.0022 14.2516C12.4122 14.2516 12.7522 14.5916 12.7522 15.0016V18.0016Z" fill="#1362DF"/>
</svg>
