<svg width="20" height="20" viewBox="0 0 20 20" fill="none" xmlns="http://www.w3.org/2000/svg">
<mask id="path-1-inside-1_39_3505" fill="white">
<path d="M15 8.95841C14.6583 8.95841 14.375 8.67508 14.375 8.33341V6.66675C14.375 4.04175 13.6333 2.29175 10 2.29175C6.36667 2.29175 5.625 4.04175 5.625 6.66675V8.33341C5.625 8.67508 5.34167 8.95841 5 8.95841C4.65833 8.95841 4.375 8.67508 4.375 8.33341V6.66675C4.375 4.25008 4.95833 1.04175 10 1.04175C15.0417 1.04175 15.625 4.25008 15.625 6.66675V8.33341C15.625 8.67508 15.3417 8.95841 15 8.95841Z"/>
</mask>
<path d="M15 8.95841C14.6583 8.95841 14.375 8.67508 14.375 8.33341V6.66675C14.375 4.04175 13.6333 2.29175 10 2.29175C6.36667 2.29175 5.625 4.04175 5.625 6.66675V8.33341C5.625 8.67508 5.34167 8.95841 5 8.95841C4.65833 8.95841 4.375 8.67508 4.375 8.33341V6.66675C4.375 4.25008 4.95833 1.04175 10 1.04175C15.0417 1.04175 15.625 4.25008 15.625 6.66675V8.33341C15.625 8.67508 15.3417 8.95841 15 8.95841Z" fill="#C1C2C3"/>
<path d="M15 7.70841C15.3487 7.70841 15.625 7.98473 15.625 8.33341H13.125C13.125 9.36544 13.968 10.2084 15 10.2084V7.70841ZM15.625 8.33341V6.66675H13.125V8.33341H15.625ZM15.625 6.66675C15.625 5.29792 15.4467 3.81563 14.5093 2.69349C13.5291 1.52009 11.9886 1.04175 10 1.04175V3.54175C11.6447 3.54175 12.2917 3.9384 12.5907 4.29626C12.9324 4.70536 13.125 5.41057 13.125 6.66675H15.625ZM10 1.04175C8.01138 1.04175 6.47091 1.52009 5.49069 2.69349C4.55328 3.81563 4.375 5.29792 4.375 6.66675H6.875C6.875 5.41057 7.06756 4.70536 7.40931 4.29626C7.70826 3.9384 8.35528 3.54175 10 3.54175V1.04175ZM4.375 6.66675V8.33341H6.875V6.66675H4.375ZM4.375 8.33341C4.375 7.98473 4.65131 7.70841 5 7.70841V10.2084C6.03202 10.2084 6.875 9.36544 6.875 8.33341H4.375ZM5 7.70841C5.34869 7.70841 5.625 7.98473 5.625 8.33341H3.125C3.125 9.36544 3.96798 10.2084 5 10.2084V7.70841ZM5.625 8.33341V6.66675H3.125V8.33341H5.625ZM5.625 6.66675C5.625 5.51146 5.77654 4.43937 6.31955 3.66677C6.79879 2.9849 7.7633 2.29175 10 2.29175V-0.208252C7.19503 -0.208252 5.34704 0.702765 4.2742 2.22923C3.26512 3.66496 3.125 5.40537 3.125 6.66675H5.625ZM10 2.29175C12.2367 2.29175 13.2012 2.9849 13.6804 3.66677C14.2235 4.43937 14.375 5.51146 14.375 6.66675H16.875C16.875 5.40537 16.7349 3.66496 15.7258 2.22923C14.653 0.702765 12.805 -0.208252 10 -0.208252V2.29175ZM14.375 6.66675V8.33341H16.875V6.66675H14.375ZM14.375 8.33341C14.375 7.98473 14.6513 7.70841 15 7.70841V10.2084C16.032 10.2084 16.875 9.36544 16.875 8.33341H14.375Z" fill="#C1C2C3" mask="url(#path-1-inside-1_39_3505)"/>
<path d="M9.99984 15.4167C8.85335 15.4167 7.9165 14.4798 7.9165 13.3333M9.99984 15.4167C11.1463 15.4167 12.0832 14.4798 12.0832 13.3333M9.99984 15.4167C11.145 15.4167 12.0832 14.4785 12.0832 13.3333M9.99984 15.4167C8.85466 15.4167 7.9165 14.4785 7.9165 13.3333M7.9165 13.3333C7.9165 12.1868 8.85335 11.25 9.99984 11.25M7.9165 13.3333C7.9165 12.1882 8.85466 11.25 9.99984 11.25M12.0832 13.3333C12.0832 12.1868 11.1463 11.25 9.99984 11.25M12.0832 13.3333C12.0832 12.1882 11.145 11.25 9.99984 11.25" fill="#C1C2C3" stroke="#C1C2C3" stroke-width="1.25"/>
<path d="M14.1665 18.9583H5.83317C2.15817 18.9583 1.0415 17.8416 1.0415 14.1666V12.4999C1.0415 8.82492 2.15817 7.70825 5.83317 7.70825H14.1665C17.8415 7.70825 18.9582 8.82492 18.9582 12.4999V14.1666C18.9582 17.8416 17.8415 18.9583 14.1665 18.9583ZM5.83317 8.95825C2.84984 8.95825 2.2915 9.52492 2.2915 12.4999V14.1666C2.2915 17.1416 2.84984 17.7083 5.83317 17.7083H14.1665C17.1498 17.7083 17.7082 17.1416 17.7082 14.1666V12.4999C17.7082 9.52492 17.1498 8.95825 14.1665 8.95825H5.83317Z" fill="#C1C2C3"/>
</svg>
