<svg width="281" height="280" viewBox="0 0 281 280" fill="none" xmlns="http://www.w3.org/2000/svg">
<circle cx="139.25" cy="154.246" r="87.75" fill="#E7EFFC"/>
<circle cx="57" cy="94.9961" r="5.5" fill="#E7EFFC"/>
<circle cx="199.25" cy="73.2461" r="10.25" fill="#E7EFFC"/>
<circle cx="58.75" cy="210.746" r="9.75" fill="#E7EFFC"/>
<circle cx="233.25" cy="201.246" r="9.75" fill="#E7EFFC"/>
<circle cx="214.25" cy="212.246" r="4.75" fill="#E7EFFC"/>
<path d="M153.895 80.2646C153.606 80.203 153.606 79.7892 153.895 79.7276L158.278 78.7956C158.384 78.7731 158.467 78.6908 158.489 78.5852L159.433 74.2333C159.496 73.9448 159.907 73.9448 159.97 74.2333L160.913 78.5852C160.936 78.6908 161.019 78.7731 161.125 78.7956L165.507 79.7276C165.797 79.7892 165.797 80.203 165.507 80.2646L161.125 81.1966C161.019 81.2191 160.936 81.3014 160.913 81.407L159.97 85.7589C159.907 86.0474 159.496 86.0474 159.433 85.7589L158.489 81.407C158.467 81.3014 158.384 81.2191 158.278 81.1966L153.895 80.2646Z" fill="#1362DF"/>
<path d="M47.1115 157.807C47.2233 157.278 47.9779 157.278 48.0898 157.807L49.7612 165.703C49.8019 165.896 49.9517 166.046 50.1439 166.088L57.9587 167.791C58.4834 167.905 58.4834 168.654 57.9587 168.768L50.1439 170.47C49.9517 170.512 49.8019 170.663 49.7612 170.855L48.0898 178.752C47.9779 179.28 47.2233 179.28 47.1115 178.752L45.44 170.855C45.3993 170.663 45.2495 170.512 45.0573 170.47L37.2426 168.768C36.7178 168.654 36.7178 167.905 37.2426 167.791L45.0573 166.088C45.2495 166.046 45.3993 165.896 45.44 165.703L47.1115 157.807Z" fill="#1362DF"/>
<path d="M84.7283 53.7799C84.7904 53.4862 85.2096 53.4862 85.2717 53.7799L86.2003 58.1665C86.2229 58.2734 86.3061 58.3571 86.4129 58.3804L90.7542 59.3261C91.0457 59.3897 91.0457 59.8054 90.7542 59.8689L86.4129 60.8147C86.3061 60.838 86.2229 60.9217 86.2003 61.0286L85.2717 65.4152C85.2096 65.7088 84.7904 65.7088 84.7283 65.4152L83.7997 61.0286C83.7771 60.9217 83.6939 60.838 83.5871 60.8147L79.2458 59.8689C78.9543 59.8054 78.9543 59.3897 79.2458 59.3261L83.5871 58.3804C83.6939 58.3571 83.7771 58.2734 83.7997 58.1665L84.7283 53.7799Z" fill="#1362DF"/>
<path d="M217.672 97.3071C217.784 96.7785 218.539 96.7785 218.651 97.3071L219.626 101.914C219.666 102.106 219.816 102.257 220.008 102.299L224.58 103.295C225.105 103.409 225.105 104.157 224.58 104.272L220.008 105.268C219.816 105.31 219.666 105.46 219.626 105.653L218.651 110.259C218.539 110.788 217.784 110.788 217.672 110.259L216.697 105.653C216.657 105.46 216.507 105.31 216.315 105.268L211.743 104.272C211.218 104.157 211.218 103.409 211.743 103.295L216.315 102.299C216.507 102.257 216.657 102.106 216.697 101.914L217.672 97.3071Z" fill="#1362DF"/>
<path d="M237.833 171.164L239.365 178.398L246.495 179.951L239.365 181.504L237.833 188.738L236.302 181.504L229.172 179.951L236.302 178.398L237.833 171.164Z" fill="white"/>
<path d="M129.838 68.4574C131.432 74.3401 127.713 80.557 121.397 82.2689C115.081 83.9809 108.731 80.4932 107.136 74.6105C105.542 68.7277 109.261 62.5109 115.578 60.7989C121.894 59.087 128.244 62.5747 129.838 68.4574Z" fill="#1362DF" stroke="#1362DF" stroke-width="2"/>
<path d="M114.641 71.5873L118.38 70.075L125.352 68.1852C130.655 66.7479 136.221 66.5684 141.605 67.6609C143.606 68.0668 145.567 68.6454 147.467 69.3903L154.529 72.1581L158.742 74.4304C161.937 76.1532 164.914 78.2514 167.611 80.6804C170.714 83.4748 173.418 86.6822 175.647 90.2128L179.678 96.5971L187.6 113.642L193.066 125.687L201.708 139.977L208.402 151.14L213.52 158.484C215.084 160.73 217.426 162.316 220.091 162.937C222.101 163.405 223.939 164.425 225.4 165.882L227.928 168.404C228.272 168.748 228.583 169.123 228.857 169.526C230.477 171.905 230.641 174.987 229.284 177.524L229.112 177.846C228.21 179.531 226.757 180.855 224.996 181.596L213.065 186.616L194.98 192.98L163.119 202.403L144.952 207.327L119.455 213.45L96.702 218.155L84.0671 219.858C81.8873 220.152 79.6981 219.388 78.1741 217.802C76.793 216.365 76.1014 214.401 76.2776 212.415L76.4837 210.093C76.695 207.711 77.874 205.521 79.7453 204.034C81.5861 202.57 82.7583 200.426 82.9962 198.086L84.149 186.751L84.149 171.84L82.2591 151.333L81.2548 136.8L80.7305 130.588C80.4169 126.873 80.4064 123.138 80.6991 119.421L80.8359 117.684C81.1661 113.49 81.9866 109.35 83.2806 105.347C84.44 101.761 85.9728 98.3061 87.8536 95.0398L88.3976 94.0952C90.2178 90.9343 92.3726 87.9783 94.8249 85.2781C97.3491 82.4987 100.173 80.0073 103.246 77.8493L103.63 77.5793C107.061 75.1697 110.755 73.1594 114.641 71.5873Z" fill="#E7EFFC"/>
<path d="M114.633 71.5717L118.372 70.0594L125.345 68.1696C130.648 66.7323 136.213 66.5528 141.597 67.6453C143.598 68.0511 145.559 68.6298 147.46 69.3747L154.521 72.1425L158.735 74.4148C161.929 76.1376 164.906 78.2358 167.603 80.6648C170.706 83.4592 173.41 86.6666 175.639 90.1971L179.671 96.5815L187.592 113.626L193.058 125.671L201.7 139.962L208.394 151.125L212.942 157.348C214.949 160.093 217.897 162.002 221.223 162.709L221.526 162.774C223.653 163.226 225.626 164.219 227.257 165.658L228.21 166.499C229.502 167.639 230.418 169.143 230.839 170.813C231.259 172.485 231.164 174.245 230.564 175.862L230.522 175.975C230.303 176.564 230.023 177.128 229.686 177.659L229.513 177.93C228.396 179.687 226.839 181.121 224.997 182.092L221.875 183.736L215.943 186.861L199.308 194.361L188.058 198.861L178.308 202.611L170.058 205.361L161.558 208.361L154.308 210.361L149.308 211.611L135.808 214.361L123.058 216.861L99.0579 220.31L91.7214 221.122C90.2837 221.281 88.8327 221.276 87.3961 221.108L83.6964 220.674C81.6888 220.439 79.8253 219.513 78.4248 218.056C76.8641 216.432 75.9925 214.267 75.9925 212.014L75.9925 211.225C75.9925 210.65 76.0389 210.076 76.1314 209.508L76.1839 209.186C76.5922 206.679 77.6422 204.32 79.2317 202.339L80.298 201.01C83.5599 196.944 85.2094 191.819 84.9313 186.615L84.1412 171.825L82.2513 151.317L81.247 136.784L80.7227 130.572C80.4091 126.857 80.3986 123.123 80.6912 119.406L80.8281 117.668C81.1583 113.475 81.9788 109.334 83.2728 105.332C84.4322 101.745 85.965 98.2905 87.8458 95.0242L88.3898 94.0796C90.21 90.9187 92.3648 87.9626 94.8171 85.2625C97.3413 82.4831 100.165 79.9917 103.238 77.8337L103.622 77.5636C107.053 75.154 110.747 73.1437 114.633 71.5717Z" fill="#E7EFFC" stroke="#1362DF" stroke-width="2"/>
<ellipse cx="152.463" cy="193.834" rx="68.2818" ry="11.94" transform="rotate(-15.4595 152.463 193.834)" fill="#1362DF"/>
<path d="M141.299 197.543L140.556 196.749C139.765 195.903 139.089 194.956 138.546 193.932C138.176 193.233 137.869 192.501 137.631 191.746L136.343 187.669L139.363 186.597L142.392 185.472L149.841 183.464L158.23 181.232L163.165 180.159L163.378 180.888C164.093 183.333 164.424 185.873 164.361 188.419L164.187 190.242C163.981 192.398 163.249 194.471 162.054 196.277L161.991 196.373C161.503 197.111 160.936 197.793 160.301 198.408C158.523 200.127 156.264 201.263 153.824 201.665L152.933 201.812C152.174 201.937 151.404 201.991 150.635 201.972C148.112 201.909 145.671 201.068 143.644 199.565L143.187 199.226C142.508 198.723 141.876 198.159 141.299 197.543Z" fill="#E7EFFC" stroke="#1362DF" stroke-width="2"/>
</svg>
