<svg width="24" height="25" viewBox="0 0 24 25" fill="none" xmlns="http://www.w3.org/2000/svg">
<path d="M20.2184 14.5608L19.0974 12.6808C18.8494 12.2708 18.6311 11.4808 18.6311 11.0008V9.13078C18.6311 5.50078 15.7045 2.55078 12.1132 2.55078C8.51205 2.56078 5.58546 5.50078 5.58546 9.13078V10.9908C5.58546 11.4708 5.36721 12.2608 5.12912 12.6708L4.00808 14.5508C3.5815 15.2808 3.48229 16.1108 3.75015 16.8308C4.018 17.5608 4.62316 18.1408 5.41681 18.4008C6.48824 18.7608 7.56959 19.0208 8.67078 19.2108C8.77991 19.2308 8.88904 19.2408 8.99816 19.2608C9.13705 19.2808 9.28586 19.3008 9.43467 19.3208C9.69261 19.3608 9.95054 19.3908 10.2184 19.4108C10.8434 19.4708 11.4783 19.5008 12.1132 19.5008C12.7382 19.5008 13.3632 19.4708 13.9783 19.4108C14.2065 19.3908 14.4347 19.3708 14.6529 19.3408C14.8315 19.3208 15.0101 19.3008 15.1886 19.2708C15.2978 19.2608 15.4069 19.2408 15.516 19.2208C16.6271 19.0408 17.7283 18.7608 18.7998 18.4008C19.5636 18.1408 20.149 17.5608 20.4267 16.8208C20.7045 16.0708 20.6251 15.2508 20.2184 14.5608ZM12.8374 10.5008C12.8374 10.9208 12.5001 11.2608 12.0835 11.2608C11.6668 11.2608 11.3295 10.9208 11.3295 10.5008V7.40078C11.3295 6.98078 11.6668 6.64078 12.0835 6.64078C12.5001 6.64078 12.8374 6.98078 12.8374 7.40078V10.5008Z" fill="white"/>
<path d="M14.902 20.51C14.4854 21.67 13.3842 22.5 12.0945 22.5C11.3108 22.5 10.537 22.18 9.99132 21.61C9.67386 21.31 9.43576 20.91 9.29688 20.5C9.42584 20.52 9.55481 20.53 9.6937 20.55C9.92187 20.58 10.16 20.61 10.3981 20.63C10.9635 20.68 11.5389 20.71 12.1143 20.71C12.6798 20.71 13.2453 20.68 13.8008 20.63C14.0092 20.61 14.2175 20.6 14.4159 20.57C14.5747 20.55 14.7334 20.53 14.902 20.51Z" fill="white"/>
</svg>
