<svg id="saudi_arabia" xmlns="http://www.w3.org/2000/svg" width="25" height="25" viewBox="0 0 25 25">
  <g id="Shape_01" data-name="Shape 01" transform="translate(0 0)">
    <rect id="Rectangle_6340" data-name="Rectangle 6340" width="25" height="25" rx="12.5" fill="#006c35"/>
  </g>
  <path id="Symbol" d="M79.463,125.42a.2.2,0,0,0-.093.036.686.686,0,0,0-.289.485c-.005.127-.029.127.055.207.061.087.121.079.242.015a.256.256,0,0,0,.117-.17c.029-.145-.152.068-.175-.093-.04-.149.075-.211.185-.355,0-.068,0-.123-.04-.125Zm1.768.01c-.034,0-.075.048-.133.153a.646.646,0,0,0-.091.617.928.928,0,0,1-.085,1.222.3.3,0,0,1-.391.055.419.419,0,0,1-.234-.327,4.515,4.515,0,0,0-.035-1.061.193.193,0,0,0-.321-.065,2.424,2.424,0,0,0-.582,1.2c-.09.29-.186.206-.253.089-.164-.154-.176-1.354-.373-1.157-.317.906.182,1.9.527,1.8.249.1.408-.371.51-.89.07-.146.123-.164.159-.088-.009.691.05.845.228,1.055a.573.573,0,0,0,.749.013l.308-.308a.185.185,0,0,1,.256-.013c.094.086.082.233.284.336a.623.623,0,0,0,.617-.129c.113-.194.14-.261.193-.334.081-.109.218-.06.218-.026-.013.06-.094.119-.039.228.1.072.118.026.175.01.2-.1.352-.532.352-.532.009-.164-.083-.15-.143-.117-.077.047-.082.063-.159.109-.1.015-.289.08-.382-.067a5.814,5.814,0,0,1-.17-.6c0-.013-.129-.278-.01-.3.06.011.189.044.21-.063.063-.105-.136-.4-.273-.553a.292.292,0,0,0-.436-.013c-.109.1-.093.214-.115.321a.5.5,0,0,0,.1.437,1.337,1.337,0,0,1,.243.885.357.357,0,0,1-.319.164c-.085-.019-.224-.055-.3-.6-.055-.411.014-.988-.16-1.255-.039-.1-.073-.2-.13-.193Zm-.56.044c-.055,0-.109.066-.159.185a3.008,3.008,0,0,0-.083.563c-.033.141.147.2.229.02a1.731,1.731,0,0,0,.131-.613C80.771,125.519,80.724,125.469,80.671,125.473Zm2.067.037c-.055,0-.1.037-.113.117a1.226,1.226,0,0,0,.021.447,1.611,1.611,0,0,0,.252.382c.358.481.7.965,1.037,1.465.055.372.091.735.116,1.1a22.2,22.2,0,0,1,.021,2.619c.149.006.387-.24.471-.6a17.414,17.414,0,0,0-.025-1.809c0-.122-.011-.268-.02-.42.387.632.764,1.3,1.131,2.038.134-.064.1-.818.026-.928-.3-.635-.7-1.261-.833-1.5-.047-.087-.207-.327-.4-.61-.034-.4-.073-.738-.1-.84-.061-.423.174.047.141-.2a2.7,2.7,0,0,0-.584-1.095c-.088-.126-.087-.152-.224.031a.806.806,0,0,0-.055.485,2.257,2.257,0,0,0-.145-.191c-.237-.2-.252-.215-.45-.382a.487.487,0,0,0-.273-.1Zm6.125.063c-.026,0-.055.009-.087.055a.368.368,0,0,0-.127.279c.015.223.055.451.07.673,0,.03.011.059.016.089a.751.751,0,0,0-.055-.067c-.434-.456.2-.075-.082-.427a3.389,3.389,0,0,0-.513-.5c-.1-.067-.164-.193-.2.022a4.328,4.328,0,0,0-.015.568.768.768,0,0,0,.171.354c.289.356.585.734.882,1.129.063.806.08,1.544.143,2.351-.009.345-.115.8-.218.847,0,0-.153.088-.256-.01a3.074,3.074,0,0,1-.373-.5.228.228,0,0,0-.363,0,4.983,4.983,0,0,0-.639,1.206c-.055.083-.2.154-.365-.007a1.7,1.7,0,0,1-.225-1.175,1.3,1.3,0,0,0-.123,1.264.99.99,0,0,0,.46.524.323.323,0,0,0,.48-.052c.218-.227.222-.807.327-.922a.192.192,0,0,1,.341-.081.839.839,0,0,0,.312.27.522.522,0,0,0,.687.049.791.791,0,0,0,.367-.448,15.448,15.448,0,0,0,.029-2.524c.154.218.306.439.458.663a16.53,16.53,0,0,1,.074,2.067c-.015.133.463-.4.459-.646v-.6c.232.37.456.746.668,1.128.131-.07.086-.814,0-.917-.222-.373-.507-.776-.727-1.087-.044-.393-.1-.857-.13-1-.042-.221-.084-.554-.148-.818a2.952,2.952,0,0,1-.055-.463c.026-.073.124,0,.172-.082a2.938,2.938,0,0,0-.414-1.152c-.059-.109-.164-.07-.3.1-.122.114-.077.375-.031.623.121.632.229,1.276.315,1.918-.158-.235-.351-.52-.542-.795,0-.026-.025-.123-.025-.125s-.026-.517-.049-.637c0-.049-.015-.063.036-.055a.293.293,0,0,0,.1.063c.055.01.1-.083.07-.169l-.51-.941a.141.141,0,0,0-.07-.046Zm-15.81.016c-.094,0-.2.055-.157.169-.024.062.184.273.218.385.033.082-.032.344.036.368s.148-.182.182-.375c.018-.106,0-.468-.242-.542a.221.221,0,0,0-.039,0Zm18.01,0c-.021,0-.047.037-.087.122a1.125,1.125,0,0,0-.091.69,37.882,37.882,0,0,1,.44,4.474,1.445,1.445,0,0,1-.088.368,2.933,2.933,0,0,1-.43.5c-.142.106-.445.207-.546.285-.314.182-.315.39-.062.4a1.56,1.56,0,0,0,1.309-.625,2.08,2.08,0,0,0,.212-.81,18.884,18.884,0,0,0-.238-3.96,1.954,1.954,0,0,1-.042-.371c.028-.073.171.007.222-.076.075-.076-.37-.646-.525-.889-.031-.061-.05-.109-.078-.109Zm-4.583.025c-.019,0-.045.031-.094.1a2.158,2.158,0,0,0-.118.973,21.19,21.19,0,0,1,.584,4.687c.148,0,.32-.34.394-.678a5.744,5.744,0,0,0-.039-1.022c-.012-.273-.31-2.493-.37-2.7-.073-.391.289-.051.25-.279-.125-.287-.436-.7-.536-.954-.037-.067-.041-.128-.071-.123Zm-11.164.031a.117.117,0,0,0-.089.091c-.008.034.015.091-.016.109s-.086.006-.083-.089a.164.164,0,0,0-.035-.081.07.07,0,0,0-.047-.011c-.029,0-.029.009-.045.034a.286.286,0,0,0-.016.08c0,.034-.017.045-.043.05s-.021,0-.044-.011-.029-.02-.029-.045a.273.273,0,0,0-.014-.085.092.092,0,0,0-.055-.029c-.117,0-.125.134-.119.185-.009.009-.013.247.146.313.214.1.614.058.6-.286,0-.031-.007-.133-.009-.16a.092.092,0,0,0-.1-.063Zm2.865,0a.48.48,0,0,0-.194.055.371.371,0,0,0-.063.491c.109.051.218.16.144.218-.307.327-1.1.873-1.146.975a.006.006,0,0,0,0,0v.008h0a2.2,2.2,0,0,0,.6,0,8.354,8.354,0,0,0,.986-.994c-.042-.037-.081-.063-.123-.1a.07.07,0,0,1,0-.117.32.32,0,0,0,.032-.491.522.522,0,0,0-.243-.049Zm7.489,0c-.021,0-.047.035-.088.12a1.346,1.346,0,0,0-.154.69c.208,1.444.273,2.708.409,4.151a.571.571,0,0,1-.1.424,4.073,4.073,0,0,1-1.378,1c-.058.065.144.343.406.343a1.54,1.54,0,0,0,1.178-.943,1.685,1.685,0,0,0,.267-.723,15.8,15.8,0,0,0-.294-3.667.6.6,0,0,1,.013-.256c.028-.034.124,0,.175-.082.075-.076-.2-.709-.355-.953-.031-.061-.051-.109-.078-.109Zm-11.6.044a.193.193,0,0,0-.145.122,4.2,4.2,0,0,0,.015.677,7.415,7.415,0,0,1,.19,1.087c.014.513-.3.222-.282-.032a2.274,2.274,0,0,0-.011-.982c-.051-.132-.109-.164-.232-.143-.1-.006-.35.269-.421.723a4.32,4.32,0,0,0-.084.441c-.034.235-.19.4-.3-.032-.094-.315-.152-1.091-.308-.911-.045.607-.1,1.674.417,1.784.623.059.279-1.054.5-1.255.043-.1.122-.1.128.024v.946a.454.454,0,0,0,.354.463c.164-.013.273-.008.336.151q.038.818.078,1.637s.378.109.4-.92a9.62,9.62,0,0,1-.039-1.228c0-.115.151-.121.253-.065.164.115.235.256.491.2.385-.106.618-.293.623-.589a2.551,2.551,0,0,0-.177-.843c.017-.051-.074-.184-.055-.236.069.109.174.1.2,0a.834.834,0,0,0-.333-.512c-.136-.121-.336-.095-.409.155a1.364,1.364,0,0,0,.315.91.867.867,0,0,1,.079.454.243.243,0,0,1-.316-.062s-.307-.23-.307-.28a1.1,1.1,0,0,0-.028-.726.976.976,0,0,0-.2-.4.139.139,0,0,0-.23,0,1.374,1.374,0,0,0,.026.965c.07.208.179.338.128.338-.043.117-.13.09-.193-.046a3.363,3.363,0,0,1-.109-.885c-.027-.233-.055-.732-.211-.858a.145.145,0,0,0-.136-.07Zm2.189,0c-.031,0-.065.021-.106.031a.312.312,0,0,0-.218.382c.157.952.259,1.678.415,2.63.024.109-.069.259-.19.243-.2-.139-.255-.419-.605-.407a.681.681,0,0,0-.578.546,1.357,1.357,0,0,0,0,.623.507.507,0,0,0,.578.143c.153-.063.28-.214.334-.178.033.058,0,.553-.724.936-.442.2-.795.247-.982-.115-.117-.226.009-1.086-.28-.887-.855,2.2,2,2.51,2.323.091.021-.068.083-.137.128-.12.02.008.038.035.044.085-.067,2.19-2.21,2.342-2.577,1.653a2.142,2.142,0,0,1-.127-.741.369.369,0,0,0-.087-.237c-.087-.065-.2.1-.229.4a2.675,2.675,0,0,0-.026.533c.114,1.732,2.875.988,3.324-.443a4.776,4.776,0,0,0,.07-1.364h.016c.273.3.659.038.743-.065a.123.123,0,0,1,.19-.017.443.443,0,0,0,.667-.19,6.028,6.028,0,0,0,.093-.821.825.825,0,0,0-.3.123.079.079,0,0,0-.021.039c-.012.079-.023.157-.035.236a.084.084,0,0,1-.007.017.076.076,0,0,1-.026.025c-.049.027-.135.011-.14-.06-.066-.3-.339-.34-.5.127-.109.09-.315.109-.336-.028.027-.313-.1-.355-.352-.207-.081-.621-.164-1.213-.243-1.833.105,0,.2.073.3-.047a3.571,3.571,0,0,0-.45-1.046h0a.109.109,0,0,0-.018-.017l-.008-.007-.008,0-.016-.007a.082.082,0,0,0-.034,0Zm8.532,0c-.109,0-.231.065-.183.2-.028.075.235.327.277.468.076.213-.058.417.021.446s.175-.218.212-.454a.7.7,0,0,0-.282-.655.21.21,0,0,0-.045,0Zm-6.647.238a.16.16,0,0,1,.139.105c.032.069.016.135-.035.148s-.118-.033-.149-.1-.015-.136.036-.149Zm12.33.32a.164.164,0,0,0-.164.218c-.025.081.213.356.252.506.035.109-.055.452.02.483s.16-.238.195-.491c.019-.139-.083-.626-.258-.709a.181.181,0,0,0-.042-.007Zm-6.82.169c.009.04.019.082.025.123.021.09.038.179.055.268-.079-.109-.144-.2-.172-.228-.178-.212,0-.139.091-.164Zm1.571.772a.121.121,0,0,0-.089.093c-.008.034.017.089-.014.109s-.087.008-.085-.087a.167.167,0,0,0-.035-.083.073.073,0,0,0-.047-.011c-.029,0-.029.009-.045.034a.283.283,0,0,0-.016.079c0,.034-.015.045-.04.05s-.023,0-.045-.011-.029-.021-.029-.046a.255.255,0,0,0-.015-.084.086.086,0,0,0-.055-.028c-.116,0-.123.133-.117.183-.009.01-.015.249.145.315.213.1.615.057.6-.287,0-.031-.008-.133-.011-.161a.092.092,0,0,0-.1-.063Zm-7.168.069a.173.173,0,0,0-.1.031.439.439,0,0,0-.144.582.284.284,0,0,0,.307.1c.185.023.3-.348.3-.348s.005-.1-.214.093c-.093.017-.105-.016-.128-.068a.458.458,0,0,1,.029-.29C78.12,127.313,78.1,127.276,78.055,127.272Zm10.137.047a.24.24,0,0,0-.245.206c0,.085.038.131.031.208-.011.044-.055.073-.164.021.017-.015-.07-.137-.07-.137-.083-.051-.2,0-.269.05a.411.411,0,0,0-.025.327c.121.223.535.6.732.607,0-.2.023-.468.034-.635,0-.063.019-.132.08-.148s.164.061.164,0a.856.856,0,0,0-.109-.405.206.206,0,0,0-.161-.088Zm-8.391.7-.008,0,0,0a1.015,1.015,0,0,1-.1.091c-.093.105-.109.179-.1.391,0,.022.176.5.321.833a2.578,2.578,0,0,1,.122,1.121,2.759,2.759,0,0,1-1.132,1.184.6.6,0,0,1-.474,0,.294.294,0,0,1-.125-.269,2.667,2.667,0,0,0,1.138-1.176,1.2,1.2,0,0,0,.031-.847.8.8,0,0,0-.191-.393c.063-.031.229.091.254.015a1.208,1.208,0,0,0-.327-.6.276.276,0,0,0-.4-.025c-.138.076-.167.351-.1.592.074.181.273.213.414.578,0,.023.049.273-.023.373a4.549,4.549,0,0,1-.853.8l0,0h-.006v-.115c0-.109.04-.358.037-.4h0c-.246.159-.327.645-.372.788a11.746,11.746,0,0,0-1.734,1.184c-.212.331,1.459-.382,1.654-.465l0,0c.037.04.04.182.151.31a.88.88,0,0,0,.9.29,2.88,2.88,0,0,0,1.3-1.084c.051-.074.13-.131.2-.075a2.042,2.042,0,0,0,1.848.97c.21-.255.109-.382.024-.433-.026-.017-.45-.183-.516-.347-.041-.153.059-.289.261-.391a8.993,8.993,0,0,0,1.7-.327,1.5,1.5,0,0,1,.188-.584.269.269,0,0,1,.1-.1v0a.046.046,0,0,0,0-.016l-.094-.055-1.855-.008a.182.182,0,0,1-.05-.026l0,0h0v-.016a.143.143,0,0,1,.058-.034c.443-.061,1.229-.189,1.282-.946a.622.622,0,1,0-1.223.026c-.017.1.034.3-.07.325-.681.062-1.426.491-1.45.795h-.028a.177.177,0,0,1-.092-.188,3.659,3.659,0,0,0-.468-1.587c-.1-.1-.138-.135-.164-.14h-.013Zm1.775.279a.116.116,0,0,0-.089.091c-.009.034.016.092-.015.109s-.087.008-.085-.087a.167.167,0,0,0-.035-.083.067.067,0,0,0-.045-.011c-.03,0-.031.009-.047.034a.313.313,0,0,0-.016.079c0,.034-.016.046-.041.051s-.021,0-.044-.011-.031-.021-.031-.045a.273.273,0,0,0-.013-.085.092.092,0,0,0-.055-.028c-.117,0-.124.133-.117.183-.009.01-.015.249.145.315.213.1.722.042.6-.287,0-.031-.008-.133-.011-.16a.092.092,0,0,0-.1-.063Zm7.163.294a.035.035,0,0,0-.018,0s-.989.7-1.014.728c-.1.087-.049.394,0,.358a3.934,3.934,0,0,0,1.048-.727c.043,0,.064-.348-.016-.362Zm-6.228.1a.254.254,0,0,1,.145.039c.074.043.119.109.113.154a.016.016,0,0,0,0,0l0,0v.011l-.01.011a.18.18,0,0,1-.195-.016.19.19,0,0,1-.113-.154v0a.055.055,0,0,1,.007-.016l0-.007.008-.008a.093.093,0,0,1,.047-.018Zm-8.666.181a1.648,1.648,0,0,0-1.283,1.04c.541-.26,1.073-.51,1.623-.779C74.1,129,74.179,128.883,73.845,128.874Zm1.661.23a.14.14,0,0,1,.131.1.164.164,0,0,1-.029.164h0a.017.017,0,0,1,0,0c-.022.028-.1.016-.151.016a.147.147,0,0,1-.136-.067c-.019-.059.038-.117.063-.16a.064.064,0,0,1,.011-.013.174.174,0,0,1,.089-.039Zm13.04.2a.172.172,0,0,0-.138.236c-.025.081.124.364.164.514.034.109-.045.41.027.441s.242-.18.235-.45c.02-.139-.049-.65-.224-.737a.176.176,0,0,0-.063,0Zm-11.075.5c-.081.006-.152.049-.12.164,0,.082.228.182.242.373.033.079-.05.33.02.354s.152-.174.185-.36c.018-.1-.08-.459-.247-.523a.3.3,0,0,0-.08-.007Zm3.314.453h.021a6.02,6.02,0,0,0,.775.089c.216.014.322.182.12.253s-.39.122-.391.409a.413.413,0,0,1,0,.252l-.007.008h0l-.01,0h-.01c-.047.007-.116-.038-.167-.065a1.05,1.05,0,0,1-.516-.759.193.193,0,0,1,.195-.2Zm-8.095.352c-.013,0-.039.039-.073.083a1.608,1.608,0,0,0-.164,1.428.356.356,0,0,0,.346.115c.191-.083.276-.471.23-.613-.064-.1-.115-.116-.178-.031-.135.273-.191.087-.2-.067a3.5,3.5,0,0,1,.039-.769c.016-.109.016-.146,0-.146Zm10.39.638a.139.139,0,0,0-.071.015,1.281,1.281,0,0,0-.287.245c-.042.032-.037.059-.025.115.033.075.091.051.156.016.087-.011.129.045.122.149a.191.191,0,0,0,.018.187.145.145,0,0,0,.182.023,3.364,3.364,0,0,1,.626-.218c.076,0,.072-.205-.049-.212a.711.711,0,0,0-.459.139c-.1.022-.113-.037-.135-.089-.025-.131.055-.223.039-.321a.223.223,0,0,0-.117-.047Zm6.656.248c-.038,0-.079.007-.137.011s-.086.041-.1.118c0,.117.076.109.149.157a.127.127,0,0,1,0,.191c-.069.063-.119.1-.188.164-.033.055-.055.142.047.169.185.052.613-.226.613-.232a.136.136,0,0,0,.041-.151c-.041-.046-.132-.019-.193-.026-.029,0-.125-.014-.08-.1a.589.589,0,0,0,.078-.15c.029-.063,0-.106-.1-.141a.6.6,0,0,0-.128-.011Zm-2.78,5.628a.292.292,0,0,0-.1.538c-3.25,0-8.238-.055-9.306-.055-.6,0-2.492-.071-2.528-.071a1.918,1.918,0,0,0,1.764.727c1.443,0,8.129-.017,10.034-.017a.666.666,0,0,0,.118.7l.008,0,.013,0h0c.126.03.182-.062.224-.128a13.41,13.41,0,0,0,1.46,0c.071.1.142.2.278.187.237-.051.424-.076.43-.558,0,0-.025-.818-.563-.769-.128.019-.485.055-.485.055-.414-.049-.717-.055-1.183-.071.043-.055.118-.276.026-.355a.148.148,0,0,0-.109-.028h-.01l-.008-.008,0,0c-.024-.034-.037-.118-.055-.139H86.96Zm.218,1.173c.474.023.919,0,1.394.027a.172.172,0,0,1-.011.237l-.008,0h-.013l-.4-.011a.144.144,0,0,0,0-.023c-.037-.109-.3-.1-.364-.016l0,0,0,.007,0,.008a.041.041,0,0,0,0,.011.049.049,0,0,0,0,.013,3.728,3.728,0,0,1-.6-.014c-.061-.076-.055-.214.018-.247Z" transform="translate(-69.544 -119.717)" fill="#fff"/>
</svg>
