<svg width="187" height="130" viewBox="0 0 187 130" fill="none" xmlns="http://www.w3.org/2000/svg">
<mask id="mask0_17789_14347" style="mask-type:luminance" maskUnits="userSpaceOnUse" x="0" y="0" width="187" height="130">
<path d="M167.755 111.692C171.556 133.684 122.349 132.747 100.743 124.571C94.0902 122.053 88.0707 121.295 82.0902 121.539C76.1118 121.782 70.1725 123.027 63.6789 124.517C63.0954 124.651 62.5082 124.787 61.9157 124.924C60.5752 125.234 59.2096 125.553 57.8138 125.872C51.2468 127.372 44.0138 128.896 35.5975 129.782C34.6193 129.885 33.6564 129.951 32.7098 129.981C19.6647 130.395 9.70788 124.023 4.44029 114.686C-1.08527 104.894 -1.4528 91.8406 5.18258 79.9368C18.6033 55.8604 3.53331 46.2792 6.35858 27.2637C9.18386 8.24761 35.5932 3.06819 55.3707 10.8281C75.1489 18.588 103.761 4.55432 103.761 4.55432C113.695 0.575173 121.559 -0.641193 127.863 0.303934C134.809 1.34543 139.86 5.01002 143.699 10.493C144.676 11.8865 145.574 13.3984 146.405 15.0139C148.125 18.3595 150.799 20.1323 153.968 21.1569C160.261 23.1913 168.507 22.2763 175.114 24.873C178.843 26.3385 182.05 28.9219 184.09 33.7846C197.084 64.7535 157.832 54.2912 167.755 111.692Z" fill="white"/>
</mask>
<g mask="url(#mask0_17789_14347)">
<path d="M167.755 111.692C171.556 133.684 122.349 132.747 100.743 124.571C94.0902 122.053 88.0707 121.295 82.0902 121.539C76.1118 121.782 70.1725 123.027 63.6789 124.517C63.0954 124.651 62.5082 124.787 61.9157 124.924C60.5752 125.234 59.2096 125.553 57.8138 125.872C51.2468 127.372 44.0138 128.896 35.5975 129.782C34.6193 129.885 33.6564 129.951 32.7098 129.981C19.6647 130.395 9.70788 124.023 4.44029 114.686C-1.08527 104.894 -1.4528 91.8406 5.18258 79.9368C18.6033 55.8604 3.53331 46.2792 6.35858 27.2637C9.18386 8.24761 35.5932 3.06819 55.3707 10.8281C75.1489 18.588 103.761 4.55432 103.761 4.55432C113.695 0.575173 121.559 -0.641193 127.863 0.303934C134.809 1.34543 139.86 5.01002 143.699 10.493C144.676 11.8865 145.574 13.3984 146.405 15.0139C148.125 18.3595 150.799 20.1323 153.968 21.1569C160.261 23.1913 168.507 22.2763 175.114 24.873C178.843 26.3385 182.05 28.9219 184.09 33.7846C197.084 64.7535 157.832 54.2912 167.755 111.692Z" fill="white"/>
</g>
<mask id="mask1_17789_14347" style="mask-type:luminance" maskUnits="userSpaceOnUse" x="0" y="0" width="187" height="130">
<path d="M167.755 111.692C171.556 133.684 122.349 132.747 100.743 124.571C94.0902 122.053 88.0707 121.295 82.0902 121.539C76.1118 121.782 70.1725 123.027 63.6789 124.517C63.0954 124.651 62.5082 124.787 61.9157 124.924C60.5752 125.234 59.2096 125.553 57.8138 125.872C51.2468 127.372 44.0138 128.896 35.5975 129.782C34.6193 129.885 33.6564 129.951 32.7098 129.981C19.6647 130.395 9.70788 124.023 4.44029 114.686C-1.08527 104.894 -1.4528 91.8406 5.18258 79.9368C18.6033 55.8604 3.53331 46.2792 6.35858 27.2637C9.18386 8.24761 35.5932 3.06819 55.3707 10.8281C75.1489 18.588 103.761 4.55432 103.761 4.55432C113.695 0.575173 121.559 -0.641193 127.863 0.303934C134.809 1.34543 139.86 5.01002 143.699 10.493C144.676 11.8865 145.574 13.3984 146.405 15.0139C148.125 18.3595 150.799 20.1323 153.968 21.1569C160.261 23.1913 168.507 22.2763 175.114 24.873C178.843 26.3385 182.05 28.9219 184.09 33.7846C197.084 64.7535 157.832 54.2912 167.755 111.692Z" fill="white"/>
</mask>
<g mask="url(#mask1_17789_14347)">
<path d="M47.0432 45.4457C47.0421 45.4455 46.3109 45.5246 46.0683 45.4981C45.3189 45.4164 42.7885 45.2219 38.7276 42.6179C38.2763 42.3285 37.7913 42.12 37.3567 41.8648C33.9226 39.8502 33.977 40.5052 30.6532 40.0768C30.5892 40.0685 30.4178 40.0928 30.1511 40.1456C29.267 40.3192 27.3317 40.7982 24.7704 41.3964C22.2471 41.9852 19.1172 42.6897 15.7843 43.3301C15.1479 43.4523 14.4958 43.5792 13.8313 43.7087C9.48647 37.6536 5.71193 31.987 2.67969 26.9237C6.30967 26.7289 9.82928 26.5398 13.0667 26.3644C16.6314 26.1707 19.6709 25.9997 22.1569 25.8571C26.3868 25.6144 29.0148 25.4528 29.902 25.4016C31.105 25.3319 34.1781 24.5672 37.6095 23.7246C42.2604 22.5816 47.57 21.2961 49.7714 21.4049C50.6608 21.4493 51.8423 21.987 53.0793 22.7245C54.0992 23.3328 51.2264 26.075 53.8727 27.7711C55.5398 28.8394 60.9119 34.7631 59.4368 35.2662C62.3586 36.728 58.9159 37.7989 58.9111 37.8002C58.3106 38.0061 56.2685 41.5203 55.7789 41.693C54.865 42.0147 51.0024 35.7825 50.7487 35.9058C50.694 35.9327 51.3562 36.2995 51.3425 36.3143C51.259 36.4 52.4777 35.5247 52.3961 35.6091C52.3954 35.6096 52.3954 35.6096 52.3954 35.6096C52.079 35.9349 51.7775 36.2447 51.495 36.5333C51.485 36.5437 51.4745 36.5535 51.4651 36.5635C51.324 36.7073 51.1886 36.8454 51.0589 36.9768C51.0354 37.0009 51.012 37.024 50.9891 37.0477C50.443 37.6049 50.01 38.0417 49.754 38.3005C49.7339 38.3214 49.714 38.3412 49.697 38.3582C49.5642 38.4917 49.4931 38.5635 49.4931 38.5635C49.4931 38.5635 50.3427 39.1935 50.6133 40.1301C50.6992 40.4238 50.7266 40.746 50.6549 41.0878C50.6362 41.1775 50.6102 41.2703 50.5772 41.3638C50.5448 41.4542 50.3666 41.8131 50.11 42.2995C50.1047 42.3087 50.1002 42.3174 50.0954 42.3272C49.3223 43.7857 47.4477 45.5578 47.0432 45.4457Z" fill="#FFA089"/>
<path d="M41.8203 29.9713C41.8414 30.0109 42.3542 30.9479 43.849 31.5457C45.217 32.0929 47.7046 32.4393 51.7871 30.9824L51.7352 30.8367C49.5122 31.63 46.3516 32.3729 43.9194 31.4072C42.4709 30.8322 41.9618 29.9077 41.9568 29.8984L41.8203 29.9713Z" fill="#E87765"/>
<path d="M-21.7109 27.1424C-12.6463 25.8265 20.8997 19.7729 21.7949 22.9492C21.9064 23.3598 21.9861 23.7418 22.043 24.1265C22.1398 24.7209 22.1648 25.3008 22.1582 25.8521C22.1015 29.3944 20.4011 32.0533 22.853 35.9666C24.914 39.2594 24.7724 41.3254 24.7685 41.3923C24.7857 43.4191 23.6758 44.7409 21.6718 44.9418C21.0526 45.0085 -6.76702 49.9443 -10.6875 50.5515C-11.9732 48.6169 -13.2188 46.6332 -14.4036 44.5972C-17.7798 38.9365 -20.4609 32.8556 -21.7109 27.1424Z" fill="#1362DF"/>
<path d="M37.5312 23.683C40.218 27.1469 50.9235 30.3267 53.617 29.3549C55.4291 28.7012 59.4404 30.1336 60.9946 30.8658C64.3446 32.4438 65.8853 33.372 67.6547 32.5951C68.6533 32.1566 68.5578 31.2563 68.183 30.7097C67.8389 30.2069 67.0703 29.7264 65.9969 29.1395C65.7773 29.0202 62.2341 26.0482 61.9912 25.9192C59.2604 24.4661 52.0356 21.2518 52.0356 21.2518C48.8482 20.2831 37.5312 23.683 37.5312 23.683Z" fill="#FFA089"/>
<path d="M65.9984 29.1484C65.8447 29.3035 65.6931 29.5319 65.6214 29.8636C65.4433 30.6863 67.3025 31.4441 67.5766 31.5157C67.7656 31.5657 68.0357 31.0448 68.1846 30.7187C67.8404 30.2158 67.0719 29.7353 65.9984 29.1484Z" fill="#E04C38"/>
<path d="M104.917 70.2312C104.918 69.1604 104.329 68.1746 103.388 67.6651C101.204 66.4837 96.6617 64.492 91.3723 64.8513C85.4884 65.2509 82.2812 76.9779 82.2812 76.9779C82.2812 76.9779 87.4336 78.985 91.8757 76.601C97.8729 73.3826 98.8872 71.3882 104.07 71.9079C104.426 71.9436 104.748 71.7013 104.819 71.3511C104.873 71.084 104.916 70.7183 104.917 70.2312Z" fill="#1158C9"/>
<path d="M67.4444 30.6455C65.6898 28.8417 62.9345 28.4588 60.7545 29.7164L52.4905 34.4837C50.3237 35.7337 49.9128 38.6899 51.6574 40.4835L58.3732 47.3878L71.4023 34.7146L67.4444 30.6455ZM67.1664 36.1259L58.1712 42.0336C57.596 42.3804 56.8571 42.2806 56.395 41.7938L53.9956 39.2664C53.165 38.3921 53.3324 36.9786 54.3438 36.3222L61.9345 31.3975C62.9872 30.7629 63.9183 30.9588 65.0022 32.1565L67.3345 34.4946C67.8075 34.9691 67.7264 35.7579 67.1664 36.1259Z" fill="#1158C9"/>
<path d="M90.3624 71.9323C81.7376 80.375 67.8229 80.2192 59.3916 71.5834C50.9332 62.9205 51.1153 49.0405 59.7904 40.6025C63.5124 36.9822 68.1918 34.9534 72.9883 34.5021C73.3273 34.4699 73.6677 34.4456 74.008 34.4297L96.8765 57.9404C96.8513 58.2801 96.8178 58.6194 96.7759 58.9577C96.1951 63.7178 94.0532 68.3193 90.3624 71.9323Z" fill="#1362DF"/>
<path d="M52.1033 64.902L65.784 78.9669C66.2958 79.4931 67.1684 79.3859 67.5376 78.7514L68.4657 77.1569L53.9582 62.2422L52.3465 63.1665C51.7182 63.5268 51.5983 64.3828 52.1033 64.902Z" fill="#1158C9"/>
<path d="M96.7876 58.9578L73 34.5021C73.339 34.4699 73.6794 34.4456 74.0197 34.4297L96.8882 57.9404C96.8629 58.2802 96.8295 58.6195 96.7876 58.9578Z" fill="#100259"/>
<path d="M73.2281 33.5968L97.7495 58.8069C98.2816 59.354 99.208 58.9476 99.1656 58.1856C98.8187 51.952 96.1707 45.6199 91.2685 40.58C86.3662 35.54 80.1098 32.7178 73.8883 32.1984C73.1278 32.135 72.696 33.0497 73.2281 33.5968Z" fill="#1158C9"/>
<path d="M95.2725 39.1672C95.3197 37.7801 94.2335 36.6174 92.8464 36.5702C91.4594 36.5231 90.2967 37.6092 90.2495 38.9963C90.2023 40.3834 91.2885 41.5461 92.6756 41.5933C94.0626 41.6404 95.2253 40.5543 95.2725 39.1672Z" fill="#1158C9"/>
<path d="M94.6935 39.214C94.9386 38.9423 94.9997 38.4556 94.7047 38.0722C94.4816 37.7822 94.1265 37.5839 93.8813 37.8557C93.6362 38.1273 94.0094 38.1928 93.941 38.861C93.9068 39.1948 94.4483 39.4857 94.6935 39.214Z" fill="#1362DF"/>
<path d="M60.681 44.9441L61.323 44.5856C62.5882 43.8963 62.258 41.7478 60.909 39.561L57.6179 34.2413C56.2347 31.9991 54.9769 31.1326 53.5435 31.5313C53.2878 31.6024 52.9622 31.7798 52.7498 31.9529C51.6188 32.8739 51.4259 34.308 52.809 36.5502L56.211 42.1203C57.5601 44.307 59.4158 45.6333 60.681 44.9441Z" fill="#EF9684"/>
<path d="M54.64 46.6307L55.3152 46.0876C56.519 45.1169 55.925 43.0887 54.3025 41.2449L50.0158 36.3735C48.3521 34.4828 46.5409 33.6284 45.1425 34.4006C44.8791 34.546 44.6136 34.7685 44.4031 35.0156C43.383 36.2134 43.8818 38.0868 45.5455 39.9774L49.8322 44.8489C51.4547 46.6928 53.4361 47.6014 54.64 46.6307Z" fill="#EF9684"/>
<path d="M50.6045 49.2699L51.093 48.8003C52.0452 47.8844 51.6754 46.2996 50.4955 45.004L47.9494 42.4639C46.9685 41.4568 45.5467 40.3419 44.1948 41.4234C42.5625 42.729 43.7219 44.9385 44.3203 45.5056L46.9602 48.4048C48.14 49.7004 49.6524 50.1857 50.6045 49.2699Z" fill="#EF9684"/>
<path d="M53.5281 32.4246C54.5069 31.8363 55.269 32.4472 55.7659 33.2995L56.3932 34.375C56.6304 34.7817 56.5379 35.2594 56.1876 35.4365L54.9385 36.0681C54.5501 36.2644 54.0172 36.0561 53.7541 35.6051L53.04 34.3806C52.6167 33.6546 53.091 32.6874 53.5281 32.4246Z" fill="#E04C38"/>
<path d="M63.7628 41.1484C63.8789 41.0849 64.6059 40.6511 64.6059 40.6511C65.6346 40.0054 65.1898 38.3225 64.0355 36.6709L61.4529 32.9756C60.2694 31.2822 59.5271 30.2393 58.2801 30.58C57.9497 30.6703 57.3833 31.0525 57.1268 31.3105C56.0326 32.4111 56.8376 33.7345 58.0212 35.428L60.2157 39.0682C61.37 40.7198 62.695 41.7321 63.7628 41.1484Z" fill="#EF9684"/>
<path d="M45.0959 35.4325L45.1695 35.3545C45.835 34.6497 46.8487 34.5859 47.4221 35.2125L48.1761 36.0365C48.4497 36.3356 48.4138 36.8555 48.0962 37.1919L46.9996 38.3531C46.6474 38.7261 46.1109 38.7599 45.8075 38.4282L44.9532 37.4948C44.4648 36.9609 44.529 36.0329 45.0959 35.4325Z" fill="#E04C38"/>
<path d="M44.5825 41.9534L44.5582 41.9735C43.9317 42.4914 43.8147 43.373 44.2983 43.9325L45.1367 44.9025C45.3675 45.1696 45.8011 45.1858 46.1001 44.9386L47.0874 44.1225C47.419 43.8484 47.4809 43.3819 47.225 43.0858L46.3021 42.018C45.89 41.5413 45.1162 41.5123 44.5825 41.9534Z" fill="#E04C38"/>
<path d="M58.4931 32.0334L58.6855 31.9658C59.3494 31.7331 60.1365 32.1229 60.4346 32.8322L60.7744 33.6408C60.9166 33.9793 60.7738 34.3472 60.4569 34.4583L59.244 34.8836C58.8927 35.0068 58.4762 34.8005 58.3184 34.4251L57.9264 33.4925C57.6726 32.8883 57.9275 32.2317 58.4931 32.0334Z" fill="#E04C38"/>
<path d="M48.7287 35.0064L48.6016 35.1211L54.85 42.0477L54.9771 41.9331L48.7287 35.0064Z" fill="#E87765"/>
<path d="M56.692 32.7295L56.5469 32.8203L61.3313 40.4631L61.4764 40.3723L56.692 32.7295Z" fill="#E87765"/>
<path d="M46.8797 41.3486L46.7578 41.4688L51.676 46.4599L51.798 46.3397L46.8797 41.3486Z" fill="#E87765"/>
<path d="M45.5131 47.0108L45.6397 46.8956C45.2746 46.4945 43.91 44.8834 43.8962 44.8672L43.7656 44.9778C43.7793 44.9941 45.1459 46.6076 45.5131 47.0108Z" fill="#E87765"/>
</g>
<mask id="mask2_17789_14347" style="mask-type:luminance" maskUnits="userSpaceOnUse" x="0" y="0" width="187" height="130">
<path d="M167.755 111.692C171.556 133.684 122.349 132.747 100.743 124.571C94.0902 122.053 88.0707 121.295 82.0902 121.539C76.1118 121.782 70.1725 123.027 63.6789 124.517C63.0954 124.651 62.5082 124.787 61.9157 124.924C60.5752 125.234 59.2096 125.553 57.8138 125.872C51.2468 127.372 44.0138 128.896 35.5975 129.782C34.6193 129.885 33.6564 129.951 32.7098 129.981C19.6647 130.395 9.70788 124.023 4.44029 114.686C-1.08527 104.894 -1.4528 91.8406 5.18258 79.9368C18.6033 55.8604 3.53331 46.2792 6.35858 27.2637C9.18386 8.24761 35.5932 3.06819 55.3707 10.8281C75.1489 18.588 103.761 4.55432 103.761 4.55432C113.695 0.575173 121.559 -0.641193 127.863 0.303934C134.809 1.34543 139.86 5.01002 143.699 10.493C144.676 11.8865 145.574 13.3984 146.405 15.0139C148.125 18.3595 150.799 20.1323 153.968 21.1569C160.261 23.1913 168.507 22.2763 175.114 24.873C178.843 26.3385 182.05 28.9219 184.09 33.7846C197.084 64.7535 157.832 54.2912 167.755 111.692Z" fill="white"/>
</mask>
<g mask="url(#mask2_17789_14347)">
<path d="M120.083 80.1549L90.6273 82.8289C90.2858 82.8599 90.0341 83.1619 90.0651 83.5034L90.31 86.2014C90.5443 88.7825 91.2566 91.2975 92.4104 93.6181L97.9272 104.713C98.2476 105.358 98.9306 105.739 99.6473 105.674L115.324 104.251C116.041 104.186 116.644 103.688 116.843 102.996L120.272 91.0889C120.989 88.5984 121.237 85.9963 121.002 83.4152L120.757 80.7173C120.726 80.3757 120.424 80.1239 120.083 80.1549Z" fill="#DD514A"/>
<path d="M116.922 98.6386L116.758 96.8332C120.672 96.4778 125.754 92.4461 127.214 88.5369C127.824 86.9039 127.676 85.5992 126.774 84.6607C126.017 83.8717 125.213 83.5207 124.318 83.5869C124.302 83.5874 124.285 83.5889 124.269 83.5905C122.156 83.7823 119.971 86.2426 119.303 87.1824L117.826 86.1325C117.944 85.9664 120.736 82.0909 124.106 81.785C124.132 81.7826 124.159 81.7811 124.185 81.7786C125.632 81.6722 126.942 82.2189 128.082 83.4043C129.467 84.8473 129.762 86.8951 128.912 89.1712C127.217 93.7105 121.501 98.2229 116.922 98.6386Z" fill="#DD514A"/>
<path d="M120.727 80.5556C120.762 80.9187 120.082 81.3284 118.86 81.7443C116.292 82.6191 111.33 83.5219 105.592 84.076C100.014 84.6149 95.0929 84.6899 92.3534 84.357C90.9349 84.1842 90.1008 83.9019 90.0638 83.5175C89.9549 82.3906 96.7311 80.8144 105.198 79.9966C113.665 79.1787 120.618 79.4292 120.727 80.5556Z" fill="#C94845"/>
<path d="M116.796 102.991C116.882 103.359 116.533 103.751 115.848 104.13C114.408 104.928 111.486 105.674 108.018 106.042C104.646 106.4 101.6 106.31 99.8373 105.882C98.9243 105.66 98.3551 105.346 98.2631 104.957C97.9931 103.814 101.923 102.448 107.041 101.906C112.158 101.363 116.526 101.849 116.796 102.991Z" fill="#DD514A"/>
<path d="M118.874 81.7319C118.812 81.7531 118.748 81.7747 118.683 81.7959C118.587 81.8268 118.488 81.8584 118.386 81.8898C115.707 82.7138 111 83.5429 105.606 84.0636C100.574 84.5492 96.0775 84.6581 93.2342 84.4307C92.9252 84.4059 92.6358 84.3775 92.3672 84.3446C94.9347 83.469 99.8966 82.5663 105.636 82.0119C111.154 81.4792 116.029 81.4 118.786 81.7213C118.815 81.7247 118.845 81.7286 118.874 81.7319Z" fill="#0B0755"/>
<path d="M118.874 81.7561L118.683 81.8203L118.385 81.9142C118.254 81.8392 117.939 81.7335 117.268 81.8292C116.294 81.9684 114.782 81.8665 114.623 81.8148C114.465 81.763 113.003 82.0806 112.491 81.9609C112.139 81.8787 111.608 81.6211 110.727 81.8916C109.847 82.1621 108.483 82.1111 108.256 82.0002C108.028 81.8898 100.844 82.6023 100.072 83.029C99.2999 83.4556 96.2595 83.3764 95.7338 83.6105C95.208 83.8441 94.3163 83.9896 94.1273 83.9534C94.002 83.9291 93.5349 84.2418 93.2342 84.4551C92.9252 84.4303 92.6358 84.4019 92.3672 84.3691C94.9347 83.4934 99.8966 82.5907 105.636 82.0363C111.154 81.5036 116.118 81.4348 118.874 81.7561Z" fill="white"/>
<path d="M144.505 112.192C144.311 111.959 144.179 111.818 144.117 111.78C140.932 109.816 141.439 109.285 137.043 108.62C136.486 108.536 135.919 108.376 135.324 108.31C129.969 107.716 127.636 106.106 126.928 105.651C126.699 105.503 126.12 104.92 126.119 104.92C125.689 104.733 125.308 101.877 125.662 100.068C125.665 100.056 125.667 100.045 125.669 100.034C125.788 99.4312 125.885 98.9945 125.921 98.8933C125.958 98.7889 126 98.6901 126.047 98.5991C126.225 98.252 126.476 97.9917 126.757 97.797C127.65 97.1745 128.83 97.2249 128.83 97.2249C128.83 97.2249 128.819 97.1127 128.797 96.9033C128.794 96.8766 128.791 96.8455 128.788 96.8133C128.748 96.4087 128.114 96.5096 128.032 95.6421C128.028 95.6054 127.461 96.5402 128.618 95.5195C128.773 95.3832 124.579 96.3523 124.557 96.1284C124.556 96.1131 124.906 94.7016 124.904 94.6855C124.862 94.2365 128.433 93.1261 128.387 92.6213C128.387 92.6213 128.387 92.6213 128.387 92.6205C128.375 92.4899 128.363 92.3577 128.351 92.2245C128.35 92.202 128.333 92.1593 128.305 92.0975C128.171 91.8121 127.763 91.122 127.196 90.2004C126.892 89.7064 121.065 87.4756 121.062 87.4709C133.35 86.4095 135.537 80.7688 136.85 80.9578C138.442 81.1871 139.845 81.5508 140.648 82.1374C142.635 83.5902 146.34 88.4378 149.573 92.6986C151.959 95.8416 154.089 98.6651 155.084 99.5712C155.818 100.239 157.985 102.227 161.486 105.41C163.543 107.281 166.061 109.566 169.019 112.24C169.863 113.003 170.731 113.787 171.618 114.588C170.046 118.535 167.095 121.938 163.355 124.705C161.037 125.393 158.637 126.077 156.165 126.755C155.679 126.176 155.202 125.607 154.736 125.054C152.293 122.156 150.072 119.345 148.296 117.06C146.493 114.741 145.15 112.965 144.505 112.192Z" fill="#FF9280"/>
<path d="M143.718 99.5107C144.171 99.5365 144.45 99.4761 144.474 99.4708L144.437 99.3081C144.426 99.3107 143.286 99.5535 141.825 98.7981C140.472 98.0981 138.558 96.3743 137.127 92.1367L136.969 92.1901C137.77 94.5633 139.252 97.663 141.761 98.9526C142.544 99.3554 143.231 99.4829 143.718 99.5107Z" fill="#E87765"/>
<path d="M148.301 117.064C148.302 117.063 148.302 117.062 148.303 117.061C148.37 116.967 148.441 116.885 148.523 116.798C149.605 115.611 151.372 114.524 153.778 113.698C158.656 112.026 159.05 108.524 161.488 105.41C161.489 105.409 161.489 105.409 161.49 105.408C161.873 104.925 162.302 104.44 162.804 103.992C163.123 103.698 163.461 103.422 163.846 103.145C164.623 102.595 169.532 106.551 174.324 111.13C173.356 120.576 163.263 126.377 153.218 130.053C151.674 127.542 150.1 124.962 148.495 122.318C147.329 120.397 146.864 118.811 148.301 117.064Z" fill="#2F61C7"/>
<path d="M149.56 92.7038C149.56 92.7038 143.089 80.3514 134.881 74.6526C133.759 73.8737 132.531 71.9093 131.253 69.7366C130.72 68.831 130.178 67.8892 129.632 66.9825C129.557 66.8578 129.482 66.7343 129.407 66.6116C128.46 65.0627 123.881 68.6551 128.674 75.2342C129.804 76.7856 133.928 81.8665 131.613 86.3203C130.138 89.158 144.794 93.8216 149.56 92.7038Z" fill="#FF9280"/>
<path d="M118.444 94.38L118.192 93.5983C117.682 92.0721 119.587 90.5674 122.354 89.8067L129.093 87.9634C131.93 87.1835 133.617 87.4325 134.485 88.8493C134.64 89.1021 134.771 89.4949 134.813 89.7979C135.037 91.4114 134.103 92.7305 131.266 93.5104L124.246 95.4738C121.48 96.2344 118.953 95.9062 118.444 94.38Z" fill="#FFA089"/>
<path d="M120.903 100.64L120.613 99.8466C120.096 98.4301 121.877 96.9531 124.493 96.1265L131.402 93.9429C134.084 93.0953 136.271 93.2175 137.087 94.5545C137.241 94.8064 137.35 95.1262 137.393 95.4409C137.602 96.967 136.003 98.3551 133.321 99.2025L126.411 101.386C123.796 102.213 121.42 102.056 120.903 100.64Z" fill="#FFA089"/>
<path d="M123.254 104.464L123.144 103.838C122.931 102.618 124.522 101.416 126.676 100.829L131.126 99.783C132.863 99.3554 135.112 99.0332 135.586 100.576C136.158 102.439 133.313 103.825 132.29 104.045L127.47 105.359C125.316 105.946 123.468 105.684 123.254 104.464Z" fill="#FFA089"/>
<path d="M133.858 89.5961C133.506 88.3703 132.418 88.2897 131.363 88.608L130.032 89.0097C129.528 89.1616 129.24 89.6224 129.392 90.0337L129.932 91.5006C130.1 91.9567 130.694 92.192 131.253 92.0236L132.768 91.5662C133.667 91.2951 134.015 90.1436 133.858 89.5961Z" fill="#FFB0A1"/>
<path d="M118.873 88.9735C118.827 88.8332 118.563 87.9254 118.563 87.9254C118.213 86.6148 119.857 85.5777 122.058 85.1063L126.981 84.0516C129.237 83.5682 130.638 83.2807 131.397 84.5082C131.599 84.8335 131.771 85.5769 131.784 85.9829C131.841 87.7152 130.176 88.1842 127.919 88.6676L123.355 89.9727C121.155 90.4442 119.302 90.2632 118.873 88.9735Z" fill="#FFA089"/>
<path d="M136.469 95.5289L136.45 95.4293C136.276 94.5306 135.389 94.0165 134.48 94.287L133.285 94.6426C132.851 94.7718 132.564 95.2283 132.647 95.6573L132.934 97.1383C133.027 97.6139 133.496 97.886 133.977 97.7428L135.331 97.3399C136.106 97.1095 136.618 96.2946 136.469 95.5289Z" fill="#FFB0A1"/>
<path d="M134.678 100.84L134.686 100.868C134.883 101.584 134.536 102.319 133.913 102.503L132.834 102.821C132.537 102.909 132.217 102.701 132.122 102.36L131.811 101.232C131.706 100.853 131.89 100.464 132.219 100.367L133.407 100.016C133.938 99.8599 134.509 100.231 134.678 100.84Z" fill="#FFB0A1"/>
<path d="M131.302 85.5474L131.237 85.3291C131.013 84.5761 130.145 84.1196 129.308 84.3146L128.354 84.5369C127.955 84.6299 127.715 85.0001 127.822 85.3595L128.232 86.7352C128.351 87.1337 128.81 87.3753 129.253 87.2721L130.354 87.0157C131.066 86.8497 131.493 86.1889 131.302 85.5474Z" fill="#FFB0A1"/>
<path d="M122.888 96.6652C122.893 96.6655 122.899 96.6649 122.904 96.6632L132.883 93.67C132.908 93.6625 132.922 93.6364 132.915 93.6115C132.907 93.5868 132.881 93.5727 132.856 93.5801L122.877 96.5734C122.852 96.5808 122.838 96.607 122.846 96.6318C122.852 96.6512 122.869 96.6641 122.888 96.6652Z" fill="#E87765"/>
<path d="M121.333 90.1935C121.338 90.1938 121.343 90.1934 121.348 90.192L131.076 87.5884C131.101 87.5817 131.116 87.556 131.109 87.531C131.102 87.5061 131.077 87.4907 131.052 87.4978L121.324 90.1014C121.299 90.1081 121.284 90.1338 121.291 90.1588C121.296 90.1788 121.314 90.1923 121.333 90.1935Z" fill="#E87765"/>
<path d="M124.388 101.904C124.393 101.904 124.398 101.904 124.404 101.902L132.559 99.5492C132.584 99.542 132.598 99.5159 132.591 99.491C132.584 99.4661 132.558 99.4515 132.533 99.459L124.378 101.812C124.353 101.819 124.338 101.845 124.346 101.87C124.351 101.89 124.369 101.903 124.388 101.904Z" fill="#E87765"/>
<path d="M130.149 70.6084C130.696 70.6228 131.247 69.7385 131.247 69.7385C130.714 68.8328 130.172 67.8911 129.626 66.9844C129.317 67.1601 128.929 67.4728 128.894 67.9409C128.835 68.7282 129.602 70.594 130.149 70.6084Z" fill="#FFB0A1"/>
</g>
<mask id="mask3_17789_14347" style="mask-type:luminance" maskUnits="userSpaceOnUse" x="0" y="0" width="187" height="130">
<path d="M167.755 111.692C171.556 133.684 122.349 132.747 100.743 124.571C94.0902 122.053 88.0707 121.295 82.0902 121.539C76.1118 121.782 70.1725 123.027 63.6789 124.517C63.0954 124.651 62.5082 124.787 61.9157 124.924C60.5752 125.234 59.2096 125.553 57.8138 125.872C51.2468 127.372 44.0138 128.896 35.5975 129.782C34.6193 129.885 33.6564 129.951 32.7098 129.981C19.6647 130.395 9.70788 124.023 4.44029 114.686C-1.08527 104.894 -1.4528 91.8406 5.18258 79.9368C18.6033 55.8604 3.53331 46.2792 6.35858 27.2637C9.18386 8.24761 35.5932 3.06819 55.3707 10.8281C75.1489 18.588 103.761 4.55432 103.761 4.55432C113.695 0.575173 121.559 -0.641193 127.863 0.303934C134.809 1.34543 139.86 5.01002 143.699 10.493C144.676 11.8865 145.574 13.3984 146.405 15.0139C148.125 18.3595 150.799 20.1323 153.968 21.1569C160.261 23.1913 168.507 22.2763 175.114 24.873C178.843 26.3385 182.05 28.9219 184.09 33.7846C197.084 64.7535 157.832 54.2912 167.755 111.692Z" fill="white"/>
</mask>
<g mask="url(#mask3_17789_14347)">
<path d="M104.127 71.8914C104.127 71.8914 104.395 72.9501 104.666 77.146C104.937 81.3419 103.312 83.5076 103.312 83.5076L109.809 82.6956C109.809 82.6956 107.102 78.635 106.561 74.7097C106.02 70.7845 104.973 70.2148 104.973 70.2148L104.127 71.8914Z" fill="#0B0755"/>
</g>
<mask id="mask4_17789_14347" style="mask-type:luminance" maskUnits="userSpaceOnUse" x="0" y="0" width="187" height="130">
<path d="M167.755 111.692C171.556 133.684 122.349 132.747 100.743 124.571C94.0902 122.053 88.0707 121.295 82.0902 121.539C76.1118 121.782 70.1725 123.027 63.6789 124.517C63.0954 124.651 62.5082 124.787 61.9157 124.924C60.5752 125.234 59.2096 125.553 57.8138 125.872C51.2468 127.372 44.0138 128.896 35.5975 129.782C34.6193 129.885 33.6564 129.951 32.7098 129.981C19.6647 130.395 9.70788 124.023 4.44029 114.686C-1.08527 104.894 -1.4528 91.8406 5.18258 79.9368C18.6033 55.8604 3.53331 46.2792 6.35858 27.2637C9.18386 8.24761 35.5932 3.06819 55.3707 10.8281C75.1489 18.588 103.761 4.55432 103.761 4.55432C113.695 0.575173 121.559 -0.641193 127.863 0.303934C134.809 1.34543 139.86 5.01002 143.699 10.493C144.676 11.8865 145.574 13.3984 146.405 15.0139C148.125 18.3595 150.799 20.1323 153.968 21.1569C160.261 23.1913 168.507 22.2763 175.114 24.873C178.843 26.3385 182.05 28.9219 184.09 33.7846C197.084 64.7535 157.832 54.2912 167.755 111.692Z" fill="white"/>
</mask>
<g mask="url(#mask4_17789_14347)">
<path opacity="0.8" d="M124.329 63.8133C127.002 60.994 127.974 55.1549 124.858 53.2912C121.742 51.4283 120.182 51.4276 117.827 54.3046C115.472 57.1822 111.45 54.2988 109.139 58.5778C106.829 62.8566 111.076 64.5136 111.302 69.0834C111.528 73.6537 109.482 74.3816 109.526 75.8605C109.57 77.3394 111.515 77.7692 111.515 77.7692C112.787 78.3694 116.094 77.9062 116.616 76.5976C117.138 75.289 120.579 76.5948 122.657 73.234C124.735 69.873 121.657 66.6326 124.329 63.8133ZM113.135 64.4708C112.194 64.2732 111.192 62.2064 111.996 60.0205C112.799 57.8351 114.916 57.9799 114.916 57.9799C116.573 58.2585 115.28 61.0463 115.275 62.4998C115.269 63.9533 114.075 64.6684 113.135 64.4708Z" fill="#E7EFFC"/>
</g>
<mask id="mask5_17789_14347" style="mask-type:luminance" maskUnits="userSpaceOnUse" x="0" y="0" width="187" height="130">
<path d="M167.755 111.692C171.556 133.684 122.349 132.747 100.743 124.571C94.0902 122.053 88.0707 121.295 82.0902 121.539C76.1118 121.782 70.1725 123.027 63.6789 124.517C63.0954 124.651 62.5082 124.787 61.9157 124.924C60.5752 125.234 59.2096 125.553 57.8138 125.872C51.2468 127.372 44.0138 128.896 35.5975 129.782C34.6193 129.885 33.6564 129.951 32.7098 129.981C19.6647 130.395 9.70788 124.023 4.44029 114.686C-1.08527 104.894 -1.4528 91.8406 5.18258 79.9368C18.6033 55.8604 3.53331 46.2792 6.35858 27.2637C9.18386 8.24761 35.5932 3.06819 55.3707 10.8281C75.1489 18.588 103.761 4.55432 103.761 4.55432C113.695 0.575173 121.559 -0.641193 127.863 0.303934C134.809 1.34543 139.86 5.01002 143.699 10.493C144.676 11.8865 145.574 13.3984 146.405 15.0139C148.125 18.3595 150.799 20.1323 153.968 21.1569C160.261 23.1913 168.507 22.2763 175.114 24.873C178.843 26.3385 182.05 28.9219 184.09 33.7846C197.084 64.7535 157.832 54.2912 167.755 111.692Z" fill="white"/>
</mask>
<g mask="url(#mask5_17789_14347)">
<path d="M12.0698 127.675C12.0574 127.674 12.0448 127.673 12.0323 127.669C11.9314 127.643 11.8707 127.541 11.8966 127.44C18.671 101.091 25.0491 82.4251 29.8559 74.8791C29.9627 74.7115 30.0398 74.5905 30.0684 74.5297C30.1132 74.4355 30.2258 74.3956 30.3197 74.44C30.4138 74.4846 30.454 74.597 30.4093 74.6911C30.3704 74.7732 30.2964 74.8894 30.1739 75.0816C25.388 82.595 19.0266 101.223 12.2617 127.534C12.2391 127.622 12.1575 127.68 12.0698 127.675Z" fill="#B8D0FC"/>
<path d="M33.344 73.3899C32.7729 74.2381 29.7912 75.8732 29.5492 75.7101C29.307 75.5471 29.7014 72.1695 30.2726 71.3214C30.8438 70.4732 31.9944 70.2487 32.8426 70.8199C33.6908 71.3911 33.9153 72.5417 33.344 73.3899Z" fill="#B8D0FC"/>
<path d="M27.5683 76.1325C27.9095 77.1214 27.4093 80.5641 27.1269 80.6615C26.8447 80.7589 24.3282 78.357 23.9869 77.368C23.6457 76.3791 24.1709 75.3008 25.1598 74.9596C26.1489 74.6184 27.2272 75.1435 27.5683 76.1325Z" fill="#B8D0FC"/>
<path d="M31.4854 81.9501C30.445 82.0598 27.2034 80.7972 27.1721 80.5002C27.1408 80.2033 30.0477 78.2922 31.0881 78.1825C32.1286 78.0728 33.0609 78.8272 33.1707 79.8676C33.2802 80.9081 32.5258 81.8404 31.4854 81.9501Z" fill="#B8D0FC"/>
<path d="M19.338 93.7473C20.0863 95.3359 19.8742 101.171 19.4208 101.385C18.9674 101.599 14.3334 98.0457 13.5851 96.457C12.8368 94.8684 13.518 92.974 15.1068 92.2258C16.6954 91.4774 18.5897 92.1587 19.338 93.7473Z" fill="#B8D0FC"/>
<path d="M26.8525 102.761C25.1362 103.132 19.4985 101.611 19.3925 101.121C19.2864 100.631 23.7917 96.9165 25.508 96.5452C27.2244 96.1739 28.9167 97.2643 29.288 98.9806C29.6592 100.697 28.5689 102.389 26.8525 102.761Z" fill="#B8D0FC"/>
<path d="M15.0457 100.456C16.3667 102.151 17.6855 109.174 17.2018 109.551C16.718 109.928 10.2294 106.935 8.90821 105.24C7.58722 103.545 7.89011 101.1 9.58498 99.7793C11.2797 98.4583 13.7247 98.7612 15.0457 100.456Z" fill="#B8D0FC"/>
<path d="M25.7264 112.216C23.5905 112.451 16.9193 109.891 16.8521 109.281C16.7848 108.672 22.7364 104.717 24.8723 104.481C27.0081 104.245 28.9309 105.785 29.1668 107.921C29.4026 110.057 27.8623 111.98 25.7264 112.216Z" fill="#B8D0FC"/>
<path d="M12.577 109.042C13.8981 110.737 15.2168 117.76 14.7331 118.137C14.2493 118.514 7.76063 115.521 6.43956 113.826C5.11842 112.131 5.42138 109.686 7.11618 108.365C8.81097 107.044 11.256 107.347 12.577 109.042Z" fill="#B8D0FC"/>
<path d="M23.25 120.833C21.114 121.069 14.4429 118.508 14.3756 117.898C14.3082 117.289 20.2599 113.334 22.3958 113.098C24.5317 112.862 26.4544 114.403 26.6903 116.538C26.9262 118.674 25.3859 120.597 23.25 120.833Z" fill="#B8D0FC"/>
<path d="M6.81796 119.956C8.68497 121.02 12.5793 127.011 12.2756 127.544C11.972 128.077 4.8323 127.781 2.96529 126.718C1.0982 125.654 0.447112 123.278 1.51096 121.411C2.57488 119.544 4.95087 118.892 6.81796 119.956Z" fill="#B8D0FC"/>
<path d="M21.1275 129.316C19.0378 129.817 12.0989 128.11 11.9559 127.514C11.8129 126.918 17.2234 122.25 19.3131 121.749C21.4028 121.248 23.5029 122.536 24.004 124.625C24.5049 126.715 23.2172 128.815 21.1275 129.316Z" fill="#B8D0FC"/>
<path d="M25.0414 81.5983C25.3881 82.6031 24.8798 86.1008 24.593 86.1999C24.3061 86.2987 21.7492 83.8584 21.4027 82.8535C21.0559 81.8488 21.5895 80.7532 22.5944 80.4065C23.5992 80.0599 24.6948 80.5934 25.0414 81.5983Z" fill="#B8D0FC"/>
<path d="M28.8436 87.6044C27.7867 87.7158 24.4931 86.433 24.4612 86.1312C24.4295 85.8295 27.3829 83.8879 28.44 83.7764C29.497 83.6649 30.4444 84.4315 30.5558 85.4886C30.6673 86.5457 29.9007 87.4929 28.8436 87.6044Z" fill="#B8D0FC"/>
<path d="M22.0894 86.7241C22.6974 88.1064 22.3852 93.1182 21.9907 93.2917C21.5961 93.4653 17.6915 90.3078 17.0836 88.9255C16.4757 87.5432 17.1035 85.9298 18.4859 85.3219C19.8682 84.714 21.4816 85.3417 22.0894 86.7241Z" fill="#B8D0FC"/>
<path d="M28.2107 95.2114C26.7091 95.3698 22.03 93.5472 21.9847 93.1186C21.9395 92.6899 26.1356 89.9315 27.6373 89.7731C29.1391 89.6148 30.4849 90.7038 30.6433 92.2055C30.8016 93.7072 29.7126 95.0531 28.2107 95.2114Z" fill="#B8D0FC"/>
</g>
<mask id="mask6_17789_14347" style="mask-type:luminance" maskUnits="userSpaceOnUse" x="0" y="0" width="187" height="130">
<path d="M167.755 111.692C171.556 133.684 122.349 132.747 100.743 124.571C94.0902 122.053 88.0707 121.295 82.0902 121.539C76.1118 121.782 70.1725 123.027 63.6789 124.517C63.0954 124.651 62.5082 124.787 61.9157 124.924C60.5752 125.234 59.2096 125.553 57.8138 125.872C51.2468 127.372 44.0138 128.896 35.5975 129.782C34.6193 129.885 33.6564 129.951 32.7098 129.981C19.6647 130.395 9.70788 124.023 4.44029 114.686C-1.08527 104.894 -1.4528 91.8406 5.18258 79.9368C18.6033 55.8604 3.53331 46.2792 6.35858 27.2637C9.18386 8.24761 35.5932 3.06819 55.3707 10.8281C75.1489 18.588 103.761 4.55432 103.761 4.55432C113.695 0.575172 121.559 -0.641193 127.863 0.303934C134.809 1.34543 139.86 5.01002 143.699 10.493C144.676 11.8865 145.574 13.3984 146.405 15.0139C148.125 18.3595 150.799 20.1323 153.968 21.1569C160.261 23.1913 168.507 22.2763 175.114 24.873C178.843 26.3385 182.05 28.9219 184.09 33.7846C197.084 64.7535 157.832 54.2912 167.755 111.692Z" fill="white"/>
</mask>
<g mask="url(#mask6_17789_14347)">
<path d="M38.839 130.601C38.8303 130.596 38.822 130.591 38.814 130.585C38.75 130.534 38.739 130.442 38.7895 130.378C51.9744 113.667 62.4449 102.328 68.2724 98.449C68.4018 98.3629 68.4952 98.3007 68.5351 98.2662C68.597 98.213 68.6901 98.2201 68.7432 98.2815C68.7965 98.3433 68.7897 98.4364 68.7279 98.4896C68.674 98.536 68.5844 98.5957 68.4358 98.6945C62.6337 102.557 52.1873 113.873 39.0211 130.56C38.977 130.616 38.9003 130.632 38.839 130.601Z" fill="#B8D0FC"/>
<path d="M71.2699 98.4836C70.5928 98.9097 67.9418 99.1363 67.8202 98.943C67.6985 98.7497 69.0494 96.4576 69.7265 96.0314C70.4037 95.6052 71.298 95.8087 71.7242 96.4858C72.1504 97.1629 71.947 98.0574 71.2699 98.4836Z" fill="#B8D0FC"/>
<path d="M66.2069 98.6262C66.1382 99.4419 64.6908 101.747 64.458 101.727C64.2252 101.708 63.1845 99.1928 63.2533 98.3771C63.322 97.5615 64.039 96.9561 64.8546 97.0249C65.6703 97.0937 66.2757 97.8106 66.2069 98.6262Z" fill="#B8D0FC"/>
<path d="M67.1531 104.009C66.3739 103.758 64.4538 101.829 64.5254 101.607C64.597 101.384 67.2817 100.937 68.0609 101.187C68.8402 101.438 69.2686 102.273 69.0179 103.052C68.7671 103.831 67.9323 104.26 67.1531 104.009Z" fill="#B8D0FC"/>
<path d="M54.7326 108.612C54.7654 109.985 52.7672 114.094 52.3751 114.103C51.983 114.113 49.7913 110.104 49.7585 108.731C49.7258 107.357 50.8126 106.217 52.1863 106.184C53.5598 106.151 54.6998 107.238 54.7326 108.612Z" fill="#B8D0FC"/>
<path d="M57.2896 117.437C55.944 117.159 52.3909 114.287 52.4701 113.903C52.5492 113.519 56.9486 112.286 58.2941 112.564C59.6398 112.841 60.5058 114.157 60.2284 115.502C59.9511 116.848 58.6353 117.714 57.2896 117.437Z" fill="#B8D0FC"/>
<path d="M49.5994 112.031C50.0085 113.662 48.7299 119.105 48.2644 119.221C47.7989 119.338 44.1029 115.143 43.6937 113.512C43.2847 111.881 44.2751 110.228 45.9059 109.819C47.5367 109.41 49.1904 110.4 49.5994 112.031Z" fill="#B8D0FC"/>
<path d="M53.5193 123.861C51.9163 123.354 47.9528 119.41 48.0976 118.953C48.2423 118.495 53.7525 117.548 55.3556 118.056C56.9586 118.563 57.8471 120.273 57.3401 121.876C56.8329 123.479 55.1223 124.368 53.5193 123.861Z" fill="#B8D0FC"/>
<path d="M45.0916 117.422C45.5007 119.052 44.222 124.495 43.7566 124.612C43.2911 124.729 39.595 120.534 39.186 118.903C38.7768 117.272 39.7673 115.619 41.3981 115.209C43.0288 114.8 44.6825 115.791 45.0916 117.422Z" fill="#B8D0FC"/>
<path d="M49.0272 129.224C47.4241 128.717 43.4607 124.773 43.6054 124.316C43.7501 123.858 49.2604 122.912 50.8635 123.419C52.4666 123.926 53.3549 125.636 52.8479 127.239C52.3408 128.843 50.6302 129.731 49.0272 129.224Z" fill="#B8D0FC"/>
<path d="M37.5005 123.419C38.4999 124.771 39.3908 130.29 39.0049 130.575C38.619 130.861 33.6036 128.39 32.6042 127.038C31.6048 125.686 31.8907 123.779 33.2428 122.78C34.5948 121.781 36.501 122.067 37.5005 123.419Z" fill="#B8D0FC"/>
<path d="M44.7518 134.636C43.0979 134.333 38.6727 130.916 38.7591 130.444C38.8455 129.972 44.1941 128.344 45.848 128.647C47.5019 128.949 48.5971 130.535 48.2945 132.189C47.9917 133.843 46.4057 134.938 44.7518 134.636Z" fill="#B8D0FC"/>
<path d="M62.684 101.738C62.6141 102.567 61.1436 104.909 60.907 104.889C60.6705 104.869 59.6131 102.313 59.683 101.485C59.7529 100.656 60.4813 100.041 61.3101 100.111C62.1388 100.181 62.7539 100.909 62.684 101.738Z" fill="#B8D0FC"/>
<path d="M63.4998 107.223C62.7083 106.969 60.7574 105.009 60.8301 104.783C60.9029 104.557 63.6307 104.102 64.4224 104.357C65.214 104.611 65.6493 105.46 65.3946 106.251C65.1398 107.043 64.2916 107.478 63.4998 107.223Z" fill="#B8D0FC"/>
<path d="M58.935 104.464C58.9326 105.645 57.1234 109.133 56.7862 109.132C56.4489 109.132 54.6539 105.637 54.6563 104.455C54.6587 103.274 55.6184 102.318 56.8 102.32C57.9815 102.323 58.9374 103.282 58.935 104.464Z" fill="#B8D0FC"/>
<path d="M60.5849 112.473C59.4602 112.111 56.6886 109.326 56.7919 109.005C56.8951 108.684 60.7706 108.038 61.8954 108.4C63.0201 108.762 63.6385 109.967 63.2766 111.092C62.9148 112.217 61.7096 112.835 60.5849 112.473Z" fill="#B8D0FC"/>
</g>
</svg>
