<svg width="24" height="24" viewBox="0 0 24 24" fill="none" xmlns="http://www.w3.org/2000/svg">
<path d="M12.0006 22.75C6.11768 22.75 1.33594 17.93 1.33594 12C1.33594 6.07 6.11768 1.25 12.0006 1.25C17.8836 1.25 22.6653 6.07 22.6653 12C22.6653 17.93 17.8836 22.75 12.0006 22.75ZM12.0006 2.75C6.9411 2.75 2.82403 6.9 2.82403 12C2.82403 17.1 6.9411 21.25 12.0006 21.25C17.0601 21.25 21.1772 17.1 21.1772 12C21.1772 6.9 17.0601 2.75 12.0006 2.75Z" fill="black"/>
<path d="M10.5882 15.5816C10.3898 15.5816 10.2013 15.5016 10.0624 15.3616L7.25484 12.5316C6.96714 12.2416 6.96714 11.7616 7.25484 11.4716C7.54253 11.1816 8.01873 11.1816 8.30642 11.4716L10.5882 13.7716L15.6874 8.63156C15.9751 8.34156 16.4513 8.34156 16.739 8.63156C17.0267 8.92156 17.0267 9.40156 16.739 9.69156L11.114 15.3616C10.9751 15.5016 10.7866 15.5816 10.5882 15.5816Z" fill="black"/>
</svg>
