<svg width="151" height="150" viewBox="0 0 151 150" fill="none" xmlns="http://www.w3.org/2000/svg">
<g clip-path="url(#clip0_297_334)">
<path opacity="0.3" d="M48.4056 76.6608C45.9725 82.1667 25.4366 83.3206 19.8159 73.2008C17.7419 69.4668 17.4396 63.7313 20.2845 60.8799C25.1162 56.0336 38.1857 60.3739 44.7401 68.1875C46.4727 70.2564 49.5917 73.9769 48.4056 76.6608Z" fill="url(#paint0_linear_297_334)"/>
<path opacity="0.3" d="M112.036 59.9194C110.932 57.0668 117.894 49.2736 123.552 50.8897C125.639 51.4859 127.809 53.4382 127.811 55.4842C127.817 58.9617 121.561 62.0977 116.398 61.6455C115.032 61.5284 112.578 61.3128 112.036 59.9194Z" fill="url(#paint1_linear_297_334)"/>
<path opacity="0.3" d="M0.5 146.322C4.15439 132.949 11.1896 115.201 25.3849 110.772C37.6484 106.946 37.9442 116.395 52.8822 118.592C92.2851 124.396 110.743 69.4576 132.282 78.0655C145.995 83.5462 154.32 101.706 148.75 122.067C145.57 133.689 139.329 141.773 135.241 146.241L0.5 146.322Z" fill="url(#paint2_linear_297_334)"/>
<path d="M32.0632 72.693L32.3115 73.1475C32.6178 73.7072 33.078 74.1674 33.6376 74.4736L34.0921 74.722L33.6376 74.9703C33.078 75.2766 32.6178 75.7368 32.3115 76.2964L32.0632 76.751L31.8148 76.2964C31.5086 75.7368 31.0484 75.2766 30.4887 74.9703L30.0342 74.722L30.4887 74.4736C31.0484 74.1674 31.5086 73.7072 31.8148 73.1475L32.0632 72.693Z" fill="#5C74C6"/>
<path d="M102.849 48.0529L103.098 48.5074C103.404 49.067 103.864 49.5272 104.424 49.8335L104.878 50.0818L104.424 50.3302C103.864 50.6364 103.404 51.0966 103.098 51.6563L102.849 52.1108L102.601 51.6563C102.295 51.0966 101.834 50.6364 101.275 50.3302L100.82 50.0818L101.275 49.8335C101.834 49.5272 102.295 49.067 102.601 48.5074L102.849 48.0529Z" fill="#5C74C6"/>
<path d="M100.781 117.331L101.029 117.786C101.336 118.345 101.796 118.806 102.355 119.112L102.81 119.36L102.355 119.609C101.796 119.915 101.336 120.375 101.029 120.935L100.781 121.389L100.533 120.935C100.226 120.375 99.7661 119.915 99.2065 119.609L98.752 119.36L99.2065 119.112C99.7661 118.806 100.226 118.345 100.533 117.786L100.781 117.331Z" fill="#5C74C6"/>
<path d="M81.5333 0.5L81.7816 0.95453C82.0869 1.51473 82.5463 1.97573 83.1054 2.28297L83.5599 2.53133L83.1054 2.77968C82.5457 3.08593 82.0855 3.54613 81.7793 4.10578L81.5309 4.56031L81.2826 4.10578C80.9763 3.54613 80.5161 3.08593 79.9565 2.77968L79.502 2.53133L79.9565 2.28297C80.5161 1.97672 80.9763 1.51653 81.2826 0.956872L81.5333 0.5Z" fill="#5C74C6"/>
<path d="M17.3818 146.511H126.486" stroke="#5C75C9" stroke-width="1.98915" stroke-miterlimit="10" stroke-linecap="round"/>
<path d="M132.429 146.347H144.283" stroke="#5C75C9" stroke-width="1.98915" stroke-miterlimit="10" stroke-linecap="round"/>
<path d="M8.4668 146.347H13.0906" stroke="#5C75C9" stroke-width="1.98915" stroke-miterlimit="10" stroke-linecap="round"/>
<path d="M126.766 20.7442H126.755C126.773 20.7442 126.765 27.0115 126.759 30.2799C126.758 30.7967 126.553 31.2922 126.188 31.6581C125.822 32.0239 125.327 32.2303 124.811 32.2322C121.355 32.248 114.509 32.2591 114.509 32.2591H110.937C110.565 32.2589 110.195 32.3321 109.851 32.4747C109.506 32.6172 109.193 32.8262 108.929 33.0898C108.665 33.3534 108.456 33.6664 108.313 34.0109C108.17 34.3554 108.097 34.7246 108.097 35.0976V23.5586C108.098 22.8123 108.395 22.0969 108.923 21.5697C109.451 21.0425 110.167 20.7466 110.913 20.7471H124.577C125.157 20.7465 125.712 20.5159 126.122 20.106C126.532 19.6961 126.763 19.1403 126.763 18.5605L126.766 20.7442Z" fill="#FA8A68"/>
<path d="M112.443 34.8629V32.3009C112.443 32.2896 112.439 32.2787 112.431 32.2707C112.422 32.2627 112.412 32.2582 112.4 32.2582H110.812C109.881 32.2582 108.77 32.9365 108.39 33.7864C107.817 35.0691 108.141 36.3191 108.933 37.1069C109.196 37.3715 109.508 37.5814 109.853 37.7244C110.197 37.8674 110.567 37.9406 110.939 37.9398H112.397C112.409 37.9398 112.42 37.9353 112.428 37.9273C112.436 37.9193 112.44 37.9084 112.44 37.897V37.347C112.44 36.493 112.443 35.6625 112.443 34.8629Z" fill="url(#paint3_linear_297_334)"/>
<path d="M126.761 18.409C126.781 18.7079 126.74 19.0078 126.639 19.29C126.539 19.5723 126.381 19.8309 126.177 20.0498C125.972 20.2687 125.725 20.4433 125.45 20.5628C125.175 20.6822 124.879 20.744 124.579 20.7443H123.147C123.14 20.7443 123.355 20.7391 123.355 20.7326V16.3806C123.355 16.3742 123.14 16.3689 123.147 16.3689H124.501C125.666 16.3689 126.684 17.2463 126.761 18.409Z" fill="url(#paint4_linear_297_334)"/>
<path d="M119.476 30.214H115.132V28.5434H116.166V25.2598C115.912 25.3154 115.653 25.3399 115.393 25.333C115.306 25.3341 115.218 25.3288 115.132 25.3172V23.7094C115.174 23.7129 115.217 23.7147 115.262 23.7147C115.7 23.7186 116.132 23.6276 116.531 23.4481C116.928 23.2673 117.212 23.0526 117.382 22.8038H118.473V28.544H119.476V30.214Z" fill="white"/>
<path d="M136.29 113.565C135.105 114.844 133.46 115.599 131.718 115.665C129.976 115.731 128.279 115.102 127.001 113.917C128.186 112.639 129.831 111.883 131.573 111.817C133.315 111.751 135.012 112.38 136.29 113.565Z" fill="url(#paint5_linear_297_334)"/>
<path d="M126.111 124.545C124.832 123.36 124.077 121.716 124.011 119.974C123.945 118.232 124.573 116.535 125.759 115.256C127.037 116.441 127.792 118.086 127.858 119.828C127.924 121.57 127.296 123.267 126.111 124.545Z" fill="#FD9271"/>
<path d="M125.885 112.88C125.251 112.293 124.74 111.587 124.38 110.803C124.02 110.018 123.817 109.17 123.785 108.308C123.752 107.445 123.89 106.585 124.19 105.775C124.49 104.966 124.946 104.223 125.533 103.59C126.166 104.177 126.677 104.883 127.038 105.667C127.398 106.452 127.6 107.299 127.633 108.162C127.665 109.025 127.528 109.885 127.228 110.695C126.928 111.504 126.471 112.247 125.885 112.88Z" fill="#5C75C9"/>
<path d="M124.642 114.219C123.456 115.498 121.812 116.253 120.07 116.319C118.328 116.385 116.631 115.757 115.352 114.571C116.538 113.293 118.182 112.538 119.924 112.472C121.666 112.406 123.363 113.034 124.642 114.219Z" fill="url(#paint6_linear_297_334)"/>
<path d="M48.832 19.9436C47.791 21.0663 46.3465 21.7294 44.8165 21.7871C43.2865 21.8448 41.7963 21.2924 40.6736 20.2513C41.7147 19.1286 43.1591 18.4655 44.6891 18.4078C46.2191 18.3501 47.7093 18.9025 48.832 19.9436Z" fill="url(#paint7_linear_297_334)"/>
<path d="M39.8957 29.6074C38.7728 28.5665 38.1094 27.1222 38.0515 25.5922C37.9935 24.0623 38.5457 22.5719 39.5866 21.449C40.7094 22.4899 41.3728 23.9342 41.4308 25.4642C41.4887 26.9942 40.9366 28.4846 39.8957 29.6074Z" fill="#FD9271"/>
<path d="M39.6974 19.3613C38.5746 18.3204 37.9112 16.8761 37.8532 15.3462C37.7952 13.8162 38.3474 12.3258 39.3883 11.2029C40.5112 12.2438 41.1746 13.6881 41.2325 15.2181C41.2905 16.7481 40.7383 18.2385 39.6974 19.3613Z" fill="#5C75C9"/>
<path d="M38.6055 20.5381C37.5646 21.661 36.1203 22.3243 34.5903 22.3823C33.0603 22.4403 31.5699 21.8881 30.4471 20.8472C31.488 19.7244 32.9323 19.061 34.4622 19.003C35.9922 18.945 37.4826 19.4972 38.6055 20.5381Z" fill="url(#paint8_linear_297_334)"/>
<path d="M83.3939 120.568C83.3939 120.568 86.3266 137.316 90.5398 139.497L91.8788 147.662H62.3877L63.623 139.471C63.623 139.471 68.3774 131.582 68.7031 120.567L83.3939 120.568Z" fill="url(#paint9_linear_297_334)"/>
<path d="M103.252 103.351H47.9229L52.0593 77.9835C53.9542 66.4633 63.9122 58.01 75.5876 58.01C87.2631 58.01 97.2211 66.4639 99.116 77.9835L103.252 103.351Z" fill="#5C74C6"/>
<path d="M88.3253 53.0307V107.77H62.8535V53.0307C62.8539 47.8755 64.1196 42.7992 66.5395 38.2473L73.19 25.7425C73.421 25.306 73.7667 24.9407 74.1899 24.6859C74.613 24.4311 75.0976 24.2965 75.5915 24.2965C76.0854 24.2965 76.57 24.4311 76.9931 24.6859C77.4162 24.9407 77.7619 25.306 77.993 25.7425L84.6387 38.2473C87.0588 42.7992 88.3247 47.8755 88.3253 53.0307Z" fill="url(#paint10_linear_297_334)"/>
<path d="M75.5874 55.6513C78.6052 55.6513 81.0517 53.2048 81.0517 50.187C81.0517 47.1691 78.6052 44.7227 75.5874 44.7227C72.5695 44.7227 70.123 47.1691 70.123 50.187C70.123 53.2048 72.5695 55.6513 75.5874 55.6513Z" fill="white"/>
<path d="M75.5879 47.2721L75.9446 47.9246C76.3843 48.7286 77.0454 49.3897 77.8494 49.8294L78.5019 50.1861L77.8494 50.5428C77.0454 50.9826 76.3843 51.6436 75.9446 52.4476L75.5879 53.1001L75.2311 52.4476C74.7914 51.6436 74.1303 50.9826 73.3263 50.5428L72.6738 50.1861L73.3263 49.8294C74.1303 49.3897 74.7914 48.7286 75.2311 47.9246L75.5879 47.2721Z" fill="#2E419B"/>
<path opacity="0.17" d="M62.8516 61.6965L55.5557 103.17H62.8516V61.6965Z" fill="url(#paint11_linear_297_334)"/>
<path opacity="0.43" d="M88.3232 61.6965L95.6197 103.17H88.3232V61.6965Z" fill="url(#paint12_linear_297_334)"/>
<path d="M82.7486 120.568H69.4711C69.1775 120.568 68.8873 120.504 68.6211 120.38C68.3548 120.256 68.1188 120.075 67.9297 119.851C67.7405 119.626 67.6028 119.363 67.526 119.079C67.4493 118.796 67.4355 118.499 67.4855 118.21L69.2884 107.77H82.9307L84.7336 118.21C84.7836 118.499 84.7698 118.796 84.6931 119.079C84.6164 119.363 84.4787 119.626 84.2896 119.851C84.1005 120.075 83.8646 120.256 83.5984 120.38C83.3323 120.504 83.0422 120.568 82.7486 120.568Z" fill="url(#paint13_linear_297_334)"/>
<path d="M75.5873 66.3377C77.0767 66.3377 78.2841 65.1303 78.2841 63.6409C78.2841 62.1516 77.0767 60.9442 75.5873 60.9442C74.098 60.9442 72.8906 62.1516 72.8906 63.6409C72.8906 65.1303 74.098 66.3377 75.5873 66.3377Z" fill="#A1BFF1"/>
<path d="M75.5869 72.6755C76.5787 72.6755 77.3827 71.8714 77.3827 70.8796C77.3827 69.8878 76.5787 69.0837 75.5869 69.0837C74.5951 69.0837 73.791 69.8878 73.791 70.8796C73.791 71.8714 74.5951 72.6755 75.5869 72.6755Z" fill="#5C74C6"/>
<path opacity="0.19" d="M81.5543 107.77H78.3538L75.7988 76.3551L81.5543 107.77Z" fill="url(#paint14_linear_297_334)"/>
<path d="M75.7994 74.1334L72.4074 108.57C72.3574 109.046 72.4079 109.526 72.5556 109.981C72.7032 110.436 72.9448 110.854 73.2647 111.209C73.5845 111.565 73.9754 111.849 74.4121 112.043C74.8487 112.237 75.3214 112.338 75.7994 112.338C76.2773 112.338 76.7498 112.237 77.1863 112.043C77.6228 111.848 78.0136 111.564 78.3333 111.209C78.653 110.854 78.8945 110.435 79.0421 109.981C79.1897 109.526 79.2402 109.046 79.1902 108.57L75.7994 74.1334Z" fill="url(#paint15_linear_297_334)"/>
<path opacity="0.23" d="M70.1711 105.708C70.372 106.581 70.9325 107.185 71.2518 107.77H62.8535V53.0306C62.8539 47.8754 64.1196 42.7991 66.5395 38.2472L73.19 25.7424C73.4193 25.304 73.7651 24.9374 74.1893 24.6828C74.6135 24.4282 75.0997 24.2954 75.5944 24.2991C72.5707 32.5135 70.2403 40.9667 68.6277 49.5701C65.026 68.8114 65.624 85.9635 70.1711 105.708Z" fill="url(#paint16_linear_297_334)"/>
<path d="M129.44 135.437C129.44 142.19 123.965 147.663 117.214 147.663H83.3271C82.3802 147.663 81.451 147.407 80.6374 146.923C79.8239 146.438 79.1562 145.743 78.705 144.911C78.2537 144.078 78.0356 143.139 78.0736 142.193C78.1116 141.247 78.4043 140.329 78.9209 139.535C79.4374 138.741 80.1587 138.102 81.0084 137.684C81.8582 137.267 82.805 137.086 83.7489 137.162C84.6928 137.237 85.5987 137.566 86.3711 138.114C87.1435 138.662 87.7536 139.408 88.1372 140.274C87.8105 138.077 88.342 135.838 89.6214 134.022C90.9009 132.206 92.8301 130.953 95.0091 130.521C97.1881 130.089 99.4496 130.513 101.325 131.704C103.2 132.895 104.545 134.762 105.08 136.918C105.02 136.426 104.991 135.932 104.991 135.437C104.991 132.195 106.279 129.086 108.571 126.794C110.863 124.501 113.972 123.213 117.214 123.213C123.965 123.213 129.44 128.684 129.44 135.437Z" fill="url(#paint17_linear_297_334)"/>
<path d="M73.3142 142.404C73.3153 143.137 73.1618 143.863 72.8637 144.533C72.4521 145.465 71.7785 146.257 70.9249 146.812C70.0713 147.368 69.0745 147.663 68.056 147.662H34.1666C27.4184 147.662 21.9424 142.189 21.9424 135.436C21.9424 135.031 21.9629 134.632 22.001 134.238C22.0692 133.529 22.2004 132.827 22.3928 132.141V132.136C23.8343 126.99 28.56 123.214 34.1661 123.214C34.5679 123.214 34.965 123.232 35.3563 123.272C38.3778 123.569 41.181 124.979 43.2207 127.228C45.2605 129.477 46.3911 132.404 46.3927 135.44C46.3913 135.934 46.3614 136.428 46.3031 136.919C46.8399 134.765 48.185 132.9 50.0596 131.71C51.9342 130.52 54.1947 130.097 56.3727 130.529C58.5506 130.96 60.4791 132.213 61.7586 134.027C63.0381 135.842 63.5705 138.079 63.2454 140.276C63.7339 139.173 64.5863 138.272 65.6599 137.723C66.7335 137.174 67.9631 137.011 69.1428 137.261C70.3224 137.51 71.3806 138.157 72.1399 139.094C72.8993 140.03 73.3139 141.2 73.3142 142.405V142.404Z" fill="url(#paint18_linear_297_334)"/>
<path opacity="0.64" d="M70.8107 146.886C69.9829 147.396 69.0298 147.665 68.0578 147.665H34.1666C27.4184 147.665 21.9424 142.192 21.9424 135.438C21.9424 135.033 21.9629 134.635 22.001 134.24L22.3928 132.143V132.138C22.4285 132.361 24.3562 144.012 34.1174 144.012C43.9736 144.012 46.3007 136.918 46.3007 136.918C46.3007 136.918 45.7659 145.676 53.5738 145.676C61.3816 145.676 63.2431 140.274 63.2431 140.274C63.2431 140.274 65.1813 144.989 70.8107 146.886Z" fill="url(#paint19_linear_297_334)"/>
<path opacity="0.64" d="M80.5664 146.886C81.3943 147.396 82.3473 147.665 83.3194 147.665H117.211C123.959 147.665 129.435 142.192 129.435 135.438C129.435 135.033 129.414 134.634 129.376 134.24L128.984 132.143V132.138C128.949 132.361 127.021 144.011 117.26 144.011C107.404 144.011 105.076 136.918 105.076 136.918C105.076 136.918 105.611 145.676 97.8034 145.676C89.9956 145.676 88.1341 140.274 88.1341 140.274C88.1341 140.274 86.1959 144.989 80.5664 146.886Z" fill="url(#paint20_linear_297_334)"/>
<path opacity="0.58" d="M75.7069 120.568C75.7069 120.568 75.8826 144.525 81.8969 147.665H68.5205C68.5205 147.665 74.9888 143.787 75.7069 120.568Z" fill="url(#paint21_linear_297_334)"/>
</g>
<defs>
<linearGradient id="paint0_linear_297_334" x1="37.4191" y1="89.7405" x2="29.679" y2="54.4483" gradientUnits="userSpaceOnUse">
<stop stop-color="#D6E6FD"/>
<stop offset="1" stop-color="#D2E3FD"/>
</linearGradient>
<linearGradient id="paint1_linear_297_334" x1="111.293" y1="51.2789" x2="126.755" y2="61.1788" gradientUnits="userSpaceOnUse">
<stop stop-color="#D6E6FD"/>
<stop offset="1" stop-color="#D2E3FD"/>
</linearGradient>
<linearGradient id="paint2_linear_297_334" x1="-0.239782" y1="143.252" x2="145.795" y2="108.044" gradientUnits="userSpaceOnUse">
<stop stop-color="#D6E6FD"/>
<stop offset="1" stop-color="#D2E3FD"/>
</linearGradient>
<linearGradient id="paint3_linear_297_334" x1="110.517" y1="30.9192" x2="110.173" y2="38.6573" gradientUnits="userSpaceOnUse">
<stop stop-color="#373282"/>
<stop offset="1" stop-color="#2E419B"/>
</linearGradient>
<linearGradient id="paint4_linear_297_334" x1="124.956" y1="24.513" x2="124.956" y2="18.4389" gradientUnits="userSpaceOnUse">
<stop stop-color="#373282"/>
<stop offset="1" stop-color="#2E419B"/>
</linearGradient>
<linearGradient id="paint5_linear_297_334" x1="133.88" y1="111.331" x2="129.412" y2="116.151" gradientUnits="userSpaceOnUse">
<stop stop-color="#373282"/>
<stop offset="0.44" stop-color="#323A8F"/>
<stop offset="1" stop-color="#2E419B"/>
</linearGradient>
<linearGradient id="paint6_linear_297_334" x1="122.231" y1="111.985" x2="117.763" y2="116.806" gradientUnits="userSpaceOnUse">
<stop stop-color="#373282"/>
<stop offset="0.44" stop-color="#323A8F"/>
<stop offset="1" stop-color="#2E419B"/>
</linearGradient>
<linearGradient id="paint7_linear_297_334" x1="46.7142" y1="17.9806" x2="42.7889" y2="22.2136" gradientUnits="userSpaceOnUse">
<stop stop-color="#373282"/>
<stop offset="0.44" stop-color="#323A8F"/>
<stop offset="1" stop-color="#2E419B"/>
</linearGradient>
<linearGradient id="paint8_linear_297_334" x1="36.4882" y1="18.5754" x2="32.5635" y2="22.8091" gradientUnits="userSpaceOnUse">
<stop stop-color="#373282"/>
<stop offset="0.44" stop-color="#323A8F"/>
<stop offset="1" stop-color="#2E419B"/>
</linearGradient>
<linearGradient id="paint9_linear_297_334" x1="75.2118" y1="101.339" x2="76.8875" y2="141.738" gradientUnits="userSpaceOnUse">
<stop stop-color="#FD9271"/>
<stop offset="1" stop-color="#FED4C4"/>
</linearGradient>
<linearGradient id="paint10_linear_297_334" x1="62.8535" y1="66.0346" x2="88.3253" y2="66.0346" gradientUnits="userSpaceOnUse">
<stop stop-color="#D6E6FD"/>
<stop offset="1" stop-color="#D2E3FD"/>
</linearGradient>
<linearGradient id="paint11_linear_297_334" x1="59.2036" y1="111.175" x2="59.2036" y2="62.1077" gradientUnits="userSpaceOnUse">
<stop stop-color="#5C75C9"/>
<stop offset="1" stop-color="#2E419B"/>
</linearGradient>
<linearGradient id="paint12_linear_297_334" x1="91.9718" y1="111.175" x2="91.9718" y2="62.1077" gradientUnits="userSpaceOnUse">
<stop stop-color="#5C75C9"/>
<stop offset="1" stop-color="#2E419B"/>
</linearGradient>
<linearGradient id="paint13_linear_297_334" x1="76.1099" y1="104.455" x2="76.1099" y2="120.812" gradientUnits="userSpaceOnUse">
<stop stop-color="#373282"/>
<stop offset="0.44" stop-color="#323A8F"/>
<stop offset="1" stop-color="#2E419B"/>
</linearGradient>
<linearGradient id="paint14_linear_297_334" x1="78.6765" y1="107.77" x2="78.6765" y2="76.3551" gradientUnits="userSpaceOnUse">
<stop stop-color="#5C75C9"/>
<stop offset="1" stop-color="#2E419B"/>
</linearGradient>
<linearGradient id="paint15_linear_297_334" x1="75.7994" y1="108.468" x2="75.7994" y2="72.1812" gradientUnits="userSpaceOnUse">
<stop stop-color="#5C75C9"/>
<stop offset="1" stop-color="#2E419B"/>
</linearGradient>
<linearGradient id="paint16_linear_297_334" x1="69.2228" y1="111.029" x2="69.2228" y2="29.1285" gradientUnits="userSpaceOnUse">
<stop stop-color="#5C75C9"/>
<stop offset="1" stop-color="#D2E3FD"/>
</linearGradient>
<linearGradient id="paint17_linear_297_334" x1="100.623" y1="64.6684" x2="103.866" y2="141.468" gradientUnits="userSpaceOnUse">
<stop stop-color="#FD9271"/>
<stop offset="1" stop-color="#FED4C4"/>
</linearGradient>
<linearGradient id="paint18_linear_297_334" x1="44.5904" y1="67.0331" x2="47.833" y2="143.835" gradientUnits="userSpaceOnUse">
<stop stop-color="#FD9271"/>
<stop offset="1" stop-color="#FED4C4"/>
</linearGradient>
<linearGradient id="paint19_linear_297_334" x1="19.1197" y1="113.562" x2="59.0557" y2="157.466" gradientUnits="userSpaceOnUse">
<stop stop-color="#FD9271"/>
<stop offset="1" stop-color="#FED4C4"/>
</linearGradient>
<linearGradient id="paint20_linear_297_334" x1="132.257" y1="113.561" x2="92.3215" y2="157.466" gradientUnits="userSpaceOnUse">
<stop stop-color="#FD9271"/>
<stop offset="1" stop-color="#FED4C4"/>
</linearGradient>
<linearGradient id="paint21_linear_297_334" x1="75.209" y1="200.545" x2="75.209" y2="101.809" gradientUnits="userSpaceOnUse">
<stop stop-color="#FD9271"/>
<stop offset="1" stop-color="#FED4C4"/>
</linearGradient>
<clipPath id="clip0_297_334">
<rect width="150" height="149.036" fill="white" transform="translate(0.5 0.5)"/>
</clipPath>
</defs>
</svg>
