<svg width="250" height="227" viewBox="0 0 250 227" fill="none" xmlns="http://www.w3.org/2000/svg">
<path d="M79.0596 196.41H220.315" stroke="#CDD6E1" stroke-width="2.88571" stroke-miterlimit="10" stroke-linecap="round" stroke-linejoin="round"/>
<path d="M234.113 196.41H248.103" stroke="#CDD6E1" stroke-width="2.88571" stroke-miterlimit="10" stroke-linecap="round" stroke-linejoin="round"/>
<path d="M82.1606 185.678C86.4636 185.678 89.952 182.189 89.952 177.886C89.952 173.583 86.4636 170.095 82.1606 170.095C77.8575 170.095 74.3691 173.583 74.3691 177.886C74.3691 182.189 77.8575 185.678 82.1606 185.678Z" fill="#B8BFCD"/>
<path d="M158.438 153.261C158.534 165.574 159.592 181.156 159.977 182.792C159.881 184.523 156.225 190.006 153.243 186.255C150.262 182.503 144.202 174.423 146.991 159.225C149.781 144.123 158.438 153.261 158.438 153.261Z" fill="#B8BFCD"/>
<path d="M81.1007 185.581C81.1007 185.678 81.1007 185.87 81.1969 185.966C81.1969 186.062 81.2931 186.255 81.2931 186.351C81.3893 186.447 81.3893 186.639 81.4855 186.736C81.5816 186.832 81.6778 186.928 81.774 187.12C82.255 187.794 83.1207 188.371 84.0826 188.948C84.275 189.044 84.5635 189.14 84.7559 189.237C84.8521 189.333 85.0445 189.333 85.1407 189.429C85.2369 189.525 85.4293 189.525 85.5255 189.621L85.9102 189.718C86.3912 189.91 86.9683 190.102 87.5454 190.199C87.834 190.295 88.0264 190.295 88.315 190.391C88.5074 190.391 88.6997 190.487 88.9883 190.487C89.1807 190.487 89.3731 190.583 89.5654 190.583C91.1045 190.776 92.5473 190.679 93.7978 190.199C98.1264 188.563 99.8578 185.197 99.8578 185.197C99.8578 185.197 101.012 185.485 102.84 185.678C106.303 186.159 112.074 186.832 117.076 186.351C118.711 186.159 120.443 185.774 122.27 185.293C122.847 185.1 123.424 184.908 124.098 184.716C125.252 184.331 126.31 183.85 127.464 183.369C130.542 182.022 133.428 180.195 135.833 178.175C136.122 177.982 136.41 177.694 136.699 177.501C138.045 176.251 139.2 174.904 140.065 173.558C141.797 170.576 144.105 168.075 146.606 165.67C150.358 162.111 154.782 159.033 158.822 155.762C160.073 154.8 161.323 153.742 162.478 152.781C166.229 149.51 169.596 145.662 171.904 141.238C174.405 136.428 174.405 131.907 174.02 126.617C174.02 126.328 173.443 122.865 173.636 122.769C175.367 121.615 176.618 119.98 177.291 117.96C178.83 113.92 178.253 108.725 176.425 105.359C176.233 104.974 176.04 104.589 175.848 104.301C173.924 100.934 171.616 96.9901 169.019 94.393L164.305 89.6797H123.328C123.328 89.6797 122.847 92.4692 122.174 95.9321C122.078 96.2206 122.078 96.5092 121.982 96.7978C121.885 97.3749 121.789 97.9521 121.597 98.5292C121.501 98.8178 121.501 99.1063 121.404 99.3949C121.404 99.4911 121.404 99.4911 121.308 99.5873C121.212 100.261 121.02 100.838 120.923 101.511C120.539 103.435 120.058 105.166 119.481 106.609C119.481 106.705 119.384 106.898 119.384 106.994C119.096 107.763 118.807 108.437 118.519 108.918C116.21 112.669 104.475 123.442 96.2988 129.502C88.1226 135.562 84.3712 145.855 82.255 162.496C79.8502 179.04 80.7159 182.407 81.1007 185.581Z" fill="#EAEEF9"/>
<path d="M154.975 181.06C160.458 180.483 160.362 181.06 163.44 181.06C166.518 181.06 167.287 182.6 168.442 184.042C169.115 185.004 170.077 187.794 170.654 189.814C171.039 190.968 170.173 192.026 169.019 192.122C165.556 192.122 159.304 192.219 158.245 192.122C156.706 191.93 153.436 191.545 151.993 189.14C151.512 188.275 151.224 187.12 150.935 185.966C150.55 183.754 151.993 181.541 154.302 181.253L154.975 181.06Z" fill="#EAEEF9"/>
<path opacity="0.3" d="M81.1046 185.581C81.3932 188.756 89.2808 191.738 93.6093 190.102C98.0341 188.467 99.6693 185.1 99.6693 185.1C99.6693 185.1 109.192 187.024 116.887 186.351C122.659 185.774 130.45 182.407 135.548 178.079L134.875 163.458C134.875 163.458 134.298 150.664 133.721 145.085C133.24 139.506 137.664 139.602 137.472 132.388C137.184 125.174 140.069 112.381 143.821 100.645L130.739 90.834L121.793 95.9321C120.927 100.742 119.485 106.802 118.234 109.014C115.925 112.765 104.19 123.539 96.0141 129.599C87.8379 135.659 84.0865 145.951 81.9703 162.592C79.8541 179.04 80.7199 182.407 81.1046 185.581Z" fill="#BFC8D6"/>
<path opacity="0.4" d="M81.1017 185.581C81.1017 185.677 81.1017 185.87 81.1979 185.966C81.1979 186.062 81.2941 186.255 81.2941 186.351C81.3903 186.447 81.3903 186.639 81.4865 186.736C81.5827 186.832 81.6788 186.928 81.775 187.12C82.256 187.794 83.1217 188.371 84.0836 188.948C84.276 189.044 84.5646 189.14 84.7569 189.236C84.8531 189.333 85.0455 189.333 85.1417 189.429C85.2379 189.525 85.4303 189.525 85.5265 189.621L85.9112 189.717C86.3922 189.91 86.9693 190.102 87.5465 190.198C87.835 190.295 88.0274 190.295 88.316 190.391C89.6626 189.525 90.4322 188.948 90.4322 188.948C90.4322 188.948 90.4322 188.948 89.855 185.485C89.6626 184.427 89.4703 182.984 89.1817 181.06C87.9312 173.077 88.7969 157.301 99.474 157.782C98.3198 149.702 102.745 140.757 106.592 135.081C110.536 129.502 113.422 132.58 116.788 136.428C117.173 134.793 115.442 128.252 113.325 122.48C117.654 127.675 121.502 129.502 131.794 130.464C127.177 126.617 126.6 124.597 122.848 116.132C127.562 118.344 137.181 120.941 142.952 121.711C156.9 123.539 168.923 122.865 177.003 117.959C178.542 113.92 177.965 108.725 176.138 105.359C175.945 104.974 175.753 104.589 175.561 104.3C168.154 103.627 155.553 102.569 143.722 101.511C135.064 100.741 126.792 99.9719 121.213 99.491C121.213 99.5872 121.213 99.5872 121.117 99.6833C121.021 100.357 120.828 100.934 120.732 101.607C120.347 103.531 119.866 105.262 119.289 106.705C119.289 106.801 119.193 106.994 119.193 107.09C118.904 107.86 118.616 108.533 118.327 109.014C116.019 112.765 104.284 123.539 96.1074 129.599C87.9312 135.659 84.1798 145.951 82.0636 162.592C79.8512 179.04 80.7169 182.407 81.1017 185.581Z" fill="#BFC8D6"/>
<path d="M136.41 191.257C136.41 191.257 135.641 179.618 135.545 178.079C135.448 177.02 129.196 182.022 123.425 171.345C117.653 160.668 116.788 158.744 116.98 156.051C115.248 169.614 120.635 178.752 121.693 183.658C122.751 188.563 123.713 188.371 123.713 188.371L133.428 190.295L136.41 191.257Z" fill="#B8BFCD"/>
<path d="M126.791 183.369C132.274 182.696 132.178 183.369 135.256 183.369C138.334 183.369 139.103 185.004 140.258 186.543C140.931 187.505 141.893 190.583 142.47 192.796C142.855 194.046 141.989 195.2 140.835 195.2C137.372 195.2 129.677 195.104 128.618 195.008C127.079 194.816 125.252 194.527 123.905 191.93C123.424 190.968 123.136 189.718 122.847 188.467C122.462 186.062 123.905 183.754 126.214 183.369H126.791Z" fill="#EAEEF9"/>
<path d="M101.785 185.004C104.286 186.543 105.729 190.198 106.498 192.796C106.883 194.046 106.017 195.2 104.863 195.2C101.4 195.2 93.7051 195.104 92.647 195.008C86.587 194.238 85.9136 187.601 90.5308 185.004C93.4165 183.273 98.8993 183.177 101.785 185.004Z" fill="#EAEEF9"/>
<path d="M168.388 110.196C167.531 110.998 166.565 111.719 165.585 112.345C164.252 113.215 162.81 114.004 161.354 114.698C156.892 116.792 152.145 118.247 147.125 118.478C142.976 118.681 138.568 118.436 134.501 117.17C133.086 116.789 131.645 116.218 130.393 115.619C123.184 112.081 119.076 109.17 118.506 101.089C117.935 93.0087 118.303 86.7376 118.303 86.7376C118.303 86.0574 119.038 85.0781 119.242 84.4659C119.623 83.7314 119.895 82.9152 120.276 82.1807C120.943 80.7252 121.691 79.1609 122.467 77.7871C124.181 74.8218 126.345 72.2782 129.093 70.4285C133.528 67.4635 138.901 66.3079 144.166 65.7508C147.988 65.3023 151.947 65.126 155.783 66.1331C159.116 67.0177 161.972 68.6505 164.529 70.9089C167.304 73.3307 169.48 76.3237 171.915 79.0855C171.915 79.0855 174.023 85.0032 175.736 92.9206C177.449 100.838 174.306 104.687 168.388 110.196Z" fill="#EAEEF9"/>
<path d="M136.381 97.6632C135.374 98.7785 134.435 102.41 128.899 101.063C121.036 99.076 120.412 89.2543 124.072 85.6227C130.616 79.0531 138.505 80.5504 140.681 87.6244C142.925 95.1745 138.408 95.5277 136.381 97.6632Z" fill="#BFC8D6"/>
<path d="M121.01 74.3996C123.119 71.4752 126.234 72.1965 125.159 75.5564C123.404 80.9568 119.894 83.5954 119.619 103.456C119.537 106.966 107.54 99.8363 107.038 87.4708C106.902 85.1582 109.691 84.2743 109.691 84.2743C111.365 83.744 117.691 79.0516 121.01 74.3996Z" fill="#989FB0"/>
<path d="M164.624 106.944C164.964 109.325 164.623 111.705 163.752 113.773C162.596 114.521 161.331 115.187 160.066 115.854C156.148 117.676 151.958 118.954 147.713 119.171C144.149 119.389 140.218 119.075 136.668 118.027C135.035 116.123 134.043 113.932 133.676 111.361C132.561 103.553 138.615 96.2758 147.186 95.0526C155.661 93.8429 163.509 99.1356 164.624 106.944Z" fill="#BFC8D6"/>
<path d="M131.948 97.2276C135.051 96.7847 137.207 93.9103 136.764 90.8074C136.321 87.7045 133.447 85.5481 130.344 85.991C127.241 86.4339 125.085 89.3083 125.527 92.4112C125.97 95.5141 128.845 97.6705 131.948 97.2276Z" fill="white"/>
<path d="M136.274 91.4599C136.613 93.8406 134.899 96.1257 132.518 96.4655C130.138 96.8053 127.853 95.091 127.513 92.7104C127.948 93.0369 128.465 93.2546 129.036 93.1731C130.084 93.0236 130.914 92.0306 130.751 90.8879C130.601 89.8404 129.622 89.1057 128.561 89.16C129.227 88.3847 130.221 87.8543 131.268 87.7048C133.744 87.3514 135.92 88.9841 136.274 91.4599Z" fill="#989FB0"/>
<path d="M163.181 92.7694C166.284 92.3265 168.44 89.4521 167.997 86.3492C167.555 83.2463 164.68 81.0899 161.577 81.5328C158.474 81.9757 156.318 84.8501 156.761 87.953C157.204 91.0559 160.078 93.2123 163.181 92.7694Z" fill="white"/>
<path d="M157.414 88.4427C157.754 90.8234 160.039 92.5377 162.42 92.1979C164.8 91.8581 166.515 89.5729 166.175 87.1923C165.848 87.6276 165.413 87.9812 164.842 88.0628C163.794 88.2123 162.72 87.4912 162.557 86.3484C162.407 85.301 163.142 84.3216 164.176 84.0769C163.319 83.519 162.217 83.2877 161.169 83.4372C158.789 83.777 157.061 85.9669 157.414 88.4427Z" fill="#989FB0"/>
<path d="M147.32 96.0049C146.558 96.1137 145.81 96.3176 145.075 96.6168C144.164 97.0384 142.804 97.7184 142.98 98.9563C143.198 100.48 147.02 101.392 147.972 101.256C148.925 101.12 152.353 99.2703 152.122 97.6515C151.904 96.1279 150.408 95.8557 149.143 95.8419C148.558 95.8282 147.878 95.8281 147.32 96.0049Z" fill="#989FB0"/>
<path d="M148.311 100.916L147.957 100.481L147.739 100.997C147.739 100.997 147.929 104.371 147.317 105.527C147.888 106.126 148.365 106.058 148.541 105.936C148.841 105.99 149.317 105.922 149.603 105.201C148.895 104.33 148.311 100.916 148.311 100.916Z" fill="#989FB0"/>
<path d="M128.847 79.5973C127.568 80.1684 126.48 80.7124 125.636 81.6102C124.793 82.5079 124.194 83.7593 123.99 85.0516C124.003 85.1468 123.908 85.1604 123.813 85.174C123.718 85.1876 123.704 85.0924 123.704 85.0924C123.609 84.4258 123.786 83.6232 123.99 83.0111C124.18 82.3038 124.575 81.6644 125.078 81.1068C125.582 80.5491 126.099 80.0866 126.725 79.7058C127.364 79.4202 128.112 79.2163 128.806 79.3116C128.915 79.3932 129.024 79.4749 128.847 79.5973C128.942 79.5837 128.942 79.5837 128.847 79.5973Z" fill="#989FB0"/>
<path d="M161.13 74.9896C162.517 75.1803 163.715 75.3981 164.776 76.0239C165.837 76.6498 166.761 77.6838 167.319 78.8674C167.333 78.9626 167.428 78.949 167.523 78.9354C167.618 78.9218 167.605 78.8266 167.605 78.8266C167.51 78.16 167.115 77.439 166.748 76.9084C166.367 76.2826 165.809 75.7792 165.17 75.3846C164.531 74.9901 163.905 74.6907 163.198 74.5002C162.504 74.4049 161.729 74.4184 161.089 74.704C161.008 74.8128 161.021 74.908 161.13 74.9896C161.13 74.9896 161.035 75.0032 161.13 74.9896Z" fill="#989FB0"/>
<path d="M166.585 66.9233C163.742 64.7056 160.953 66.2696 162.925 69.1946C166.121 73.8882 170.229 75.4394 176.049 94.4304C177.11 97.777 186.633 87.5757 183.656 75.5635C183.139 73.3053 180.214 73.2369 180.214 73.2369C178.46 73.1959 171.073 70.4607 166.585 66.9233Z" fill="#989FB0"/>
<path d="M2.89551 198.567H55.4154C57.0506 198.567 57.3392 200.972 55.704 201.261C40.8907 204.339 22.9993 205.589 33.2916 211.842C50.7983 222.423 78.1163 227.809 110.629 221.749C139.87 216.363 140.255 137.102 141.602 115.363C141.89 111.515 145.065 108.437 148.912 108.437H151.413C155.453 108.437 158.82 111.708 158.82 115.748V128.829" stroke="#AAB2C2" stroke-width="3.84761" stroke-miterlimit="10" stroke-linecap="round" stroke-linejoin="round"/>
<path d="M159.247 110.335C160.351 115.016 156.541 117.298 151.392 118.513C146.243 119.727 141.814 119.388 140.71 114.707C139.606 110.026 142.842 105.31 147.991 104.095C153.14 102.881 158.143 105.654 159.247 110.335Z" fill="#989FB0"/>
<path d="M154.299 153.262C153.337 153.262 152.567 152.492 152.567 151.531V144.797C152.567 143.835 153.337 143.066 154.299 143.066C155.261 143.066 156.03 143.835 156.03 144.797V151.531C156.03 152.589 155.261 153.262 154.299 153.262Z" fill="#989FB0"/>
<path d="M163.244 153.262C162.282 153.262 161.513 152.492 161.513 151.53V144.797C161.513 143.835 162.282 143.065 163.244 143.065C164.206 143.065 164.976 143.835 164.976 144.797V151.53C164.976 152.588 164.206 153.262 163.244 153.262Z" fill="#989FB0"/>
<path d="M167.766 144.893H150.067V142.873C150.067 137.967 154.011 129.503 158.917 129.503C163.823 129.503 167.766 137.967 167.766 142.873V144.893Z" fill="#989FB0"/>
<path d="M242.502 148.26H206.046C204.507 148.26 203.353 147.009 203.353 145.566V106.705C203.353 105.166 204.603 104.012 206.046 104.012H242.502C244.041 104.012 245.195 105.263 245.195 106.705V145.566C245.291 147.009 244.041 148.26 242.502 148.26Z" fill="#EAEEF9"/>
<path d="M237.981 125.367C237.981 129.887 235.768 134.024 232.402 136.525H215.953C212.586 134.024 210.374 129.984 210.374 125.367C210.374 120.846 212.586 116.709 215.953 114.208H232.402C235.768 116.806 237.981 120.846 237.981 125.367Z" fill="#CCD3DE"/>
<path d="M219.033 126.136C218.359 126.136 217.782 125.559 217.782 124.885V120.749C217.782 120.076 218.359 119.499 219.033 119.499C219.706 119.499 220.283 120.076 220.283 120.749V124.885C220.283 125.559 219.706 126.136 219.033 126.136Z" fill="#989FB0"/>
<path d="M229.128 126.136C228.455 126.136 227.878 125.559 227.878 124.885V120.749C227.878 120.076 228.455 119.499 229.128 119.499C229.802 119.499 230.379 120.076 230.379 120.749V124.885C230.379 125.559 229.802 126.136 229.128 126.136Z" fill="#989FB0"/>
<path d="M225.284 132.1H222.783C222.206 132.1 221.629 131.619 221.629 130.945V129.695C221.629 128.348 222.687 127.29 224.034 127.29C225.38 127.29 226.438 128.348 226.438 129.695V130.945C226.438 131.523 225.957 132.1 225.284 132.1Z" fill="#989FB0"/>
<path d="M207.778 109.88C208.681 109.88 209.413 109.148 209.413 108.245C209.413 107.341 208.681 106.609 207.778 106.609C206.875 106.609 206.143 107.341 206.143 108.245C206.143 109.148 206.875 109.88 207.778 109.88Z" fill="#D2DAE7"/>
<path d="M240.965 109.88C241.868 109.88 242.601 109.148 242.601 108.245C242.601 107.341 241.868 106.609 240.965 106.609C240.062 106.609 239.33 107.341 239.33 108.245C239.33 109.148 240.062 109.88 240.965 109.88Z" fill="#D2DAE7"/>
<path d="M207.778 145.759C208.681 145.759 209.413 145.027 209.413 144.124C209.413 143.22 208.681 142.488 207.778 142.488C206.875 142.488 206.143 143.22 206.143 144.124C206.143 145.027 206.875 145.759 207.778 145.759Z" fill="#D2DAE7"/>
<path d="M240.965 145.759C241.868 145.759 242.601 145.027 242.601 144.124C242.601 143.22 241.868 142.488 240.965 142.488C240.062 142.488 239.33 143.22 239.33 144.124C239.33 145.027 240.062 145.759 240.965 145.759Z" fill="#D2DAE7"/>
<path d="M131.416 0.71402L137.314 2.86868L138.843 41.4297L135.639 40.0923L131.416 0.71402Z" fill="#B8BFCD"/>
<path d="M135.931 44.476L138.843 45.8876V49.6769L135.931 48.4881V44.476Z" fill="#B8BFCD"/>
<path d="M143.796 20.1061L149.694 22.0379V46.8537L146.417 45.5163L143.796 20.1061Z" fill="#B8BFCD"/>
<path d="M146.705 49.6769L149.69 51.0143V54.5806L146.705 53.4661V49.6769Z" fill="#B8BFCD"/>
</svg>
