<svg width="139" height="112" viewBox="0 0 139 112" fill="none" xmlns="http://www.w3.org/2000/svg">
<g clip-path="url(#clip0_161_1280)">
<path opacity="0.22" d="M39.1447 59.9797C36.9219 65.0107 18.1601 66.0644 13.0248 56.819C11.1297 53.4075 10.8537 48.1678 13.4505 45.5628C17.8644 41.1351 29.805 45.1005 35.7936 52.2394C37.3783 54.1289 40.2286 57.5263 39.1447 59.9797Z" fill="url(#paint0_linear_161_1280)"/>
<path opacity="0.34" d="M136.421 87.5448C133.518 98.162 127.815 105.548 124.079 109.629L80.012 109.657L68.8336 109.663L41.5524 109.679L17.6612 109.693L0.978516 109.703C4.31771 97.4832 10.7444 81.271 23.7139 77.2246C34.9184 73.7293 35.1889 82.3595 48.835 84.3704C84.8338 89.671 101.698 39.4791 121.376 47.3439C133.903 52.3502 141.509 68.9414 136.421 87.5448Z" fill="url(#paint1_linear_161_1280)"/>
<path d="M20.1553 110.482H111.919" stroke="#5C75C9" stroke-width="1.74352" stroke-miterlimit="10" stroke-linecap="round"/>
<path d="M116.919 110.332H126.889" stroke="#5C75C9" stroke-width="1.74352" stroke-miterlimit="10" stroke-linecap="round"/>
<path d="M12.6582 110.332H16.5471" stroke="#5C75C9" stroke-width="1.74352" stroke-miterlimit="10" stroke-linecap="round"/>
<path d="M107.608 12.1813L108.527 13.0767L104.303 16.2492C104.194 16.3309 104.065 16.3805 103.93 16.3923C103.794 16.404 103.658 16.3776 103.537 16.3159C103.416 16.2543 103.315 16.1599 103.245 16.0434C103.175 15.927 103.139 15.7933 103.141 15.6574L103.232 9.88531L97.9598 6.71364C97.8422 6.64291 97.7484 6.53881 97.6902 6.41459C97.6321 6.29037 97.6122 6.15165 97.6331 6.01609C97.654 5.88052 97.7148 5.75424 97.8077 5.65332C97.9006 5.5524 98.0214 5.48141 98.1548 5.44937L120.852 0.00228882L107.608 12.1813Z" fill="url(#paint2_linear_161_1280)"/>
<path d="M103.229 9.88488L120.852 -0.0022583L108.525 13.0762L104.245 16.2914C104.141 16.369 104.018 16.416 103.889 16.4271C103.761 16.4382 103.631 16.413 103.516 16.3544C103.401 16.2957 103.304 16.2059 103.238 16.0951C103.171 15.9844 103.137 15.8572 103.139 15.7279L103.229 9.88488Z" fill="#A1BFF1"/>
<path d="M120.852 9.15527e-05L114.778 16.4636C114.741 16.5633 114.682 16.6532 114.604 16.7262C114.527 16.7993 114.434 16.8535 114.333 16.8848C114.231 16.9161 114.124 16.9235 114.019 16.9065C113.914 16.8895 113.814 16.8485 113.728 16.7867L108.527 13.0763L108.131 12.6904C108.064 12.6249 108.01 12.5463 107.974 12.4595C107.938 12.3726 107.921 12.2794 107.922 12.1855C107.923 12.0915 107.944 11.9988 107.982 11.913C108.02 11.8273 108.076 11.7502 108.145 11.6866L120.852 9.15527e-05Z" fill="url(#paint3_linear_161_1280)"/>
<path d="M104.226 61.5612V76.3278H40.3818V61.4179C40.3818 55.9479 44.9835 51.3682 50.9666 50.5141H91.6137C96.3348 50.5141 100.47 52.8161 102.631 56.2001C103.646 57.7912 104.226 59.6208 104.226 61.5612Z" fill="#FED4C4"/>
<path d="M64.0391 61.418V76.3279H40.3818V61.418C40.3818 56.6969 43.8085 52.6404 48.5941 51.0676C49.3673 50.8145 50.1612 50.6294 50.9666 50.5142C51.3744 50.4515 51.7905 50.4112 52.2102 50.3888C52.6305 50.4112 53.0461 50.4515 53.4562 50.5142C54.7124 50.6917 55.9377 51.0432 57.0971 51.5583C61.208 53.3833 64.0391 57.1272 64.0391 61.418Z" fill="url(#paint4_linear_161_1280)"/>
<path opacity="0.71" d="M64.8462 61.2422V76.3279H64.0383V61.418C64.0383 55.948 59.4385 51.3684 53.4554 50.5142C53.0434 50.4515 52.6315 50.4112 52.2094 50.3888C51.7892 50.4112 51.3736 50.4515 50.9658 50.5142C50.1605 50.6297 49.3668 50.8152 48.5938 51.0685C49.6157 50.6566 50.6835 50.3692 51.7741 50.2126C52.182 50.1499 52.598 50.1078 53.0178 50.0853C53.4377 50.1076 53.853 50.15 54.2637 50.2126C60.2468 51.0754 64.8462 55.7096 64.8462 61.2422Z" fill="url(#paint5_linear_161_1280)"/>
<path d="M64.039 61.418V76.3279H61.0102V61.418C61.0102 56.0309 56.55 51.5075 50.6982 50.5545C50.787 50.5403 50.8758 50.5261 50.9669 50.5142C51.3748 50.4515 51.7909 50.4112 52.2106 50.3888C52.6308 50.4112 53.0464 50.4515 53.4566 50.5142C59.4392 51.3684 64.039 55.948 64.039 61.418Z" fill="url(#paint6_linear_161_1280)"/>
<path d="M64.0412 76.3279L57.5194 85.6021C57.3973 85.7757 57.2701 85.9454 57.1376 86.1111C56.1577 87.3394 54.9137 88.3312 53.4979 89.0127C52.0821 89.6942 50.531 90.048 48.9597 90.0477H30.7344L39.7179 77.2722L40.3821 76.327L64.0412 76.3279Z" fill="url(#paint7_linear_161_1280)"/>
<path d="M87.0839 76.3279H80.4023V109.997H87.0839V76.3279Z" fill="#5C74C6"/>
<path d="M89.1695 60.9803C91.6184 60.9803 93.6036 58.9951 93.6036 56.5462C93.6036 54.0973 91.6184 52.1121 89.1695 52.1121C86.7206 52.1121 84.7354 54.0973 84.7354 56.5462C84.7354 58.9951 86.7206 60.9803 89.1695 60.9803Z" fill="url(#paint8_linear_161_1280)"/>
<path d="M87.0839 76.3279V82.652L80.4023 80.9945V76.3279H87.0839Z" fill="url(#paint9_linear_161_1280)"/>
<path opacity="0.71" d="M104.227 67.5846H64.04V76.3278H104.227V67.5846Z" fill="url(#paint10_linear_161_1280)"/>
<path d="M64.0411 76.3279L57.5192 85.6021C57.3971 85.7757 57.2699 85.9454 57.1375 86.1111C55.6773 83.2841 54.4336 79.8373 51.4272 79.4981C48.8638 79.2075 47.7195 81.4829 44.9657 81.1803C42.7933 80.9419 41.0544 79.2578 39.7178 77.2731L40.382 76.3279H64.0411Z" fill="url(#paint11_linear_161_1280)"/>
<path opacity="0.43" d="M70.6243 73.1383C71.277 73.1383 71.8061 72.6092 71.8061 71.9564C71.8061 71.3037 71.277 70.7746 70.6243 70.7746C69.9715 70.7746 69.4424 71.3037 69.4424 71.9564C69.4424 72.6092 69.9715 73.1383 70.6243 73.1383Z" fill="#FA8A68"/>
<path opacity="0.43" d="M75.3508 73.1383C76.0036 73.1383 76.5327 72.6092 76.5327 71.9564C76.5327 71.3037 76.0036 70.7746 75.3508 70.7746C74.6981 70.7746 74.1689 71.3037 74.1689 71.9564C74.1689 72.6092 74.6981 73.1383 75.3508 73.1383Z" fill="#FA8A68"/>
<path opacity="0.43" d="M80.1965 73.1383C80.8493 73.1383 81.3784 72.6092 81.3784 71.9564C81.3784 71.3037 80.8493 70.7746 80.1965 70.7746C79.5438 70.7746 79.0146 71.3037 79.0146 71.9564C79.0146 72.6092 79.5438 73.1383 80.1965 73.1383Z" fill="#FA8A68"/>
<path opacity="0.57" d="M57.0971 51.5583L56.8792 52.239C55.8918 52.2573 51.401 52.4491 48.1963 55.9746C45.3533 59.1023 44.5637 63.7163 45.6724 67.1814C46.5952 70.0605 48.3923 70.7838 48.0956 72.9361C47.9098 74.2809 47.0071 75.466 45.8747 76.3284H40.3818V61.418C40.3818 56.6969 43.8085 52.6404 48.5941 51.0676C49.3673 50.8145 50.1612 50.6294 50.9666 50.5142C51.3744 50.4515 51.7905 50.4112 52.2102 50.3888C52.6305 50.4112 53.0461 50.4515 53.4562 50.5142C54.7124 50.6917 55.9377 51.0432 57.0971 51.5583Z" fill="url(#paint12_linear_161_1280)"/>
<path d="M59.7956 53.1677C58.1194 51.9826 56.0879 51.1605 53.8629 50.8474C53.453 50.7864 53.0377 50.7454 52.6169 50.7243C52.1967 50.7463 51.7811 50.787 51.3732 50.8474C50.568 50.9613 49.7741 51.1451 49.0008 51.3967C44.2151 52.9494 40.7885 56.9537 40.7885 61.6121V76.3302H40.3848V61.418C40.3848 56.6969 43.8114 52.6404 48.597 51.0676C49.3703 50.8145 50.1641 50.6294 50.9695 50.5142C51.3773 50.4515 51.7934 50.4112 52.2132 50.3888C52.6334 50.4112 53.049 50.4515 53.4591 50.5142C55.8618 50.8575 58.0448 51.8009 59.7956 53.1677Z" fill="url(#paint13_linear_161_1280)"/>
<path d="M89.1689 38.2853V55.8061" stroke="url(#paint14_linear_161_1280)" stroke-width="2.44524" stroke-miterlimit="10" stroke-linecap="round"/>
<path d="M74.9502 41.4491L78.7091 43.9552C79.1759 44.2667 79.7294 44.4223 80.2901 44.3996C80.8508 44.3769 81.3899 44.1771 81.83 43.8289L82.7542 43.0965C83.3641 42.6139 84.1089 42.3326 84.8856 42.2916C85.6623 42.2506 86.4325 42.4519 87.0899 42.8677L90.4986 45.0231V35.5365L86.8647 34.2214C86.2771 34.0086 85.6457 33.9459 85.0277 34.039C84.4097 34.132 83.8248 34.3779 83.3259 34.7542L81.9929 35.7613C81.5555 36.0915 81.0266 36.2782 80.4788 36.2958C79.931 36.3134 79.3912 36.1611 78.9334 35.8597L74.9511 33.2391L74.9502 41.4491Z" fill="#FA8A68"/>
<path d="M19.7101 16.4681C15.3643 16.6425 11.8516 20.2453 11.7807 24.5938C11.7474 26.4082 12.3136 28.1828 13.3915 29.6427L12.2824 33.0034H19.8616C24.45 33.0034 28.3613 29.2499 28.3233 24.662C28.314 23.5529 28.0817 22.457 27.6403 21.4395C27.1988 20.422 26.5572 19.5037 25.7536 18.7393C24.95 17.9748 24.0009 17.3798 22.9626 16.9896C21.9244 16.5994 20.8183 16.422 19.7101 16.4681Z" fill="url(#paint15_linear_161_1280)"/>
<path d="M28.4354 16.468C32.7812 16.6424 36.2938 20.2453 36.3648 24.5938C36.3981 26.4081 35.8319 28.1828 34.754 29.6427L35.8645 33.0038H28.2853C23.6969 33.0038 19.7855 29.2504 19.8235 24.6625C19.8328 23.5534 20.065 22.4576 20.5063 21.4402C20.9477 20.4227 21.5891 19.5044 22.3926 18.7399C23.1961 17.9754 24.1451 17.3803 25.1832 16.99C26.2213 16.5997 27.3273 16.4222 28.4354 16.468Z" fill="url(#paint16_linear_161_1280)"/>
<path d="M31.9036 27.8653H30.0053C29.9984 28.2577 29.8378 28.6317 29.5578 28.9067C29.2779 29.1818 28.9012 29.3359 28.5087 29.3359C28.1163 29.3359 27.7395 29.1818 27.4596 28.9067C27.1797 28.6317 27.019 28.2577 27.0122 27.8653H25.092C25.0559 27.8652 25.0205 27.8555 24.9895 27.8371C24.9585 27.8187 24.933 27.7923 24.9156 27.7608C24.8983 27.7292 24.8897 27.6935 24.8907 27.6575C24.8918 27.6215 24.9025 27.5864 24.9217 27.5559L25.7982 26.1694V23.5603C25.7982 22.8577 26.0773 22.184 26.5741 21.6872C27.0709 21.1904 27.7446 20.9113 28.4472 20.9113C29.1492 20.9117 29.8223 21.1907 30.3187 21.687C30.8151 22.1834 31.0942 22.8565 31.0947 23.5584V26.1634L32.066 27.5463C32.0875 27.5763 32.1003 27.6117 32.103 27.6485C32.1057 27.6853 32.0983 27.7222 32.0816 27.7551C32.0648 27.788 32.0394 27.8156 32.008 27.8351C31.9766 27.8545 31.9405 27.865 31.9036 27.8653Z" fill="white"/>
<path d="M125.448 92.0959C124.571 93.0418 123.355 93.6006 122.066 93.6495C120.777 93.6983 119.522 93.2332 118.576 92.3564C119.453 91.4105 120.669 90.8517 121.958 90.8028C123.247 90.754 124.502 91.2191 125.448 92.0959Z" fill="url(#paint17_linear_161_1280)"/>
<path d="M117.915 100.222C116.969 99.345 116.41 98.1283 116.361 96.8395C116.312 95.5507 116.777 94.2952 117.654 93.3494C118.6 94.2262 119.159 95.4428 119.208 96.7316C119.257 98.0205 118.792 99.2759 117.915 100.222Z" fill="#FD9271"/>
<path d="M117.748 91.5899C116.802 90.7131 116.243 89.4965 116.194 88.2076C116.145 86.9188 116.611 85.6634 117.487 84.7175C118.433 85.5943 118.992 86.8109 119.041 88.0998C119.09 89.3886 118.625 90.644 117.748 91.5899Z" fill="#5C75C9"/>
<path d="M116.829 92.581C115.952 93.5269 114.735 94.0857 113.447 94.1346C112.158 94.1835 110.903 93.7184 109.957 92.8418C110.834 91.8959 112.05 91.3371 113.339 91.2882C114.628 91.2394 115.883 91.7046 116.829 92.5814L116.829 92.581Z" fill="url(#paint18_linear_161_1280)"/>
<path d="M46.5586 58.1634L46.6795 70.0591C46.6908 71.2419 46.2321 72.3809 45.4041 73.2257C44.576 74.0704 43.4465 74.5519 42.2637 74.5642L21.3125 74.7766L21.1917 62.8827C21.185 62.2979 21.2938 61.7176 21.5118 61.1749C21.7297 60.6322 22.0526 60.1379 22.4619 59.7202C22.5127 59.6685 22.5649 59.6167 22.6198 59.5673C22.6259 59.5614 22.6325 59.556 22.6395 59.5513C22.6411 59.5478 22.6438 59.5451 22.6473 59.5435C23.4556 58.8026 24.5097 58.3874 25.6061 58.3781L46.5586 58.1634Z" fill="url(#paint19_linear_161_1280)"/>
<path d="M41.3343 78.0045C41.3343 78.0219 41.3274 78.0389 41.3251 78.054C41.3239 78.0475 41.3239 78.0408 41.3251 78.0343L41.3343 78.0045Z" fill="#98CFF4"/>
<path opacity="0.36" d="M45.1067 73.5028C44.3137 74.1799 43.3074 74.5559 42.2646 74.5647L21.3135 74.7771L33.9388 66.4724L45.1067 73.5028Z" fill="url(#paint20_linear_161_1280)"/>
<path d="M46.1146 58.4555L35.718 67.5928L34.9147 68.3014L34.8506 68.3573C34.6046 68.5737 34.2891 68.6946 33.9614 68.698C33.6338 68.7014 33.3158 68.587 33.0654 68.3756L32.9739 68.2959L32.1838 67.6313L22.623 59.5692C23.4349 58.8134 24.5002 58.3888 25.6093 58.379L45.3227 58.179C45.611 58.175 45.8915 58.2729 46.1146 58.4555Z" fill="url(#paint21_linear_161_1280)"/>
<path opacity="0.66" d="M46.4467 58.1667L35.4491 70.9879C34.854 71.7203 33.1311 71.7354 32.5195 71.0177L22.6406 59.5513C22.6422 59.5479 22.6449 59.5451 22.6484 59.5435L32.9718 68.2941C33.1879 68.4768 33.4512 68.5949 33.7314 68.6349C34.0116 68.6749 34.2974 68.6352 34.556 68.5202C34.6837 68.4658 46.4467 58.1667 46.4467 58.1667Z" fill="url(#paint22_linear_161_1280)"/>
<path d="M69.4994 94.8768L69.7305 95.2998C70.0157 95.8215 70.4446 96.2505 70.9664 96.5356L71.3894 96.7668L70.9664 96.998C70.4446 97.2831 70.0157 97.712 69.7305 98.2338L69.4994 98.6568L69.2682 98.2338C68.9831 97.712 68.5541 97.2831 68.0323 96.998L67.6094 96.7668L68.0323 96.5356C68.5541 96.2505 68.9831 95.8215 69.2682 95.2998L69.4994 94.8768Z" fill="#5C74C6"/>
<path d="M106.604 39.6992L106.924 40.2892C107.322 41.0159 107.919 41.6133 108.646 42.0107L109.236 42.3312L108.646 42.6516C107.919 43.049 107.322 43.6465 106.924 44.3731L106.604 44.9631L106.283 44.3731C105.886 43.6465 105.288 43.049 104.562 42.6516L103.972 42.3312L104.562 42.0107C105.288 41.6133 105.886 41.0159 106.283 40.2892L106.604 39.6992Z" fill="#5C74C6"/>
<path d="M36.5722 41.9344L36.8927 42.5244C37.2901 43.2511 37.8875 43.8485 38.6142 44.246L39.2042 44.5664L38.6142 44.8868C37.8875 45.2842 37.2901 45.8817 36.8927 46.6084L36.5722 47.1984L36.2518 46.6084C35.8533 45.8822 35.2549 45.2855 34.5275 44.8891L33.9375 44.5687L34.5275 44.2483C35.2542 43.8508 35.8517 43.2534 36.2491 42.5267L36.5722 41.9344Z" fill="#5C74C6"/>
</g>
<defs>
<linearGradient id="paint0_linear_161_1280" x1="29.1077" y1="71.9297" x2="22.0363" y2="39.6867" gradientUnits="userSpaceOnUse">
<stop stop-color="#D6E6FD"/>
<stop offset="1" stop-color="#D2E3FD"/>
</linearGradient>
<linearGradient id="paint1_linear_161_1280" x1="0.302893" y1="106.897" x2="133.722" y2="74.7318" gradientUnits="userSpaceOnUse">
<stop stop-color="#D6E6FD"/>
<stop offset="1" stop-color="#D2E3FD"/>
</linearGradient>
<linearGradient id="paint2_linear_161_1280" x1="118.912" y1="2.49723" x2="89.6095" y2="16.3355" gradientUnits="userSpaceOnUse">
<stop stop-color="#D6E6FD"/>
<stop offset="1" stop-color="#D2E3FD"/>
</linearGradient>
<linearGradient id="paint3_linear_161_1280" x1="120.198" y1="3.57235" x2="93.8839" y2="35.2883" gradientUnits="userSpaceOnUse">
<stop stop-color="#D6E6FD"/>
<stop offset="1" stop-color="#D2E3FD"/>
</linearGradient>
<linearGradient id="paint4_linear_161_1280" x1="73.5363" y1="79.441" x2="42.0375" y2="59.6534" gradientUnits="userSpaceOnUse">
<stop stop-color="#373282"/>
<stop offset="1" stop-color="#2E419B"/>
</linearGradient>
<linearGradient id="paint5_linear_161_1280" x1="56.72" y1="78.2193" x2="56.72" y2="48.5331" gradientUnits="userSpaceOnUse">
<stop stop-color="#FD9271"/>
<stop offset="1" stop-color="#EB8B75" stop-opacity="0"/>
</linearGradient>
<linearGradient id="paint6_linear_161_1280" x1="57.3684" y1="67.0463" x2="57.3684" y2="100.465" gradientUnits="userSpaceOnUse">
<stop stop-color="#373282"/>
<stop offset="1" stop-color="#2E419B"/>
</linearGradient>
<linearGradient id="paint7_linear_161_1280" x1="41.7054" y1="91.4982" x2="57.816" y2="67.938" gradientUnits="userSpaceOnUse">
<stop stop-color="#5C75C9"/>
<stop offset="1" stop-color="#2E419B"/>
</linearGradient>
<linearGradient id="paint8_linear_161_1280" x1="89.1695" y1="50.1937" x2="89.1695" y2="71.4721" gradientUnits="userSpaceOnUse">
<stop stop-color="#FD9271"/>
<stop offset="1" stop-color="#EB8B75" stop-opacity="0"/>
</linearGradient>
<linearGradient id="paint9_linear_161_1280" x1="90.8896" y1="82.0244" x2="78.8753" y2="76.3704" gradientUnits="userSpaceOnUse">
<stop stop-color="#5C75C9"/>
<stop offset="1" stop-color="#2E419B"/>
</linearGradient>
<linearGradient id="paint10_linear_161_1280" x1="48.0746" y1="71.9565" x2="106.228" y2="71.9565" gradientUnits="userSpaceOnUse">
<stop stop-color="#FD9271"/>
<stop offset="1" stop-color="#EB8B75" stop-opacity="0"/>
</linearGradient>
<linearGradient id="paint11_linear_161_1280" x1="43.6534" y1="95.8334" x2="53.9511" y2="72.0068" gradientUnits="userSpaceOnUse">
<stop stop-color="#5C75C9"/>
<stop offset="1" stop-color="#2E419B"/>
</linearGradient>
<linearGradient id="paint12_linear_161_1280" x1="50.5995" y1="51.0241" x2="38.4845" y2="80.9071" gradientUnits="userSpaceOnUse">
<stop stop-color="#373282"/>
<stop offset="1" stop-color="#2E419B"/>
</linearGradient>
<linearGradient id="paint13_linear_161_1280" x1="53.2673" y1="45.7313" x2="49.8851" y2="57.291" gradientUnits="userSpaceOnUse">
<stop stop-color="#373282"/>
<stop offset="1" stop-color="#2E419B"/>
</linearGradient>
<linearGradient id="paint14_linear_161_1280" x1="-nan" y1="-nan" x2="-nan" y2="-nan" gradientUnits="userSpaceOnUse">
<stop stop-color="#373282"/>
<stop offset="1" stop-color="#2E419B"/>
</linearGradient>
<linearGradient id="paint15_linear_161_1280" x1="28.322" y1="24.7325" x2="11.7793" y2="24.7325" gradientUnits="userSpaceOnUse">
<stop stop-color="#373282"/>
<stop offset="1" stop-color="#2E419B"/>
</linearGradient>
<linearGradient id="paint16_linear_161_1280" x1="25.6862" y1="31.3734" x2="40.224" y2="6.84134" gradientUnits="userSpaceOnUse">
<stop stop-color="#FD9271"/>
<stop offset="1" stop-color="#FCA790"/>
</linearGradient>
<linearGradient id="paint17_linear_161_1280" x1="123.664" y1="90.444" x2="120.358" y2="94.0104" gradientUnits="userSpaceOnUse">
<stop stop-color="#373282"/>
<stop offset="0.44" stop-color="#323A8F"/>
<stop offset="1" stop-color="#2E419B"/>
</linearGradient>
<linearGradient id="paint18_linear_161_1280" x1="115.046" y1="90.928" x2="111.74" y2="94.4944" gradientUnits="userSpaceOnUse">
<stop stop-color="#373282"/>
<stop offset="0.44" stop-color="#323A8F"/>
<stop offset="1" stop-color="#2E419B"/>
</linearGradient>
<linearGradient id="paint19_linear_161_1280" x1="21.2202" y1="66.6149" x2="46.6319" y2="66.3607" gradientUnits="userSpaceOnUse">
<stop stop-color="#D6E6FD"/>
<stop offset="1" stop-color="#D2E3FD"/>
</linearGradient>
<linearGradient id="paint20_linear_161_1280" x1="29.8082" y1="78.217" x2="39.8891" y2="66.1379" gradientUnits="userSpaceOnUse">
<stop stop-color="#A1BFF1"/>
<stop offset="1" stop-color="#A9BAE4" stop-opacity="0"/>
</linearGradient>
<linearGradient id="paint21_linear_161_1280" x1="22.652" y1="63.6241" x2="46.1554" y2="63.389" gradientUnits="userSpaceOnUse">
<stop stop-color="#D6E6FD"/>
<stop offset="1" stop-color="#D2E3FD"/>
</linearGradient>
<linearGradient id="paint22_linear_161_1280" x1="24.7629" y1="67.4812" x2="48.0772" y2="55.7956" gradientUnits="userSpaceOnUse">
<stop stop-color="#A1BFF1"/>
<stop offset="1" stop-color="#A9BAE4" stop-opacity="0"/>
</linearGradient>
<clipPath id="clip0_161_1280">
<rect width="137.04" height="111.353" fill="white" transform="translate(0.979492)"/>
</clipPath>
</defs>
</svg>
