<svg width="139" height="133" viewBox="0 0 139 133" fill="none" xmlns="http://www.w3.org/2000/svg">
<g clip-path="url(#clip0_160_1217)">
<path opacity="0.51" d="M117.954 80.896C117.17 82.3776 116.167 83.7326 114.979 84.9155L112.986 86.9137L111.454 88.4434L109.913 89.9816L88.9243 110.97L79.3583 120.539C72.7883 127.108 62.1333 127.108 55.5665 120.539L31.8868 96.856L25.0119 89.9816L23.4737 88.4434L19.9485 84.9155C18.8985 83.8673 17.9917 82.6851 17.2514 81.3994C13.5539 74.9732 14.454 66.6239 19.9485 61.1295L29.5172 51.5667L35.2161 45.8683L53.572 27.5043L55.5643 25.512C57.1264 23.9497 58.981 22.7103 61.0221 21.8647C63.0632 21.0192 65.2509 20.584 67.4603 20.584C69.6696 20.584 71.8573 21.0192 73.8984 21.8647C75.9395 22.7103 77.7941 23.9497 79.3562 25.512L114.974 61.1295C120.327 66.4801 121.322 74.5422 117.954 80.896Z" fill="url(#paint0_linear_160_1217)"/>
<path opacity="0.48" d="M117.954 80.8965C117.169 82.3782 116.166 83.7335 114.978 84.9171L112.985 86.9148L111.451 88.4433L109.913 89.9821L88.9236 110.971L79.3592 120.541C72.7908 127.109 62.1363 127.109 55.5679 120.541C116.76 87.9152 67.459 20.5844 67.459 20.5844C69.6691 20.5812 71.8582 21.0149 73.9001 21.8605C75.9421 22.7062 77.7968 23.9471 79.3576 25.512L84.3207 30.4751L114.976 61.1327C120.326 66.4806 121.32 74.5422 117.954 80.8965Z" fill="url(#paint1_linear_160_1217)"/>
<path opacity="0.62" d="M91.5865 55.632V77.8025C91.5865 78.7704 91.2019 79.6987 90.5175 80.3832C89.833 81.0677 88.9047 81.4522 87.9367 81.4522H17.8616C17.6572 81.4518 17.4532 81.4339 17.2519 81.3985C13.5544 74.9723 14.4545 66.6231 19.9489 61.1286L29.5176 51.5658L35.2166 45.8674H80.8053C81.7726 45.8674 82.7004 46.2514 83.3847 46.9351C84.0691 47.6187 84.454 48.5461 84.455 49.5134V51.9823H87.9394C88.9069 51.983 89.8346 52.3679 90.5184 53.0522C91.2023 53.7366 91.5865 54.6645 91.5865 55.632Z" fill="url(#paint2_linear_160_1217)"/>
<path d="M74.4984 52.1743H4.42003C2.40553 52.1743 0.772461 53.8074 0.772461 55.8219V77.9934C0.772461 80.0079 2.40553 81.641 4.42003 81.641H74.4984C76.5129 81.641 78.1459 80.0079 78.1459 77.9934V55.8219C78.1459 53.8074 76.5129 52.1743 74.4984 52.1743Z" fill="url(#paint3_linear_160_1217)"/>
<path d="M81.6326 58.2913H11.5543C9.53981 58.2913 7.90674 59.9243 7.90674 61.9388V84.1103C7.90674 86.1248 9.53981 87.7579 11.5543 87.7579H81.6326C83.6471 87.7579 85.2802 86.1248 85.2802 84.1103V61.9388C85.2802 59.9243 83.6471 58.2913 81.6326 58.2913Z" fill="url(#paint4_linear_160_1217)"/>
<path d="M34.3193 63.3897H15.0493V82.6597H34.3193V63.3897Z" fill="white"/>
<path d="M57.2392 63.3897H37.9692V82.6597H57.2392V63.3897Z" fill="white"/>
<path d="M80.1586 63.3897H60.8887V82.6597H80.1586V63.3897Z" fill="white"/>
<path d="M34.4143 31.6725H18.8064C10.0218 31.6725 2.53077 24.4879 2.60752 15.7029C2.6789 6.80076 10.0932 -0.348389 19.0967 0.0133626C27.4159 0.344521 34.1443 7.2441 34.2769 15.5703C34.3423 19.0441 33.2585 22.4422 31.1939 25.2367L34.4143 31.6725Z" fill="#FD9271"/>
<path d="M34.4143 31.6725H18.8064C10.0218 31.6725 2.53077 24.4879 2.60752 15.7029C2.6789 6.80076 10.0932 -0.348389 19.0967 0.0133626C0.110681 18.6124 34.4143 31.6725 34.4143 31.6725Z" fill="url(#paint5_linear_160_1217)"/>
<path d="M18.1853 22.7528C18.0137 22.9518 17.8015 23.1117 17.563 23.2219C17.3245 23.332 17.0652 23.3898 16.8025 23.3915C16.5398 23.3931 16.2798 23.3385 16.04 23.2313C15.8002 23.1241 15.586 22.9668 15.412 22.77L11.4939 18.3394C10.9637 17.7189 10.7015 16.9133 10.7653 16.0996C10.829 15.2859 11.2133 14.5308 11.8337 14.0005L16.8016 19.8132L23.2761 12.1767C23.8039 11.5542 24.5573 11.1669 25.3707 11.0998C26.1841 11.0328 26.9908 11.2916 27.6133 11.8193L18.1853 22.7528Z" fill="white"/>
<path d="M71.5186 73.5977C72.4085 72.8999 73.2898 73.0384 73.9253 73.383C74.5608 73.7276 76.3507 76.4815 76.3287 77.0536C76.3067 77.6258 74.2258 79.3723 73.5914 79.3036C72.7482 79.2123 71.1145 76.7944 70.7688 76.0457C70.4232 75.2969 70.4865 74.4081 71.5186 73.5977Z" fill="url(#paint6_linear_160_1217)"/>
<path d="M138.228 121.681L128.447 127.488L128.441 127.491L121.937 131.356L121.934 131.358L119.171 133C119.171 133 111.567 127.02 109.378 126.215C107.19 125.41 103.869 124.014 102.377 123.446C100.342 122.687 92.1259 117.381 91.5495 116.791C89.2233 114.41 86.2708 112.014 84.0311 110.353C84.0141 110.343 83.9978 110.331 83.9822 110.319C82.5417 109.255 81.4033 108.501 80.9256 108.263C80.6629 108.139 80.3932 108.031 80.1178 107.938C78.0783 107.277 75.5777 107.453 75.1869 106.423C75.1734 106.383 75.1628 106.342 75.1553 106.3C74.8993 105.003 78.1072 101.518 82.1364 102.551C82.8986 102.746 83.7407 103.068 84.6054 103.463L84.608 103.466H84.6134C88.1354 105.082 92.0486 107.911 92.4539 108.207L92.4882 108.233C92.4882 108.233 90.7202 104.817 89.2534 102.787C87.7871 100.769 80.8268 91.6606 79.426 89.7311C78.0251 87.8016 72.4395 80.0164 71.7868 78.6993C71.1341 77.3822 69.5068 75.1397 71.5184 73.5961C73.3787 72.1588 75.6415 73.6423 77.2077 75.6115C78.7739 77.5807 83.855 83.9066 85.8387 86.2987C87.1805 87.9261 89.3634 90.249 90.9564 91.9944C90.9564 90.5163 90.8099 89.131 92.4834 88.0764C93.5031 87.435 94.4816 87.464 95.321 87.7742H95.3237C96.8647 88.3437 97.9376 89.8561 97.9376 89.8561C97.9376 89.8561 97.1325 87.3776 99.6481 86.1329C102.098 84.9194 104.015 88.0538 104.108 88.2004C104.076 88.0855 103.517 86.047 104.99 85.1673C107.236 83.8191 110.855 89.1552 110.855 89.1552C112.155 90.7364 114.619 94.254 115.453 95.5207C116.767 97.5018 121.316 108.482 122.434 109.925C123.552 111.369 138.228 121.681 138.228 121.681Z" fill="#FCD1C4"/>
<path d="M80.476 106.501C80.6145 106.644 80.4358 107.811 80.271 107.932C80.2205 107.945 80.1681 107.948 80.1164 107.941C78.0769 107.28 75.5779 107.455 75.1855 106.425C75.4174 106.187 75.8178 105.913 76.3411 105.728C77.2637 105.404 80.3445 106.359 80.476 106.501Z" fill="url(#paint7_linear_160_1217)"/>
<path opacity="0.2" d="M128.447 127.488L128.441 127.491L121.937 131.356L121.934 131.358L119.171 133C119.171 133 111.567 127.02 109.378 126.215C107.19 125.41 103.869 124.014 102.377 123.446C100.342 122.687 92.1259 117.381 91.5495 116.791C89.2233 114.41 86.2708 112.014 84.0311 110.353C84.0141 110.343 83.9978 110.331 83.9822 110.319C82.5417 109.255 81.4033 108.501 80.9256 108.263C80.6629 108.139 80.3932 108.031 80.1178 107.938C78.0783 107.277 75.5777 107.453 75.1869 106.423C75.1734 106.383 75.1628 106.342 75.1553 106.3C74.8993 105.003 78.1072 101.518 82.1364 102.551C82.8986 102.746 83.7407 103.068 84.6054 103.463L84.608 103.466H84.6134C88.1354 105.082 92.0486 107.911 92.4539 108.207L92.4882 108.233C92.4882 108.233 90.7202 104.817 89.2534 102.787C87.7871 100.769 80.8268 91.6606 79.426 89.7311C78.0251 87.8016 72.4395 80.0164 71.7868 78.6993C71.1341 77.3822 69.5068 75.1397 71.5184 73.5961C73.3787 72.1588 75.6415 73.6423 77.2077 75.6115C78.7739 77.5807 83.855 83.9066 85.8387 86.2987C87.1805 87.9261 89.3634 90.249 90.9564 91.9944C90.9564 90.5163 90.8099 89.131 92.4834 88.0764C93.5031 87.435 94.4816 87.464 95.321 87.7742H95.3237C96.1546 91.5264 97.2527 98.967 101.275 108.864C106.737 122.302 128.447 127.488 128.447 127.488Z" fill="url(#paint8_linear_160_1217)"/>
<path d="M121.937 131.356L121.935 131.358L119.171 133C119.171 133 111.567 127.02 109.379 126.215C107.19 125.41 103.87 124.014 102.378 123.446C100.342 122.687 92.1261 117.381 91.5497 116.79C89.2235 114.41 86.271 112.014 84.0312 110.353C104.149 123.731 105.811 121.331 110.331 121.88C115.077 122.457 121.937 131.356 121.937 131.356Z" fill="url(#paint9_linear_160_1217)"/>
<path d="M94.4127 114.262C94.2689 114.113 92.2819 111.974 91.3335 109.783C90.3615 107.546 84.7855 103.593 84.6084 103.469H84.6138C88.1357 105.085 92.049 107.914 92.4542 108.21C92.4376 111.206 94.2979 114.087 94.4127 114.262Z" fill="url(#paint10_linear_160_1217)"/>
</g>
<defs>
<linearGradient id="paint0_linear_160_1217" x1="67.4624" y1="32.8388" x2="67.4624" y2="182.548" gradientUnits="userSpaceOnUse">
<stop stop-color="#D6E6FD"/>
<stop offset="1" stop-color="#D2E3FD"/>
</linearGradient>
<linearGradient id="paint1_linear_160_1217" x1="87.7342" y1="32.8394" x2="87.7342" y2="182.548" gradientUnits="userSpaceOnUse">
<stop stop-color="#D6E6FD"/>
<stop offset="1" stop-color="#D2E3FD"/>
</linearGradient>
<linearGradient id="paint2_linear_160_1217" x1="15.0213" y1="63.6598" x2="91.5865" y2="63.6598" gradientUnits="userSpaceOnUse">
<stop stop-color="#D6E6FD"/>
<stop offset="1" stop-color="#D2E3FD"/>
</linearGradient>
<linearGradient id="paint3_linear_160_1217" x1="-19.8919" y1="66.9074" x2="178.499" y2="66.9074" gradientUnits="userSpaceOnUse">
<stop stop-color="#5C75C9"/>
<stop offset="1" stop-color="#2E419B"/>
</linearGradient>
<linearGradient id="paint4_linear_160_1217" x1="-102.811" y1="73.0248" x2="116.565" y2="73.0248" gradientUnits="userSpaceOnUse">
<stop stop-color="#5C75C9"/>
<stop offset="1" stop-color="#D2E3FD"/>
</linearGradient>
<linearGradient id="paint5_linear_160_1217" x1="18.395" y1="24.052" x2="6.16508" y2="-31.6605" gradientUnits="userSpaceOnUse">
<stop stop-color="#FD9271"/>
<stop offset="1" stop-color="#FED4C4"/>
</linearGradient>
<linearGradient id="paint6_linear_160_1217" x1="70.472" y1="75.4637" x2="76.3603" y2="76.9635" gradientUnits="userSpaceOnUse">
<stop stop-color="#FD9271"/>
<stop offset="1" stop-color="#FED4C4" stop-opacity="0"/>
</linearGradient>
<linearGradient id="paint7_linear_160_1217" x1="84.3098" y1="109.113" x2="69.0868" y2="103.253" gradientUnits="userSpaceOnUse">
<stop stop-color="#FD9271"/>
<stop offset="1" stop-color="#FED4C4" stop-opacity="0"/>
</linearGradient>
<linearGradient id="paint8_linear_160_1217" x1="185.844" y1="137.43" x2="-22.9293" y2="57.0651" gradientUnits="userSpaceOnUse">
<stop stop-color="#FD9271"/>
<stop offset="1" stop-color="#FED4C4" stop-opacity="0"/>
</linearGradient>
<linearGradient id="paint9_linear_160_1217" x1="65.0892" y1="92.5446" x2="136.777" y2="145.065" gradientUnits="userSpaceOnUse">
<stop stop-color="#FD9271"/>
<stop offset="1" stop-color="#FED4C4" stop-opacity="0"/>
</linearGradient>
<linearGradient id="paint10_linear_160_1217" x1="99.7134" y1="116.466" x2="84.5456" y2="103.834" gradientUnits="userSpaceOnUse">
<stop stop-color="#FD9271"/>
<stop offset="1" stop-color="#FED4C4" stop-opacity="0"/>
</linearGradient>
<clipPath id="clip0_160_1217">
<rect width="137.455" height="133" fill="white" transform="translate(0.772461)"/>
</clipPath>
</defs>
</svg>
