<svg width="219" height="185" viewBox="0 0 219 185" fill="none" xmlns="http://www.w3.org/2000/svg">
<path d="M211.143 94.8223C211.143 119.348 201.125 141.456 185.063 157.346C169.345 173.064 147.583 182.563 123.575 182.563C99.7399 182.563 77.9774 172.891 62.0873 157.346C46.0245 141.456 36.0068 119.348 36.0068 94.8223C36.0068 46.2885 75.2139 7.08142 123.575 7.08142C171.936 7.08142 211.143 46.4612 211.143 94.8223Z" fill="#F1F3F9" stroke="#D6DCE8" stroke-width="3.45436" stroke-miterlimit="10"/>
<path d="M203.544 37.3071C207.455 37.3071 210.626 34.1366 210.626 30.2256C210.626 26.3146 207.455 23.1442 203.544 23.1442C199.633 23.1442 196.463 26.3146 196.463 30.2256C196.463 34.1366 199.633 37.3071 203.544 37.3071Z" fill="#F1F3F9"/>
<path d="M213.909 9.67222C216.58 9.67222 218.745 7.50702 218.745 4.83611C218.745 2.1652 216.58 0 213.909 0C211.238 0 209.073 2.1652 209.073 4.83611C209.073 7.50702 211.238 9.67222 213.909 9.67222Z" fill="#F1F3F9"/>
<path d="M38.7717 37.1343C41.4426 37.1343 43.6078 34.9692 43.6078 32.2982C43.6078 29.6273 41.4426 27.4621 38.7717 27.4621C36.1007 27.4621 33.9355 29.6273 33.9355 32.2982C33.9355 34.9692 36.1007 37.1343 38.7717 37.1343Z" fill="#F1F3F9"/>
<path d="M9.23721 130.402C14.1975 130.402 18.2186 126.381 18.2186 121.421C18.2186 116.461 14.1975 112.44 9.23721 112.44C4.27695 112.44 0.255859 116.461 0.255859 121.421C0.255859 126.381 4.27695 130.402 9.23721 130.402Z" fill="#F1F3F9"/>
<path d="M201.849 44.5314V140.226C201.849 144.208 198.661 147.364 194.753 147.364H50.6109C46.7026 147.364 43.4629 144.157 43.4629 140.226V44.5314C43.4629 40.6002 46.6512 37.3931 50.6109 37.3931H194.753C198.661 37.3931 201.849 40.6002 201.849 44.5314Z" fill="white" stroke="#D6DCE8" stroke-width="3.45436" stroke-miterlimit="10" stroke-linejoin="round"/>
<path d="M201.849 44.5314V55.2388H43.4629V44.5314C43.4629 40.6002 46.6512 37.3931 50.6109 37.3931H194.753C198.661 37.3931 201.849 40.6002 201.849 44.5314Z" fill="#D6DCE8"/>
<path d="M53.4397 48.9798C54.9165 48.9798 56.1137 47.7755 56.1137 46.29C56.1137 44.8044 54.9165 43.6002 53.4397 43.6002C51.9628 43.6002 50.7656 44.8044 50.7656 46.29C50.7656 47.7755 51.9628 48.9798 53.4397 48.9798Z" fill="#AAB2C5"/>
<path d="M62.1799 48.9798C63.6568 48.9798 64.854 47.7755 64.854 46.29C64.854 44.8044 63.6568 43.6002 62.1799 43.6002C60.7031 43.6002 59.5059 44.8044 59.5059 46.29C59.5059 47.7755 60.7031 48.9798 62.1799 48.9798Z" fill="#AAB2C5"/>
<path d="M70.8733 48.9798C72.3501 48.9798 73.5473 47.7755 73.5473 46.29C73.5473 44.8044 72.3501 43.6002 70.8733 43.6002C69.3964 43.6002 68.1992 44.8044 68.1992 46.29C68.1992 47.7755 69.3964 48.9798 70.8733 48.9798Z" fill="#AAB2C5"/>
<path d="M76.5283 120.414H168.783" stroke="#D5DDEA" stroke-width="3.45436" stroke-miterlimit="10" stroke-linecap="round" stroke-linejoin="round"/>
<path d="M91.0811 130.294H154.23" stroke="#D5DDEA" stroke-width="3.45436" stroke-miterlimit="10" stroke-linecap="round" stroke-linejoin="round"/>
<path d="M107.228 92.5853V97.9132H103.988V103.034H97.9201V97.9132H84.5498V91.8094L96.943 74.481H104.04V92.6371H107.228V92.5853ZM97.9201 81.5676L90.2065 92.5853H97.9201V81.5676Z" fill="#AAB2C5"/>
<path d="M122.449 103.603C115.97 103.603 110.262 97.9132 110.262 88.7058C110.262 79.4985 115.919 73.8086 122.449 73.8086C128.98 73.8086 134.637 79.4985 134.637 88.7058C134.637 97.9132 128.98 103.603 122.449 103.603ZM122.449 98.1201C125.483 98.1201 128.517 95.0682 128.517 88.7576C128.517 82.4469 125.483 79.3951 122.449 79.3951C119.415 79.3951 116.381 82.4469 116.381 88.7576C116.381 95.0682 119.415 98.1201 122.449 98.1201Z" fill="#AAB2C5"/>
<path d="M160.812 92.5853V97.9132H157.572V103.034H151.504V97.9132H138.134V91.8094L150.527 74.481H157.624V92.6371H160.812V92.5853ZM151.453 81.5676L143.739 92.5853H151.453V81.5676Z" fill="#AAB2C5"/>
<path d="M194.846 168.495L160.395 134.07L168.293 126.172L202.717 160.624L194.846 168.495Z" fill="#D6DCE8" stroke="#AAB2C5" stroke-width="3.45436" stroke-miterlimit="10"/>
<path d="M206.821 180.607L180.404 154.19C178.198 151.984 178.198 148.389 180.404 146.183C182.61 143.977 186.204 143.977 188.41 146.183L214.828 172.6C217.034 174.806 217.034 178.401 214.828 180.607C212.622 182.813 209.027 182.813 206.821 180.607Z" fill="#D6DCE8" stroke="#AAB2C5" stroke-width="3.45436" stroke-miterlimit="10"/>
<path d="M204.943 182.296L170.955 148.307C170.165 147.517 170.165 146.237 170.955 145.42L179.642 136.732C180.432 135.943 181.712 135.943 182.529 136.732L216.518 170.721C217.308 171.511 217.308 172.791 216.518 173.608L207.83 182.296C207.013 183.086 205.733 183.086 204.943 182.296Z" fill="#D6DCE8" stroke="#AAB2C5" stroke-width="3.45436" stroke-miterlimit="10"/>
<path d="M121.394 23.144C85.335 23.144 56.1123 52.3667 56.1123 88.4253C56.1123 124.457 85.335 153.707 121.366 153.707C157.425 153.707 186.648 124.484 186.648 88.4253C186.648 52.3667 157.425 23.144 121.394 23.144ZM121.394 141.614C92.4432 141.614 68.9943 117.784 68.9943 88.398C68.9943 59.012 92.4432 35.209 121.394 35.209C150.344 35.209 173.793 59.0392 173.793 88.4253C173.793 117.811 150.317 141.614 121.394 141.614Z" fill="#D6DCE8" stroke="#AAB2C5" stroke-width="3.45436" stroke-miterlimit="10"/>
</svg>
